<svg width="33" height="32" viewBox="0 0 33 32" fill="none" xmlns="http://www.w3.org/2000/svg">
<path d="M8.56363 24.7046L8.75299 24.5152C7.98937 23.816 7.31733 23.0202 6.76287 22.1402C6.58836 21.8617 6.42623 21.5758 6.27524 21.2837C6.15147 21.0436 6.0339 20.7998 5.92746 20.5511H8.30744C9.49062 22.6934 11.4906 24.3234 13.8842 25.0214C14.1949 25.1118 14.513 25.1873 14.836 25.2454V24.7343V24.2788C14.5117 24.2132 14.1949 24.1278 13.8842 24.0264C13.7246 23.9744 13.5686 23.915 13.4139 23.8543C13.3756 23.8395 13.3372 23.8234 13.3001 23.8085C13.1503 23.7466 13.003 23.6823 12.8582 23.6117C12.8322 23.5994 12.8075 23.5858 12.7815 23.5721C12.6615 23.5127 12.5439 23.4496 12.4275 23.3853C12.3817 23.3593 12.3347 23.3345 12.2889 23.3073C12.1627 23.233 12.0377 23.1575 11.9164 23.0771C11.8644 23.0437 11.8149 23.0078 11.7642 22.9731C11.6862 22.9199 11.6095 22.8654 11.534 22.8098C11.4746 22.7652 11.4139 22.7219 11.3557 22.6761C11.2555 22.5981 11.1577 22.5177 11.0612 22.436C10.9906 22.3766 10.9238 22.3147 10.8557 22.2528C10.8161 22.2157 10.7765 22.1798 10.7369 22.1414C10.503 21.9199 10.2802 21.6847 10.0723 21.4372C10.0599 21.4224 10.0463 21.4063 10.0339 21.3902C9.81241 21.1229 9.6082 20.8431 9.42008 20.5498C9.3223 20.3976 9.23072 20.2429 9.14285 20.0845C9.14285 20.0845 9.14285 20.0832 9.14161 20.0832C9.05374 19.9248 8.97205 19.7639 8.89532 19.5993H8.51413H7.85075H5.57226H4.57596C4.67249 19.9223 4.78265 20.2392 4.90394 20.5511C5.09701 21.0461 5.31854 21.5276 5.57102 21.9892C5.7282 22.2763 5.89776 22.556 6.07721 22.8283C6.64529 23.6971 7.31733 24.4917 8.07724 25.1934L8.56363 24.7046Z" fill="#101010"/>
<path d="M9.9127 26.0462L9.58224 26.3766C11.5303 27.6873 13.8682 28.4596 16.3818 28.4843V27.5326C14.1318 27.5091 12.034 26.8333 10.2704 25.6873L9.9127 26.0462Z" fill="#101010"/>
<path d="M28.9463 16.0411C28.9463 15.728 28.9302 15.4173 28.9079 15.1092C28.8844 14.7886 28.8522 14.4705 28.804 14.1574H27.8386C27.8906 14.4705 27.929 14.7874 27.9549 15.1092C27.9797 15.4173 27.9958 15.7267 27.9958 16.0411C27.9958 16.2478 27.9896 16.452 27.9785 16.655C27.9611 16.9755 27.9289 17.2923 27.8856 17.6055H27.8844C27.6913 19.0201 27.2421 20.3518 26.5812 21.556L27.278 22.2528C28.0886 20.8518 28.6332 19.28 28.8448 17.6055H28.8436C28.8832 17.2911 28.9141 16.9755 28.9302 16.655C28.9401 16.452 28.9463 16.2465 28.9463 16.0411Z" fill="#101010"/>
<path d="M27.7322 5.31946L27.0589 5.99273C29.554 8.6091 31.085 12.15 31.085 16.0411C31.085 19.2417 30.0453 22.2058 28.2904 24.6118L28.8065 25.1279L28.2916 24.613L26.7582 23.0783L26.0738 22.3939C25.8955 22.6612 25.7049 22.9199 25.5057 23.1712C24.0044 25.0623 21.9239 26.4707 19.5328 27.1254V25.8841V24.8878C19.4511 24.9162 19.367 24.9397 19.2853 24.9657C19.3682 24.9397 19.4511 24.9162 19.5328 24.8878V23.8766L18.5811 24.1786V25.1588V26.1341V27.3432V27.7356V28.3111C18.9029 28.2566 19.2197 28.1873 19.5328 28.1093C22.19 27.441 24.5106 25.9187 26.1827 23.8494L27.7037 25.3704L28.1344 25.8011L28.377 26.0437C28.5824 25.7999 28.7829 25.5511 28.9735 25.2949C30.8968 22.7083 32.0379 19.5065 32.0379 16.0424C32.0367 11.8864 30.3981 8.1091 27.7322 5.31946ZM27.8535 25.1823C27.9537 25.0573 28.0515 24.9323 28.148 24.8036C28.0515 24.9323 27.9537 25.0586 27.8535 25.1823Z" fill="#101010"/>
<path d="M4.53514 24.3667C4.34949 24.1018 4.17127 23.832 4.00296 23.5536C2.67745 21.358 1.91382 18.7862 1.91382 16.0399C1.91382 12.7292 3.02398 9.67344 4.89034 7.22292L6.42006 8.75264C6.47947 8.67096 6.54135 8.59051 6.60323 8.50882C6.54135 8.58927 6.47947 8.66972 6.4213 8.75264L6.89037 9.22171L7.102 9.43334C7.28765 9.1722 7.48196 8.91972 7.68741 8.67467L7.56364 8.5509V8.54967L7.68741 8.67343C8.88173 7.24767 10.4139 6.11276 12.1615 5.39864C12.4721 5.27116 12.789 5.15606 13.1132 5.05581V5.05458C13.6627 4.88626 14.2283 4.75754 14.8088 4.67215V4.67091C14.9858 4.64492 15.164 4.62388 15.3434 4.60655V4.13253V4.1313V3.64986C15.2679 3.65728 15.1924 3.66347 15.1182 3.67213C15.0613 3.67832 15.0056 3.68575 14.9486 3.69317C14.8694 3.70307 14.789 3.71298 14.7098 3.72535C14.6491 3.73402 14.5885 3.74392 14.5278 3.75382C14.4536 3.76619 14.3793 3.77733 14.3051 3.79095C14.2333 3.80332 14.1615 3.81817 14.0897 3.83303C14.0291 3.8454 13.9684 3.85654 13.9078 3.86892C13.6392 3.92585 13.3744 3.99144 13.112 4.0657V4.06694C12.7902 4.15853 12.4721 4.26001 12.1615 4.37635C10.1478 5.12883 8.38048 6.38875 7.01289 7.99892L5.49678 6.48281L4.82351 5.80954C4.61311 6.0484 4.41014 6.29469 4.21583 6.54717C2.18115 9.17467 0.96579 12.468 0.96579 16.0411C0.96579 19.051 1.82842 21.8617 3.31606 24.2442C3.48686 24.5189 3.66756 24.7862 3.85568 25.0486C4.27152 25.6316 4.72821 26.186 5.22079 26.7034L5.5698 26.3556L5.89283 26.0301C5.39654 25.5127 4.9448 24.957 4.53514 24.3667Z" fill="#101010"/>
<path d="M16.5006 30.6267C13.352 30.6267 10.4287 29.6205 8.04381 27.915C7.78267 27.7294 7.52772 27.5351 7.28143 27.3333L8.80372 25.811C8.75421 25.7714 8.70595 25.7306 8.65768 25.691C8.70718 25.7306 8.75545 25.7714 8.80496 25.811L9.23813 25.3779L9.48319 25.1303C9.23071 24.9348 8.98813 24.7306 8.75545 24.514L8.07723 25.1922L6.56483 26.7046L6.23933 27.0326L5.89156 27.3779C6.12423 27.5945 6.36186 27.8036 6.60691 28.0078C6.85196 28.2121 7.10444 28.4076 7.36311 28.5982C9.92626 30.4695 13.0872 31.5784 16.5006 31.5784C20.9214 31.5784 24.9128 29.7207 27.7396 26.7504L27.0688 26.0796C24.4128 28.8779 20.6553 30.6267 16.5006 30.6267Z" fill="#101010"/>
<path d="M23.9821 21.6489C24.1764 21.3914 24.3559 21.1216 24.523 20.8444C25.1108 19.8667 25.523 18.7726 25.721 17.6067C25.7742 17.2949 25.8113 16.9768 25.8324 16.655H24.8782C24.8546 16.978 24.8138 17.2949 24.7544 17.6067C24.5824 18.5139 24.2655 19.3691 23.8262 20.1476C23.6665 20.431 23.4908 20.7046 23.3002 20.9669C22.5601 21.9855 21.5959 22.8283 20.4821 23.4311V24.493C21.8682 23.8395 23.0712 22.8618 23.9821 21.6489Z" fill="#101010"/>
<path d="M16.2927 4.55213C16.3274 4.54965 16.362 4.55089 16.3967 4.54965C16.362 4.54965 16.3274 4.54965 16.2927 4.55213V8.27866L16.0563 8.2539L14.6516 7.14622L10.7407 7.83187L8.17999 12.2131L10.3372 15.1488L13.2753 14.7107L14.9684 18.0003L14.9165 20.5239L16.3818 23.8333V27.5326V28.0054V28.4843C16.4214 28.4843 16.461 28.4868 16.5006 28.4868C16.7803 28.4868 17.0576 28.4744 17.3336 28.4571V28.0066V27.5029C17.1962 27.5128 17.0576 27.5215 16.919 27.5277C16.7803 27.5338 16.6405 27.5376 16.5006 27.5376C16.4808 27.5376 16.461 27.5363 16.4412 27.5363C16.461 27.5376 16.4808 27.5376 16.5006 27.5376C16.6405 27.5376 16.7803 27.5338 16.919 27.5289C17.0576 27.5227 17.1962 27.514 17.3336 27.5041V24.0524L19.2358 23.259L21.0391 20.7479L22.0502 17.5325L24.5168 14.1005L24.1381 12.3988L22.3336 12.8282L21.2235 11.6648L20.7247 8.74277L17.2445 8.37891V4.57069C17.1219 4.56203 16.9982 4.55584 16.8744 4.55213C16.7506 4.54841 16.6256 4.54594 16.5006 4.54594C16.6256 4.54594 16.7506 4.54718 16.8744 4.55213C16.9982 4.55584 17.1219 4.56203 17.2445 4.57069C17.565 4.59173 17.8818 4.62639 18.1962 4.67342C20.1554 4.96426 21.9549 5.74892 23.4611 6.90117C23.7148 7.09424 23.9599 7.29721 24.1963 7.51132C25.4587 8.65119 26.4661 10.067 27.1258 11.6611C27.2545 11.9718 27.3708 12.2886 27.4723 12.6129H28.4624C28.3696 12.2898 28.2656 11.973 28.1481 11.6611C27.4463 9.80219 26.3139 8.15242 24.8695 6.83805L26.3819 5.32565L27.054 4.65361C26.8213 4.43703 26.5824 4.22787 26.3374 4.02613C23.6542 1.82808 20.2296 0.506287 16.4982 0.506287C12.1887 0.506287 8.2889 2.27116 5.47079 5.11773L6.1416 5.78853C8.78643 3.11523 12.4536 1.45803 16.4982 1.45803C19.966 1.45803 23.1517 2.67587 25.6592 4.70436L24.1369 6.22665C23.8745 6.02244 23.6034 5.82937 23.3262 5.6462C23.3163 5.64001 23.3052 5.63382 23.2953 5.6264C23.1715 5.54471 23.0453 5.4655 22.919 5.38877C22.8906 5.37144 22.8621 5.35536 22.8336 5.33803C22.7247 5.27243 22.6146 5.20931 22.5019 5.14743C22.4623 5.12515 22.4227 5.10411 22.3819 5.08307C22.2804 5.02862 22.1777 4.97416 22.075 4.92218C22.0279 4.89867 21.9797 4.87515 21.9326 4.85164C21.8361 4.80461 21.7383 4.75881 21.6405 4.71426C21.5861 4.68951 21.5316 4.66475 21.4772 4.64124C21.3856 4.60039 21.2928 4.56203 21.1999 4.52366C21.1393 4.49891 21.0774 4.47292 21.0155 4.4494C20.9289 4.41599 20.8423 4.38381 20.7544 4.35163C20.6851 4.32688 20.617 4.30089 20.5465 4.27613C20.4697 4.24891 20.3905 4.22415 20.3126 4.1994C20.2321 4.17341 20.1517 4.14618 20.0712 4.12267C20.0155 4.10658 19.9598 4.09173 19.9041 4.07564C19.6554 4.00509 19.4029 3.94197 19.1492 3.88628C18.8398 3.81821 18.5266 3.76128 18.2086 3.71672C18.2061 3.71672 18.2036 3.71548 18.1999 3.71548C18.1974 3.71548 18.195 3.71548 18.1925 3.71425C18.0427 3.69321 17.893 3.67588 17.742 3.66103C17.7333 3.65979 17.7259 3.65979 17.7172 3.65855C17.5638 3.6437 17.4091 3.63132 17.2544 3.62266C17.2494 3.62266 17.2457 3.62142 17.2407 3.62142C17.237 3.62142 17.2321 3.62142 17.2284 3.62142C17.1281 3.61523 17.0266 3.61028 16.9251 3.60657C16.8237 3.60286 16.7222 3.60162 16.6207 3.60038C16.5786 3.60038 16.5378 3.59791 16.4957 3.59791C16.4548 3.59791 16.414 3.59915 16.3732 3.60038C16.3447 3.60038 16.3175 3.60038 16.289 3.60162C16.2766 3.60162 16.2642 3.60286 16.2531 3.60286C16.2655 3.60286 16.2779 3.60286 16.289 3.60162V4.55213H16.2927ZM15.7692 8.96307L15.7865 8.96555L20.315 11.9087L18.4771 13.9248L12.2939 8.30589L14.4561 7.92717L15.7692 8.96307ZM9.05995 12.1661L10.9201 8.98287L13.0439 13.999L10.6676 14.353L9.05995 12.1661ZM14.3286 15.1476L11.5785 8.65119L17.9808 14.4681L15.4226 17.2738L14.3286 15.1476ZM18.7593 22.6588L16.992 23.3952L15.6553 20.3753L15.6937 18.5016L20.1529 20.7169L18.7593 22.6588ZM20.4834 20.0585L15.9387 17.801L18.5254 14.9631L21.294 17.478L20.4834 20.0585ZM22.0923 13.6413L23.5812 13.2861L23.726 13.9371L21.6579 16.8134L19.0217 14.4186L20.8856 12.3752L22.0923 13.6413ZM20.3757 11.0695L17.3967 9.13387L20.0935 9.41605L20.3757 11.0695Z" fill="#101010"/>
<path d="M4.10446 17.134C4.11807 17.2924 4.1354 17.4495 4.1552 17.6055H5.11437H8.2456C8.18619 17.2936 8.14535 16.9768 8.12184 16.6537H5.02403H4.07104C4.07847 16.8134 4.08961 16.9731 4.10446 17.1315C4.10446 17.1327 4.10446 17.134 4.10446 17.134Z" fill="#101010"/>
<path d="M5.88412 9.56209C4.72321 11.4507 4.05489 13.6673 4.05489 16.0399C4.05489 16.2466 4.06231 16.4508 4.07098 16.6538H5.02519C5.01282 16.452 5.00663 16.2466 5.00663 16.0399C5.00663 13.9334 5.57718 11.9544 6.57596 10.2539L5.88412 9.56209Z" fill="#101010"/>
</svg>
