<svg width="24" height="25" viewBox="0 0 24 25" fill="none" xmlns="http://www.w3.org/2000/svg">
<g clip-path="url(#clip0_186_19004)">
<path d="M24 12.2344C24 5.60695 18.6274 0.234375 12 0.234375C5.37258 0.234375 0 5.60695 0 12.2344C0 18.2238 4.3882 23.1884 10.125 24.0886V15.7031H7.07812V12.2344H10.125V9.59063C10.125 6.58313 11.9166 4.92188 14.6576 4.92188C15.9701 4.92188 17.3438 5.15625 17.3438 5.15625V8.10938H15.8306C14.34 8.10938 13.875 9.03445 13.875 9.98438V12.2344H17.2031L16.6711 15.7031H13.875V24.0886C19.6118 23.1884 24 18.2238 24 12.2344Z" fill="#98A2B3"/>
</g>
<defs>
<clipPath id="clip0_186_19004">
<rect width="24" height="24" fill="white" transform="translate(0 0.234375)"/>
</clipPath>
</defs>
</svg>
