<svg width="24" height="25" viewBox="0 0 24 25" fill="none" xmlns="http://www.w3.org/2000/svg">
<g clip-path="url(#clip0_186_18999)">
<path d="M12 2.39531C15.2063 2.39531 15.5859 2.40937 16.8469 2.46562C18.0188 2.51719 18.6516 2.71406 19.0734 2.87813C19.6313 3.09375 20.0344 3.35625 20.4516 3.77344C20.8734 4.19531 21.1313 4.59375 21.3469 5.15156C21.5109 5.57344 21.7078 6.21094 21.7594 7.37812C21.8156 8.64375 21.8297 9.02344 21.8297 12.225C21.8297 15.4313 21.8156 15.8109 21.7594 17.0719C21.7078 18.2438 21.5109 18.8766 21.3469 19.2984C21.1313 19.8563 20.8687 20.2594 20.4516 20.6766C20.0297 21.0984 19.6313 21.3563 19.0734 21.5719C18.6516 21.7359 18.0141 21.9328 16.8469 21.9844C15.5813 22.0406 15.2016 22.0547 12 22.0547C8.79375 22.0547 8.41406 22.0406 7.15313 21.9844C5.98125 21.9328 5.34844 21.7359 4.92656 21.5719C4.36875 21.3563 3.96563 21.0938 3.54844 20.6766C3.12656 20.2547 2.86875 19.8563 2.65313 19.2984C2.48906 18.8766 2.29219 18.2391 2.24063 17.0719C2.18438 15.8063 2.17031 15.4266 2.17031 12.225C2.17031 9.01875 2.18438 8.63906 2.24063 7.37812C2.29219 6.20625 2.48906 5.57344 2.65313 5.15156C2.86875 4.59375 3.13125 4.19062 3.54844 3.77344C3.97031 3.35156 4.36875 3.09375 4.92656 2.87813C5.34844 2.71406 5.98594 2.51719 7.15313 2.46562C8.41406 2.40937 8.79375 2.39531 12 2.39531ZM12 0.234375C8.74219 0.234375 8.33438 0.248437 7.05469 0.304688C5.77969 0.360938 4.90313 0.567187 4.14375 0.8625C3.35156 1.17187 2.68125 1.57969 2.01563 2.25C1.34531 2.91563 0.9375 3.58594 0.628125 4.37344C0.332812 5.1375 0.126563 6.00937 0.0703125 7.28437C0.0140625 8.56875 0 8.97656 0 12.2344C0 15.4922 0.0140625 15.9 0.0703125 17.1797C0.126563 18.4547 0.332812 19.3313 0.628125 20.0906C0.9375 20.8828 1.34531 21.5531 2.01563 22.2188C2.68125 22.8844 3.35156 23.2969 4.13906 23.6016C4.90313 23.8969 5.775 24.1031 7.05 24.1594C8.32969 24.2156 8.7375 24.2297 11.9953 24.2297C15.2531 24.2297 15.6609 24.2156 16.9406 24.1594C18.2156 24.1031 19.0922 23.8969 19.8516 23.6016C20.6391 23.2969 21.3094 22.8844 21.975 22.2188C22.6406 21.5531 23.0531 20.8828 23.3578 20.0953C23.6531 19.3313 23.8594 18.4594 23.9156 17.1844C23.9719 15.9047 23.9859 15.4969 23.9859 12.2391C23.9859 8.98125 23.9719 8.57344 23.9156 7.29375C23.8594 6.01875 23.6531 5.14219 23.3578 4.38281C23.0625 3.58594 22.6547 2.91563 21.9844 2.25C21.3188 1.58438 20.6484 1.17188 19.8609 0.867188C19.0969 0.571875 18.225 0.365625 16.95 0.309375C15.6656 0.248438 15.2578 0.234375 12 0.234375Z" fill="#98A2B3"/>
<path d="M12 6.07031C8.59688 6.07031 5.83594 8.83125 5.83594 12.2344C5.83594 15.6375 8.59688 18.3984 12 18.3984C15.4031 18.3984 18.1641 15.6375 18.1641 12.2344C18.1641 8.83125 15.4031 6.07031 12 6.07031ZM12 16.2328C9.79219 16.2328 8.00156 14.4422 8.00156 12.2344C8.00156 10.0266 9.79219 8.23594 12 8.23594C14.2078 8.23594 15.9984 10.0266 15.9984 12.2344C15.9984 14.4422 14.2078 16.2328 12 16.2328Z" fill="#98A2B3"/>
<path d="M19.8469 5.82652C19.8469 6.62339 19.2 7.26558 18.4078 7.26558C17.6109 7.26558 16.9688 6.6187 16.9688 5.82652C16.9688 5.02964 17.6156 4.38745 18.4078 4.38745C19.2 4.38745 19.8469 5.03433 19.8469 5.82652Z" fill="#98A2B3"/>
</g>
<defs>
<clipPath id="clip0_186_18999">
<rect width="24" height="24" fill="white" transform="translate(0 0.234375)"/>
</clipPath>
</defs>
</svg>
