<svg width="24" height="25" viewBox="0 0 24 25" fill="none" xmlns="http://www.w3.org/2000/svg">
<g clip-path="url(#clip0_186_18994)">
<path d="M22.2234 0.234375H1.77187C0.792187 0.234375 0 1.00781 0 1.96406V22.5C0 23.4562 0.792187 24.2344 1.77187 24.2344H22.2234C23.2031 24.2344 24 23.4563 24 22.5047V1.96406C24 1.00781 23.2031 0.234375 22.2234 0.234375ZM7.12031 20.6859H3.55781V9.22969H7.12031V20.6859ZM5.33906 7.66875C4.19531 7.66875 3.27188 6.74531 3.27188 5.60625C3.27188 4.46719 4.19531 3.54375 5.33906 3.54375C6.47813 3.54375 7.40156 4.46719 7.40156 5.60625C7.40156 6.74062 6.47813 7.66875 5.33906 7.66875ZM20.4516 20.6859H16.8937V15.1172C16.8937 13.7906 16.8703 12.0797 15.0422 12.0797C13.1906 12.0797 12.9094 13.5281 12.9094 15.0234V20.6859H9.35625V9.22969H12.7687V10.7953H12.8156C13.2891 9.89531 14.4516 8.94375 16.1813 8.94375C19.7859 8.94375 20.4516 11.3156 20.4516 14.4V20.6859Z" fill="#98A2B3"/>
</g>
<defs>
<clipPath id="clip0_186_18994">
<rect width="24" height="24" fill="white" transform="translate(0 0.234375)"/>
</clipPath>
</defs>
</svg>
