<svg width="24" height="25" viewBox="0 0 24 25" fill="none" xmlns="http://www.w3.org/2000/svg">
<path d="M7.55016 21.9844C16.6045 21.9844 21.5583 14.4811 21.5583 7.97624C21.5583 7.7653 21.5536 7.54967 21.5442 7.33874C22.5079 6.64184 23.3395 5.77863 24 4.78967C23.1025 5.18897 22.1496 5.44976 21.1739 5.56311C22.2013 4.94728 22.9705 3.97985 23.3391 2.84014C22.3726 3.41293 21.3156 3.81699 20.2134 4.03499C19.4708 3.24594 18.489 2.72349 17.4197 2.54843C16.3504 2.37336 15.2532 2.55543 14.2977 3.06647C13.3423 3.57752 12.5818 4.38908 12.1338 5.37569C11.6859 6.36229 11.5754 7.46899 11.8195 8.52467C9.86249 8.42647 7.94794 7.91808 6.19998 7.03247C4.45203 6.14687 2.90969 4.90381 1.67297 3.38389C1.0444 4.46762 0.852057 5.75002 1.13503 6.97047C1.418 8.19091 2.15506 9.25782 3.19641 9.95436C2.41463 9.92954 1.64998 9.71906 0.965625 9.3403V9.40124C0.964925 10.5385 1.3581 11.641 2.07831 12.5211C2.79852 13.4013 3.80132 14.0049 4.91625 14.2294C4.19206 14.4275 3.43198 14.4564 2.69484 14.3137C3.00945 15.2918 3.62157 16.1473 4.44577 16.7607C5.26997 17.3742 6.26512 17.715 7.29234 17.7356C5.54842 19.1055 3.39417 19.8485 1.17656 19.845C0.783287 19.8444 0.390399 19.8203 0 19.7728C2.25286 21.2181 4.87353 21.9858 7.55016 21.9844Z" fill="#98A2B3"/>
</svg>
