<svg width="25" height="24" viewBox="0 0 25 24" fill="none" xmlns="http://www.w3.org/2000/svg">
<path d="M7.30492 4.02191C7.85579 4.17214 8.40665 4.2723 8.95751 4.42254C9.50837 4.57277 10.0592 4.67293 10.6101 4.82316C10.7603 4.87324 10.8104 4.82316 10.8605 4.67293C11.0608 3.8216 11.2611 3.02034 11.4614 2.16901C11.5115 2.01878 11.5616 1.9687 11.7118 2.01878C12.2126 2.16901 12.6633 2.26917 13.1641 2.36933C13.3143 2.41941 13.3143 2.46948 13.2642 2.56964C13.0639 3.37089 12.8636 4.22222 12.6633 5.02347C12.6633 5.07355 12.6633 5.12363 12.6132 5.22379C13.0138 5.32394 13.4645 5.4241 13.8652 5.52426C13.9153 5.52426 13.9653 5.4241 14.0154 5.37402C14.1656 4.723 14.3159 4.12207 14.5162 3.47105C14.5663 3.27074 14.6163 3.07042 14.6664 2.87011C14.6664 2.76995 14.7165 2.71987 14.8167 2.76995C15.3174 2.92019 15.8182 3.02034 16.3691 3.17058C16.4192 3.17058 16.4192 3.22066 16.4692 3.22066C16.319 3.87167 16.1688 4.47261 16.0185 5.07355C15.9685 5.32394 15.9184 5.57433 15.8182 5.82473C15.7681 5.97496 15.8182 6.02504 15.9685 6.07512C16.5193 6.32551 17.0702 6.5759 17.621 6.82629C18.1218 7.12676 18.5725 7.52739 18.9231 8.02817C19.3738 8.77934 19.4239 9.5806 19.2235 10.3818C19.0733 10.9327 18.873 11.4335 18.4724 11.8341C18.1719 12.1346 17.7713 12.3349 17.3707 12.4851C17.3206 12.4851 17.2705 12.5352 17.1703 12.5352C17.3707 12.6854 17.571 12.7856 17.7713 12.9358C18.3722 13.3865 18.7728 13.9374 18.9732 14.6385C19.0733 15.1894 19.0232 15.7903 18.873 16.3412C18.6727 17.0423 18.4223 17.6432 17.9716 18.1941C17.4207 18.8451 16.7196 19.1956 15.9184 19.2958C14.8667 19.446 13.8652 19.3459 12.8636 19.1956C12.7134 19.1455 12.6132 19.1956 12.5631 19.3459C12.3628 20.1471 12.1625 20.9984 11.9622 21.7997C11.9121 22 11.9121 22.0501 11.6617 21.9499C11.211 21.8498 10.7102 21.6995 10.2595 21.5994C10.1093 21.5493 10.1093 21.4992 10.1594 21.3991C10.3597 20.5477 10.56 19.6964 10.8104 18.8951C10.8104 18.795 10.8605 18.7449 10.7603 18.6948C10.3597 18.5947 9.95907 18.4945 9.50837 18.3944C9.40821 18.8451 9.25798 19.2958 9.15782 19.7465C9.05766 20.1972 8.90743 20.6479 8.80727 21.0986C8.75719 21.1987 8.75719 21.2488 8.60696 21.1987C8.10618 21.0485 7.60539 20.9484 7.10461 20.8482C6.95438 20.7981 6.95438 20.748 7.00446 20.6479C7.20477 19.7966 7.40508 18.9452 7.65547 18.144C7.65547 18.0939 7.70555 18.0438 7.70555 17.9437C6.55375 17.6432 5.40195 17.3427 4.20007 17.0423C4.30023 16.8419 4.35031 16.6917 4.45046 16.4914C4.65078 16.0407 4.85109 15.59 5.00133 15.1894C5.0514 15.0391 5.10148 15.0391 5.25172 15.0391C5.60226 15.1393 6.00289 15.2394 6.35344 15.2895C6.75406 15.3897 7.05453 15.1894 7.10461 14.8388C7.75563 12.2848 8.40665 9.73083 9.00758 7.12676C9.10774 6.72613 8.85735 6.27543 8.40665 6.1252C7.95594 5.97496 7.50524 5.8748 7.10461 5.77465C7.00445 5.77465 6.95438 5.72457 7.00446 5.62441C7.15469 5.07355 7.30492 4.47261 7.45516 3.92175C7.25485 4.07199 7.25485 4.07199 7.30492 4.02191ZM9.85892 16.3912C9.90899 16.3912 9.95907 16.4413 9.95907 16.4413C10.7603 16.6416 11.6117 16.892 12.463 16.9421C13.0639 16.9922 13.6148 16.9922 14.1656 16.7919C15.1171 16.4914 15.5178 15.2394 14.9669 14.4382C14.7165 14.0376 14.3159 13.7872 13.9153 13.5368C13.0138 13.036 11.9622 12.8357 10.9606 12.6354C10.8104 12.5853 10.8104 12.6354 10.7603 12.7856C10.6602 13.2864 10.5099 13.7371 10.4098 14.2379C10.2095 14.939 10.0592 15.6401 9.85892 16.3912ZM14.0655 11.2833C14.1656 11.2833 14.416 11.2332 14.6163 11.1831C15.5678 10.9828 16.0686 9.88106 15.5678 9.02973C15.3174 8.57903 14.8667 8.27856 14.416 8.07825C13.7149 7.77778 13.0138 7.62754 12.2627 7.42723C12.1124 7.37715 12.0624 7.42723 12.0123 7.57746C11.7619 8.62911 11.5115 9.63067 11.211 10.6823C11.1609 10.7825 11.211 10.8326 11.3112 10.8826C11.5115 10.9327 11.6617 10.9828 11.862 11.0329C12.6132 11.133 13.2642 11.2833 14.0655 11.2833Z" fill="#F5B300"/>
</svg>
