<svg width="33" height="33" viewBox="0 0 33 33" fill="none" xmlns="http://www.w3.org/2000/svg">
<g clip-path="url(#clip0_111_19775)">
<path d="M16.5 6.59766C15.6367 6.59766 14.9766 5.9375 14.9766 5.07422V2.28125C14.9766 1.41797 15.6367 0.757812 16.5 0.757812C17.3633 0.757812 18.0234 1.41797 18.0234 2.28125V5.07422C18.0234 5.88672 17.3633 6.59766 16.5 6.59766Z" fill="#76FFE5"/>
<path d="M16.5 32.2422C15.6367 32.2422 14.9766 31.582 14.9766 30.7188V27.9258C14.9766 27.0625 15.6367 26.4023 16.5 26.4023C17.3633 26.4023 18.0234 27.0625 18.0234 27.9258V30.7188C18.0234 31.582 17.3633 32.2422 16.5 32.2422Z" fill="#0DBFBA"/>
<path d="M10.7618 8.12113C10.2539 8.12113 9.74613 7.86722 9.44144 7.35941L8.07035 4.97269C7.6641 4.26175 7.918 3.29691 8.62894 2.89066C9.33988 2.48441 10.3047 2.73832 10.711 3.44925L12.0821 5.83597C12.4883 6.54691 12.2344 7.51175 11.5235 7.918C11.3203 8.01957 11.0157 8.12113 10.7618 8.12113Z" fill="#BBFFF2"/>
<path d="M23.6093 30.3125C23.1015 30.3125 22.5937 30.0586 22.289 29.5508L20.9179 27.1641C20.5116 26.4532 20.7655 25.4883 21.4765 25.0821C22.1874 24.6758 23.1523 24.9297 23.5585 25.6407L24.9296 28.0274C25.3358 28.7383 25.0819 29.7032 24.371 30.1094C24.1171 30.2618 23.8632 30.3125 23.6093 30.3125Z" fill="#1BCEB8"/>
<path d="M6.59757 12.2852C6.34366 12.2852 6.08976 12.2344 5.83585 12.0821L3.44913 10.711C2.73819 10.3047 2.48429 9.33988 2.89054 8.62894C3.29679 7.918 4.26163 7.6641 4.97257 8.07035L7.35929 9.44144C8.07023 9.84769 8.32413 10.8125 7.91788 11.5235C7.61319 12.0313 7.10538 12.2852 6.59757 12.2852Z" fill="#E1FFF9"/>
<path d="M28.8399 25.1328C28.586 25.1328 28.3321 25.0821 28.0782 24.9297L25.6407 23.5586C24.9297 23.1524 24.6758 22.1875 25.0821 21.4766C25.4883 20.7657 26.4532 20.5118 27.1641 20.918L29.5508 22.2891C30.2618 22.6953 30.5157 23.6602 30.1094 24.3711C29.8555 24.8789 29.3477 25.1328 28.8399 25.1328Z" fill="#26DBC0"/>
<path d="M5.07422 18.0234H2.28125C1.41797 18.0234 0.757812 17.3633 0.757812 16.5C0.757812 15.6367 1.41797 14.9766 2.28125 14.9766H5.07422C5.9375 14.9766 6.59766 15.6367 6.59766 16.5C6.59766 17.3633 5.88672 18.0234 5.07422 18.0234Z" fill="#F3FFFD"/>
<path d="M30.7188 18.0234H27.9258C27.0625 18.0234 26.4023 17.3633 26.4023 16.5C26.4023 15.6367 27.0625 14.9766 27.9258 14.9766H30.7188C31.582 14.9766 32.2422 15.6367 32.2422 16.5C32.2422 17.3633 31.582 18.0234 30.7188 18.0234Z" fill="#2EE5C6"/>
<path d="M4.16019 25.1328C3.65238 25.1328 3.14457 24.8789 2.83988 24.3711C2.43363 23.6602 2.68753 22.6953 3.39847 22.2891L5.78519 20.918C6.49613 20.5118 7.46097 20.7657 7.86722 21.4766C8.27347 22.1875 8.01957 23.1524 7.30863 23.5586L4.92191 24.9297C4.71878 25.0821 4.46488 25.1328 4.16019 25.1328Z" fill="#11AEBA"/>
<path d="M26.4024 12.2852C25.8946 12.2852 25.3868 12.0313 25.0821 11.5235C24.6758 10.8125 24.9297 9.84769 25.6407 9.44144L28.0274 8.07035C28.7383 7.6641 29.7032 7.918 30.1094 8.62894C30.5157 9.33988 30.2618 10.3047 29.5508 10.711L27.1641 12.0821C26.9102 12.2344 26.6563 12.2852 26.4024 12.2852Z" fill="#3BEDCB"/>
<path d="M9.39066 30.3125C9.13675 30.3125 8.88285 30.2618 8.62894 30.1094C7.918 29.7032 7.6641 28.7383 8.07035 28.0274L9.44144 25.6407C9.84769 24.9297 10.8125 24.6758 11.5235 25.0821C12.2344 25.4883 12.4883 26.4532 12.0821 27.1641L10.711 29.5508C10.4063 30.0586 9.89847 30.3125 9.39066 30.3125Z" fill="#0FB8BC"/>
<path d="M22.2382 8.12113C21.9843 8.12113 21.7304 8.07035 21.4765 7.918C20.7655 7.51175 20.5116 6.54691 20.9179 5.83597L22.289 3.44925C22.6952 2.73832 23.6601 2.48441 24.371 2.89066C25.0819 3.29691 25.3358 4.26175 24.9296 4.97269L23.5585 7.35941C23.2538 7.81644 22.746 8.12113 22.2382 8.12113Z" fill="#57F7D8"/>
</g>
<defs>
<clipPath id="clip0_111_19775">
<rect width="32.5" height="32.5" fill="white" transform="translate(0.25 0.25)"/>
</clipPath>
</defs>
</svg>
