<svg width="17" height="17" viewBox="0 0 17 17" fill="none" xmlns="http://www.w3.org/2000/svg">
<path d="M8.5 12.0669C9.10015 12.0669 9.58666 11.5804 9.58666 10.9802C9.58666 10.3801 9.10015 9.89355 8.5 9.89355C7.89985 9.89355 7.41333 10.3801 7.41333 10.9802C7.41333 11.5804 7.89985 12.0669 8.5 12.0669Z" fill="#181717"/>
<path d="M12.6867 6.8535V6.02016C12.6867 4.22016 12.2534 1.8335 8.50004 1.8335C4.74671 1.8335 4.31337 4.22016 4.31337 6.02016V6.8535C2.44671 7.08683 1.83337 8.0335 1.83337 10.3602V11.6002C1.83337 14.3335 2.66671 15.1668 5.40004 15.1668H11.6C14.3334 15.1668 15.1667 14.3335 15.1667 11.6002V10.3602C15.1667 8.0335 14.5534 7.08683 12.6867 6.8535ZM8.50004 12.9935C7.38671 12.9935 6.48671 12.0868 6.48671 10.9802C6.48671 9.86683 7.39337 8.96683 8.50004 8.96683C9.60671 8.96683 10.5134 9.8735 10.5134 10.9802C10.5134 12.0935 9.61337 12.9935 8.50004 12.9935ZM5.40004 6.7935C5.34671 6.7935 5.30004 6.7935 5.24671 6.7935V6.02016C5.24671 4.06683 5.80004 2.76683 8.50004 2.76683C11.2 2.76683 11.7534 4.06683 11.7534 6.02016V6.80016C11.7 6.80016 11.6534 6.80016 11.6 6.80016H5.40004V6.7935Z" fill="#181717"/>
</svg>
