<svg width="332" height="219" viewBox="0 0 332 219" fill="none" xmlns="http://www.w3.org/2000/svg">
<path d="M131.753 102.984L132.558 102.178C129.309 99.2051 126.446 95.8188 124.092 92.0679C123.349 90.8841 122.661 89.6658 122.014 88.4201C121.491 87.4015 120.988 86.3622 120.534 85.3023H130.658C135.696 94.4217 144.203 101.352 154.389 104.326C155.711 104.711 157.06 105.028 158.436 105.275V103.101V101.167C157.053 100.891 155.704 100.527 154.389 100.093C153.715 99.8727 153.047 99.618 152.387 99.3634C152.221 99.3014 152.063 99.2326 151.898 99.1638C151.265 98.9022 150.631 98.6269 150.019 98.3241C149.909 98.269 149.799 98.214 149.689 98.1589C149.179 97.9043 148.677 97.6358 148.181 97.3605C147.982 97.2504 147.789 97.1403 147.596 97.0302C147.059 96.7136 146.529 96.3901 146.006 96.0529C145.786 95.9083 145.573 95.7569 145.359 95.6055C145.029 95.3784 144.706 95.1444 144.382 94.9104C144.127 94.7245 143.873 94.5387 143.625 94.346C143.198 94.0156 142.778 93.6715 142.372 93.3274C142.076 93.0727 141.787 92.8112 141.498 92.5496C141.326 92.3913 141.161 92.2399 140.989 92.0747C139.991 91.1318 139.048 90.1339 138.16 89.0808C138.105 89.012 138.05 88.9501 137.995 88.8812C137.052 87.7456 136.178 86.5549 135.387 85.3023C134.974 84.6554 134.581 83.9946 134.21 83.3201V83.3133C133.838 82.6388 133.487 81.9505 133.157 81.2554H131.532H128.711H119.013H114.773C115.186 82.6319 115.654 83.9809 116.171 85.3023C116.99 87.4084 117.932 89.4594 119.006 91.4209C119.674 92.646 120.396 93.8298 121.16 94.9929C123.576 98.6889 126.432 102.075 129.674 105.055L131.753 102.984Z" fill="white"/>
<path d="M137.493 108.689L136.089 110.093C144.375 115.668 154.327 118.958 165.023 119.061V115.014C155.449 114.911 146.523 112.041 139.014 107.161L137.493 108.689Z" fill="white"/>
<path d="M218.487 66.1133C218.487 64.7781 218.418 63.4567 218.321 62.149C218.218 60.7862 218.08 59.4304 217.881 58.1021H213.772C213.992 59.4373 214.157 60.7862 214.268 62.149C214.371 63.4567 214.44 64.7781 214.44 66.1133C214.44 66.9874 214.412 67.8615 214.371 68.7287C214.302 70.0915 214.157 71.4404 213.978 72.7757H213.972C213.153 78.7979 211.239 84.4622 208.424 89.5828L211.391 92.5492C214.839 86.5889 217.158 79.8991 218.06 72.7757H218.053C218.218 71.4404 218.356 70.0915 218.418 68.7287C218.459 67.8615 218.487 66.9943 218.487 66.1133Z" fill="white"/>
<path d="M213.318 20.4961L210.455 23.3592C221.067 34.4883 227.585 49.5611 227.585 66.1136C227.585 79.7342 223.16 92.343 215.692 102.584L209.167 96.0596L206.256 93.1483C205.499 94.2839 204.687 95.3851 203.84 96.4588C197.453 104.504 188.596 110.499 178.423 113.287V108.001V103.761C178.072 103.878 177.721 103.981 177.37 104.092C177.721 103.981 178.079 103.878 178.423 103.761V99.4596L174.376 100.747V104.917C174.555 104.876 174.734 104.821 174.913 104.78C174.734 104.821 174.562 104.876 174.383 104.917V109.068V114.209V115.881V118.325C175.753 118.091 177.102 117.802 178.43 117.464C189.738 114.622 199.615 108.145 206.731 99.3357L213.201 105.805L215.038 107.643L216.071 108.675C216.945 107.636 217.798 106.576 218.61 105.489C226.794 94.4835 231.646 80.856 231.646 66.1136C231.639 48.4392 224.667 32.3685 213.318 20.4961Z" fill="white"/>
<path d="M114.608 101.545C113.817 100.416 113.06 99.267 112.344 98.0901C106.707 88.7436 103.452 77.8072 103.452 66.1137C103.452 52.0252 108.18 39.024 116.115 28.597L122.626 35.1079C122.881 34.7568 123.143 34.4196 123.404 34.0755C123.143 34.4196 122.881 34.7637 122.626 35.1147L124.622 37.1107L125.524 38.0123C126.315 36.8973 127.141 35.8236 128.015 34.7844L127.492 34.2613L128.015 34.7913C133.102 28.7208 139.619 23.8962 147.053 20.8541C148.374 20.3104 149.723 19.8217 151.099 19.395C153.44 18.6792 155.848 18.1286 158.312 17.7638V17.7569C159.063 17.6468 159.827 17.5574 160.591 17.4816V15.4651V15.4582V13.4141C160.267 13.4416 159.95 13.476 159.634 13.5104C159.393 13.5379 159.152 13.5724 158.911 13.5999C158.574 13.6412 158.23 13.6825 157.893 13.7375C157.631 13.772 157.376 13.8201 157.122 13.8614C156.805 13.9096 156.489 13.9647 156.172 14.0197C155.862 14.0748 155.559 14.1367 155.257 14.1987C155.002 14.2469 154.74 14.295 154.486 14.3501C153.343 14.591 152.214 14.8732 151.099 15.1829V15.1898C149.73 15.5752 148.374 16.0088 147.053 16.5043C138.484 19.7047 130.961 25.0662 125.145 31.9212L118.696 25.4654L115.826 22.5954C114.932 23.614 114.071 24.6601 113.239 25.7338C104.58 36.918 99.4047 50.9308 99.4047 66.1344C99.4047 78.9428 103.08 90.9047 109.405 101.043C110.135 102.213 110.905 103.348 111.704 104.47C113.473 106.948 115.42 109.309 117.513 111.511L118.999 110.031L120.376 108.648C118.27 106.425 116.35 104.057 114.608 101.545Z" fill="white"/>
<path d="M165.525 128.181C152.125 128.181 139.688 123.9 129.536 116.645C128.421 115.854 127.341 115.028 126.288 114.168L132.764 107.684L134.609 105.84L135.648 104.787C134.574 103.954 133.542 103.087 132.551 102.165L129.667 105.048C129.812 105.179 129.963 105.31 130.108 105.441C129.963 105.31 129.812 105.186 129.667 105.048L123.232 111.484L121.849 112.881L120.369 114.347C121.36 115.269 122.372 116.157 123.418 117.031C124.457 117.898 125.531 118.731 126.639 119.543C137.548 127.506 150.996 132.221 165.518 132.221C184.328 132.221 201.315 124.319 213.345 111.676L210.489 108.82C199.195 120.747 183.2 128.181 165.525 128.181Z" fill="white"/>
<path d="M197.364 89.9823C198.19 88.8811 198.954 87.7386 199.663 86.5616C202.161 82.3977 203.916 77.7451 204.756 72.7828C204.983 71.4544 205.141 70.1055 205.231 68.7358H201.17C201.074 70.1055 200.895 71.4613 200.647 72.7828C199.917 76.6439 198.568 80.2848 196.696 83.5953C196.015 84.7997 195.272 85.9697 194.46 87.0847C191.314 91.4207 187.205 95.0065 182.47 97.5737V102.096C188.368 99.3012 193.482 95.1442 197.364 89.9823Z" fill="white"/>
<path d="M164.644 17.227C164.789 17.2201 164.94 17.2201 165.085 17.2201C164.933 17.2201 164.789 17.2133 164.644 17.227V33.0844L163.639 32.9812L157.659 28.2666L141.017 31.1848L130.121 49.8297L139.296 62.3215L151.801 60.4563L159.001 74.4554L158.78 85.1922L165.016 99.2739V115.014V117.024V119.061C165.188 119.061 165.353 119.075 165.525 119.075C166.716 119.075 167.893 119.027 169.07 118.944V117.024V114.883C168.485 114.925 167.9 114.959 167.308 114.987C166.716 115.014 166.124 115.028 165.532 115.028C165.45 115.028 165.36 115.028 165.278 115.021C165.36 115.021 165.443 115.028 165.532 115.028C166.131 115.028 166.723 115.014 167.308 114.987C167.9 114.959 168.485 114.925 169.07 114.883V100.196L177.164 96.8237L184.838 86.1351L189.139 72.4526L199.635 57.8478L198.025 50.6074L190.344 52.4381L185.622 47.4827L183.503 35.0459L168.691 33.4974V17.2958C170.054 17.3853 171.403 17.5298 172.738 17.7294C181.073 18.9683 188.733 22.3063 195.141 27.2136C196.221 28.0395 197.268 28.8998 198.272 29.8083C203.641 34.6605 207.929 40.6827 210.737 47.4689C211.28 48.7904 211.783 50.1394 212.21 51.5159H216.422C216.029 50.1463 215.589 48.7904 215.087 47.4689C212.1 39.554 207.282 32.5338 201.136 26.9452L207.571 20.51L210.434 17.6469C209.443 16.7246 208.431 15.8299 207.385 14.9764C195.967 5.62304 181.396 0 165.518 0C147.183 0 130.583 7.50886 118.593 19.6221L121.449 22.4784C132.702 11.1015 148.305 4.04694 165.525 4.04694C180.281 4.04694 193.84 9.2295 204.508 17.8602L198.032 24.3367C196.917 23.4695 195.767 22.6436 194.583 21.8659C194.542 21.8383 194.494 21.8108 194.453 21.7833C193.923 21.4391 193.393 21.1019 192.849 20.7715C192.725 20.6958 192.608 20.627 192.484 20.5582C192.016 20.2829 191.548 20.0076 191.073 19.746C190.901 19.6497 190.736 19.5602 190.564 19.4707C190.13 19.2367 189.697 19.0096 189.256 18.7894C189.057 18.6861 188.85 18.5898 188.651 18.4865C188.238 18.2869 187.825 18.0942 187.412 17.9015C187.178 17.7983 186.951 17.6881 186.717 17.5918C186.324 17.4197 185.932 17.2545 185.533 17.0894C185.271 16.9792 185.01 16.876 184.748 16.7728C184.383 16.6282 184.012 16.4906 183.64 16.3598C183.344 16.2497 183.055 16.1396 182.759 16.0432C182.429 15.9331 182.098 15.823 181.768 15.7197C181.424 15.6096 181.087 15.4926 180.743 15.3894C180.509 15.3206 180.268 15.2586 180.034 15.1898C178.974 14.887 177.9 14.6254 176.82 14.3845C175.505 14.0955 174.17 13.8477 172.821 13.6619C172.807 13.6619 172.8 13.655 172.786 13.655C172.773 13.655 172.766 13.655 172.752 13.6481C172.119 13.5586 171.479 13.4898 170.839 13.421C170.804 13.4141 170.77 13.4141 170.735 13.4072C170.082 13.3453 169.421 13.2902 168.767 13.2558C168.746 13.2558 168.733 13.2558 168.712 13.2489C168.691 13.2489 168.678 13.2489 168.657 13.2489C168.23 13.2214 167.797 13.2007 167.37 13.187C166.943 13.1732 166.51 13.1663 166.076 13.1594C165.897 13.1594 165.725 13.1457 165.546 13.1457C165.374 13.1457 165.195 13.1526 165.023 13.1526C164.906 13.1526 164.782 13.1525 164.665 13.1594C164.61 13.1594 164.562 13.1663 164.507 13.1663C164.562 13.1663 164.61 13.1663 164.665 13.1663V17.227H164.644ZM162.407 36.0026L162.483 36.0095L181.754 48.5357L173.929 57.1114L147.617 33.2014L156.819 31.5909L162.407 36.0026ZM133.866 49.6301L141.78 36.0852L150.817 57.4349L140.707 58.9421L133.866 49.6301ZM156.282 62.3146L144.582 34.6743L171.823 59.4308L160.935 71.372L156.282 62.3146ZM175.133 94.2772L167.618 97.4087L161.926 84.559L162.091 76.589L181.066 86.0181L175.133 94.2772ZM182.47 83.21L163.13 73.602L174.142 61.53L185.918 72.2324L182.47 83.21ZM189.318 55.9069L195.657 54.3997L196.27 57.1664L187.474 69.4105L176.255 59.2175L184.184 50.5179L189.318 55.9069ZM182.016 44.9637L169.338 36.7253L180.811 37.9228L182.016 44.9637Z" fill="white"/>
<path d="M112.777 70.7731C112.839 71.4476 112.908 72.1152 112.991 72.7828H117.072H130.397C130.149 71.4544 129.97 70.1055 129.874 68.7358H116.687H112.633C112.667 69.4172 112.716 70.0917 112.771 70.7662C112.777 70.7662 112.777 70.7662 112.777 70.7731Z" fill="white"/>
<path d="M120.348 38.5488C115.407 46.5808 112.564 56.0167 112.564 66.1134C112.564 66.9944 112.592 67.8616 112.633 68.7219H116.694C116.645 67.8616 116.611 66.9944 116.611 66.1134C116.611 57.1455 119.041 48.7281 123.287 41.4946L120.348 38.5488Z" fill="white"/>
<path d="M65.3361 202.464C61.8672 202.464 59.1624 201.569 57.2284 199.78C55.2944 197.99 54.324 195.533 54.324 192.402C54.324 190.261 54.9159 188.375 56.0928 186.758C57.2697 185.141 58.9972 183.874 61.2616 182.959C63.5328 182.044 66.2859 181.589 69.5275 181.589H74.7307V178.719C74.7307 176.909 74.187 175.471 73.1065 174.397C72.0259 173.323 70.4498 172.786 68.3919 172.786C67.215 172.786 66.1757 172.931 65.2672 173.213C64.3656 173.495 63.5535 173.901 62.8377 174.425L62.115 179.029H56.2786L56.2167 170.605C57.896 169.51 59.7681 168.643 61.8328 168.003C63.8907 167.363 66.1826 167.04 68.7085 167.04C73.0376 167.04 76.4514 168.058 78.9429 170.082C81.4343 172.112 82.6801 175.016 82.6801 178.802V193.847C82.6801 194.308 82.687 194.762 82.6938 195.203C82.7076 195.643 82.7283 196.077 82.7695 196.497L86.2384 196.937V201.796H75.8595C75.6461 201.06 75.4534 200.344 75.2745 199.649C75.0955 198.954 74.9647 198.259 74.8822 197.571C73.7465 199.002 72.3769 200.172 70.7664 201.088C69.1627 202.01 67.3526 202.464 65.3361 202.464ZM67.1324 196.311C68.7291 196.311 70.2227 195.939 71.6129 195.189C73.0032 194.446 74.0425 193.503 74.7376 192.367V186.662H69.4381C67.0636 186.662 65.2672 187.212 64.0628 188.32C62.8515 189.422 62.2458 190.709 62.2458 192.182C62.2458 193.503 62.6656 194.528 63.5053 195.244C64.345 195.96 65.5563 196.311 67.1324 196.311Z" fill="white"/>
<path d="M100.403 202.402C97.5051 202.402 95.2407 201.59 93.6233 199.958C92.0059 198.327 91.1938 195.726 91.1938 192.154V173.357H86.2108V167.679H91.1938V159.386H99.1087V167.679H105.86V173.357H99.1087V192.154C99.1087 193.606 99.4115 194.659 100.01 195.326C100.609 195.987 101.421 196.317 102.454 196.317C103.039 196.317 103.699 196.262 104.422 196.159C105.145 196.056 105.73 195.946 106.17 195.843L106.989 201.424C106.067 201.7 105.007 201.927 103.816 202.119C102.639 202.305 101.497 202.402 100.403 202.402Z" fill="white"/>
<path d="M123.679 202.464C121.243 202.464 118.965 202.23 116.852 201.755C114.739 201.28 112.619 200.585 110.499 199.656L110.403 190.633H116.109L117.306 195.554C118.208 195.953 119.137 196.263 120.094 196.483C121.05 196.703 122.117 196.813 123.294 196.813C125.565 196.813 127.169 196.414 128.105 195.616C129.041 194.817 129.509 193.826 129.509 192.649C129.509 191.514 129.02 190.543 128.043 189.731C127.066 188.919 125.2 188.224 122.441 187.632C118.359 186.751 115.358 185.464 113.438 183.771C111.511 182.078 110.554 179.875 110.554 177.164C110.554 175.291 111.057 173.598 112.055 172.084C113.053 170.57 114.526 169.359 116.473 168.443C118.414 167.528 120.809 167.074 123.645 167.074C126.233 167.074 128.525 167.342 130.534 167.879C132.544 168.416 134.251 169.125 135.662 170.006L135.848 178.678H130.204L129.227 174.17C128.573 173.709 127.816 173.351 126.955 173.096C126.095 172.841 125.104 172.717 123.989 172.717C122.241 172.717 120.864 173.103 119.86 173.867C118.848 174.638 118.345 175.594 118.345 176.751C118.345 177.425 118.511 178.031 118.834 178.581C119.158 179.132 119.791 179.627 120.727 180.082C121.663 180.536 123.032 180.97 124.843 181.389C129.282 182.422 132.455 183.764 134.368 185.429C136.281 187.095 137.238 189.291 137.238 192.023C137.238 195.072 136.123 197.57 133.893 199.532C131.67 201.486 128.263 202.464 123.679 202.464Z" fill="white"/>
<path d="M156.041 201.803V196.944L161.059 195.994V190.977H141.54L141.257 186.909L160.845 155.876H168.98V185.395H174.658V190.977H168.98V195.994L173.963 196.944V201.803H156.041ZM149.042 185.402H161.059V166.702L160.873 166.64L160.178 168.12L149.042 185.402Z" fill="white"/>
<path d="M198.293 202.463C194.866 202.463 191.83 201.837 189.181 200.584C186.531 199.332 184.466 197.529 182.986 195.175C181.507 192.821 180.763 189.972 180.763 186.627V161.712L175.746 160.769V155.882H193.689V160.769L188.671 161.712V186.627C188.671 188.753 189.07 190.536 189.869 191.974C190.667 193.413 191.796 194.493 193.241 195.209C194.694 195.925 196.387 196.283 198.321 196.283C200.317 196.283 202.044 195.925 203.51 195.209C204.969 194.493 206.105 193.42 206.917 191.995C207.722 190.563 208.128 188.781 208.128 186.634V161.719L203.111 160.776V155.889H221.054V160.776L216.071 161.719V186.634C216.071 190.02 215.327 192.89 213.848 195.244C212.368 197.597 210.289 199.394 207.619 200.619C204.949 201.844 201.844 202.463 198.293 202.463Z" fill="white"/>
<path d="M222.127 201.803V196.944L226.856 195.994V173.509L221.873 172.566V167.679H234.172L234.585 172.634C235.72 170.866 237.131 169.496 238.824 168.519C240.518 167.541 242.438 167.053 244.578 167.053C248.088 167.053 250.821 168.133 252.775 170.288C254.73 172.442 255.707 175.814 255.707 180.398V196.008L260.436 196.957V201.816H243.312V196.957L247.758 196.008V180.46C247.758 177.872 247.242 176.041 246.209 174.954C245.177 173.873 243.642 173.33 241.605 173.33C240.07 173.33 238.728 173.674 237.586 174.355C236.436 175.037 235.507 175.993 234.798 177.211V196.008L239.12 196.957V201.816H222.127V201.803Z" fill="white"/>
<path d="M277.842 215.582C276.162 215.582 274.29 215.355 272.246 214.907C270.195 214.453 268.392 213.827 266.836 213.028L268.474 207.226C269.823 207.839 271.303 208.327 272.921 208.706C274.538 209.085 276.073 209.277 277.525 209.277C280.134 209.277 282.04 208.555 283.251 207.116C284.463 205.678 285.061 203.64 285.061 201.011V198.327C284.008 199.676 282.763 200.702 281.31 201.404C279.858 202.106 278.2 202.464 276.327 202.464C273.554 202.464 271.159 201.768 269.149 200.385C267.139 198.995 265.604 197.054 264.545 194.549C263.485 192.05 262.955 189.146 262.955 185.842V185.181C262.955 181.547 263.485 178.368 264.545 175.656C265.604 172.944 267.132 170.831 269.115 169.317C271.104 167.803 273.471 167.046 276.224 167.046C278.31 167.046 280.113 167.473 281.648 168.326C283.182 169.179 284.483 170.391 285.557 171.967L286.156 167.679H292.997V201.046C292.997 204.012 292.398 206.579 291.201 208.754C290.003 210.929 288.269 212.615 285.997 213.799C283.74 214.99 281.021 215.582 277.842 215.582ZM278.475 196.187C280.01 196.187 281.317 195.863 282.398 195.209C283.478 194.555 284.366 193.613 285.061 192.374V177.17C284.366 175.973 283.472 175.03 282.377 174.348C281.283 173.667 279.989 173.323 278.495 173.323C276.747 173.323 275.316 173.825 274.187 174.823C273.065 175.821 272.232 177.211 271.695 178.987C271.159 180.763 270.89 182.828 270.89 185.181V185.842C270.89 188.994 271.496 191.506 272.7 193.379C273.925 195.251 275.846 196.187 278.475 196.187ZM291.944 173.667L288.599 167.672H297.113V172.559L291.944 173.667Z" fill="white"/>
<path d="M310.128 202.464C306.659 202.464 303.954 201.569 302.02 199.78C300.086 197.99 299.116 195.533 299.116 192.402C299.116 190.261 299.707 188.375 300.884 186.758C302.061 185.141 303.789 183.874 306.053 182.959C308.324 182.044 311.077 181.589 314.319 181.589H319.522V178.719C319.522 176.909 318.979 175.471 317.898 174.397C316.817 173.323 315.241 172.786 313.183 172.786C312.007 172.786 310.967 172.931 310.059 173.213C309.157 173.495 308.345 173.901 307.629 174.425L306.907 179.029H301.07L301.008 170.605C302.688 169.51 304.56 168.643 306.624 168.003C308.682 167.363 310.974 167.04 313.5 167.04C317.829 167.04 321.243 168.058 323.734 170.082C326.226 172.112 327.472 175.016 327.472 178.802V193.847C327.472 194.308 327.479 194.762 327.485 195.203C327.499 195.643 327.52 196.077 327.561 196.497L331.03 196.937V201.796H320.651C320.438 201.06 320.245 200.344 320.066 199.649C319.887 198.954 319.756 198.259 319.674 197.571C318.538 199.002 317.168 200.172 315.558 201.088C313.961 202.01 312.151 202.464 310.128 202.464ZM311.924 196.311C313.521 196.311 315.014 195.939 316.405 195.189C317.795 194.446 318.834 193.503 319.529 192.367V186.662H314.23C311.855 186.662 310.059 187.212 308.854 188.32C307.643 189.422 307.037 190.709 307.037 192.182C307.037 193.503 307.457 194.528 308.297 195.244C309.143 195.96 310.348 196.311 311.924 196.311Z" fill="white"/>
<path d="M34.4678 143.301L27.3719 173.55H50.7588L16.291 218.989L24.0132 187.246H0L34.4678 143.301Z" fill="white"/>
</svg>
