<svg width="103" height="67" viewBox="0 0 103 67" fill="none" xmlns="http://www.w3.org/2000/svg">
<path d="M43.5636 31.7046L43.753 31.5152C42.9894 30.816 42.3173 30.0202 41.7629 29.1402C41.5884 28.8617 41.4262 28.5758 41.2752 28.2837C41.1515 28.0436 41.0339 27.7998 40.9275 27.5511H43.3074C44.4906 29.6934 46.4906 31.3234 48.8842 32.0214C49.1949 32.1118 49.513 32.1873 49.836 32.2454V31.7343V31.2788C49.5117 31.2132 49.1949 31.1278 48.8842 31.0264C48.7246 30.9744 48.5686 30.915 48.4139 30.8543C48.3756 30.8395 48.3372 30.8234 48.3001 30.8085C48.1503 30.7466 48.003 30.6823 47.8582 30.6117C47.8322 30.5994 47.8075 30.5858 47.7815 30.5721C47.6615 30.5127 47.5439 30.4496 47.4275 30.3853C47.3817 30.3593 47.3347 30.3345 47.2889 30.3073C47.1627 30.233 47.0377 30.1575 46.9164 30.0771C46.8644 30.0437 46.8149 30.0078 46.7642 29.9731C46.6862 29.9199 46.6095 29.8654 46.534 29.8098C46.4746 29.7652 46.4139 29.7219 46.3557 29.6761C46.2555 29.5981 46.1577 29.5177 46.0612 29.436C45.9906 29.3766 45.9238 29.3147 45.8557 29.2528C45.8161 29.2157 45.7765 29.1798 45.7369 29.1414C45.503 28.9199 45.2802 28.6847 45.0723 28.4372C45.0599 28.4224 45.0463 28.4063 45.0339 28.3902C44.8124 28.1229 44.6082 27.8431 44.4201 27.5498C44.3223 27.3976 44.2307 27.2429 44.1428 27.0845C44.1428 27.0845 44.1428 27.0832 44.1416 27.0832C44.0537 26.9248 43.9721 26.7639 43.8953 26.5993H43.5141H42.8508H40.5723H39.576C39.6725 26.9223 39.7826 27.2392 39.9039 27.5511C40.097 28.0461 40.3185 28.5276 40.571 28.9892C40.7282 29.2763 40.8978 29.556 41.0772 29.8283C41.6453 30.6971 42.3173 31.4917 43.0772 32.1934L43.5636 31.7046Z" fill="#101010"/>
<path d="M44.9127 33.0462L44.5822 33.3766C46.5303 34.6873 48.8682 35.4596 51.3818 35.4843V34.5326C49.1318 34.5091 47.034 33.8333 45.2704 32.6873L44.9127 33.0462Z" fill="#101010"/>
<path d="M63.9463 23.0411C63.9463 22.728 63.9302 22.4173 63.9079 22.1092C63.8844 21.7886 63.8522 21.4705 63.804 21.1574H62.8386C62.8906 21.4705 62.929 21.7874 62.9549 22.1092C62.9797 22.4173 62.9958 22.7267 62.9958 23.0411C62.9958 23.2478 62.9896 23.452 62.9785 23.655C62.9611 23.9755 62.9289 24.2923 62.8856 24.6055H62.8844C62.6913 26.0201 62.2421 27.3518 61.5812 28.556L62.278 29.2528C63.0886 27.8518 63.6332 26.28 63.8448 24.6055H63.8436C63.8832 24.2911 63.9141 23.9755 63.9302 23.655C63.9401 23.452 63.9463 23.2465 63.9463 23.0411Z" fill="#101010"/>
<path d="M62.7322 12.3195L62.0589 12.9927C64.554 15.6091 66.085 19.15 66.085 23.0411C66.085 26.2417 65.0453 29.2058 63.2904 31.6118L63.8065 32.1279L63.2916 31.613L61.7582 30.0783L61.0738 29.3939C60.8955 29.6612 60.7049 29.9199 60.5057 30.1712C59.0044 32.0623 56.9239 33.4707 54.5328 34.1254V32.8841V31.8878C54.4511 31.9162 54.367 31.9397 54.2853 31.9657C54.3682 31.9397 54.4511 31.9162 54.5328 31.8878V30.8766L53.5811 31.1786V32.1588V33.1341V34.3432V34.7356V35.3111C53.9029 35.2566 54.2197 35.1873 54.5328 35.1093C57.19 34.441 59.5106 32.9187 61.1827 30.8494L62.7037 32.3704L63.1344 32.8011L63.377 33.0437C63.5824 32.7999 63.7829 32.5511 63.9735 32.2949C65.8968 29.7083 67.0379 26.5065 67.0379 23.0424C67.0367 18.8864 65.3981 15.1091 62.7322 12.3195ZM62.8535 32.1823C62.9537 32.0573 63.0515 31.9323 63.148 31.8036C63.0515 31.9323 62.9537 32.0586 62.8535 32.1823Z" fill="#101010"/>
<path d="M39.5351 31.3667C39.3495 31.1018 39.1713 30.832 39.003 30.5536C37.6774 28.358 36.9138 25.7862 36.9138 23.0399C36.9138 19.7292 38.024 16.6734 39.8903 14.2229L41.4201 15.7526C41.4795 15.671 41.5414 15.5905 41.6032 15.5088C41.5414 15.5893 41.4795 15.6697 41.4213 15.7526L41.8904 16.2217L42.102 16.4333C42.2876 16.1722 42.482 15.9197 42.6874 15.6747L42.5636 15.5509V15.5497L42.6874 15.6734C43.8817 14.2477 45.4139 13.1128 47.1615 12.3986C47.4721 12.2712 47.789 12.1561 48.1132 12.0558V12.0546C48.6627 11.8863 49.2283 11.7575 49.8088 11.6721V11.6709C49.9858 11.6449 50.164 11.6239 50.3434 11.6066V11.1325V11.1313V10.6499C50.2679 10.6573 50.1924 10.6635 50.1182 10.6721C50.0613 10.6783 50.0056 10.6857 49.9486 10.6932C49.8694 10.7031 49.789 10.713 49.7098 10.7254C49.6491 10.734 49.5885 10.7439 49.5278 10.7538C49.4536 10.7662 49.3793 10.7773 49.3051 10.7909C49.2333 10.8033 49.1615 10.8182 49.0897 10.833C49.0291 10.8454 48.9684 10.8565 48.9078 10.8689C48.6392 10.9258 48.3744 10.9914 48.112 11.0657V11.0669C47.7902 11.1585 47.4721 11.26 47.1615 11.3763C45.1478 12.1288 43.3805 13.3888 42.0129 14.9989L40.4968 13.4828L39.8235 12.8095C39.6131 13.0484 39.4101 13.2947 39.2158 13.5472C37.1811 16.1747 35.9658 19.468 35.9658 23.0411C35.9658 26.051 36.8284 28.8617 38.3161 31.2442C38.4869 31.5189 38.6676 31.7862 38.8557 32.0486C39.2715 32.6316 39.7282 33.186 40.2208 33.7034L40.5698 33.3556L40.8928 33.0301C40.3965 32.5127 39.9448 31.957 39.5351 31.3667Z" fill="#101010"/>
<path d="M51.5006 37.6267C48.352 37.6267 45.4287 36.6205 43.0438 34.915C42.7827 34.7294 42.5277 34.5351 42.2814 34.3333L43.8037 32.811C43.7542 32.7714 43.7059 32.7306 43.6577 32.691C43.7072 32.7306 43.7555 32.7714 43.805 32.811L44.2381 32.3779L44.4832 32.1303C44.2307 31.9348 43.9881 31.7306 43.7555 31.514L43.0772 32.1922L41.5648 33.7046L41.2393 34.0326L40.8916 34.3779C41.1242 34.5945 41.3619 34.8036 41.6069 35.0078C41.852 35.2121 42.1044 35.4076 42.3631 35.5982C44.9263 37.4695 48.0872 38.5784 51.5006 38.5784C55.9214 38.5784 59.9128 36.7207 62.7396 33.7504L62.0688 33.0796C59.4128 35.8779 55.6553 37.6267 51.5006 37.6267Z" fill="#101010"/>
<path d="M58.9821 28.6489C59.1764 28.3914 59.3559 28.1216 59.523 27.8444C60.1108 26.8667 60.523 25.7726 60.721 24.6067C60.7742 24.2949 60.8113 23.9768 60.8324 23.655H59.8782C59.8546 23.978 59.8138 24.2949 59.7544 24.6067C59.5824 25.5139 59.2655 26.3691 58.8262 27.1476C58.6665 27.431 58.4908 27.7046 58.3002 27.9669C57.5601 28.9855 56.5959 29.8283 55.4821 30.4311V31.493C56.8682 30.8395 58.0712 29.8618 58.9821 28.6489Z" fill="#101010"/>
<path d="M51.2927 11.5521C51.3274 11.5497 51.362 11.5509 51.3967 11.5497C51.362 11.5497 51.3274 11.5497 51.2927 11.5521V15.2787L51.0563 15.2539L49.6516 14.1462L45.7407 14.8319L43.18 19.2131L45.3372 22.1488L48.2753 21.7107L49.9684 25.0003L49.9165 27.5239L51.3818 30.8333V34.5326V35.0054V35.4843C51.4214 35.4843 51.461 35.4868 51.5006 35.4868C51.7803 35.4868 52.0576 35.4744 52.3336 35.4571V35.0066V34.5029C52.1962 34.5128 52.0576 34.5215 51.919 34.5277C51.7803 34.5338 51.6405 34.5376 51.5006 34.5376C51.4808 34.5376 51.461 34.5363 51.4412 34.5363C51.461 34.5376 51.4808 34.5376 51.5006 34.5376C51.6405 34.5376 51.7803 34.5338 51.919 34.5289C52.0576 34.5227 52.1962 34.514 52.3336 34.5041V31.0524L54.2358 30.259L56.0391 27.7479L57.0502 24.5325L59.5168 21.1005L59.1381 19.3988L57.3336 19.8282L56.2235 18.6648L55.7247 15.7428L52.2445 15.3789V11.5707C52.1219 11.562 51.9982 11.5558 51.8744 11.5521C51.7506 11.5484 51.6256 11.5459 51.5006 11.5459C51.6256 11.5459 51.7506 11.5472 51.8744 11.5521C51.9982 11.5558 52.1219 11.562 52.2445 11.5707C52.565 11.5917 52.8818 11.6264 53.1962 11.6734C55.1554 11.9643 56.9549 12.7489 58.4611 13.9012C58.7148 14.0942 58.9599 14.2972 59.1963 14.5113C60.4587 15.6512 61.4661 17.067 62.1258 18.6611C62.2545 18.9718 62.3708 19.2886 62.4723 19.6129H63.4624C63.3696 19.2898 63.2656 18.973 63.1481 18.6611C62.4463 16.8022 61.3139 15.1524 59.8695 13.838L61.3819 12.3257L62.054 11.6536C61.8213 11.437 61.5824 11.2279 61.3374 11.0261C58.6542 8.82808 55.2296 7.50629 51.4982 7.50629C47.1887 7.50629 43.2889 9.27116 40.4708 12.1177L41.1416 12.7885C43.7864 10.1152 47.4536 8.45803 51.4982 8.45803C54.966 8.45803 58.1517 9.67587 60.6592 11.7044L59.1369 13.2267C58.8745 13.0224 58.6034 12.8294 58.3262 12.6462C58.3163 12.64 58.3052 12.6338 58.2953 12.6264C58.1715 12.5447 58.0453 12.4655 57.919 12.3888C57.8906 12.3714 57.8621 12.3554 57.8336 12.338C57.7247 12.2724 57.6146 12.2093 57.5019 12.1474C57.4623 12.1252 57.4227 12.1041 57.3819 12.0831C57.2804 12.0286 57.1777 11.9742 57.075 11.9222C57.0279 11.8987 56.9797 11.8752 56.9326 11.8516C56.8361 11.8046 56.7383 11.7588 56.6405 11.7143C56.5861 11.6895 56.5316 11.6648 56.4772 11.6412C56.3856 11.6004 56.2928 11.562 56.1999 11.5237C56.1393 11.4989 56.0774 11.4729 56.0155 11.4494C55.9289 11.416 55.8423 11.3838 55.7544 11.3516C55.6851 11.3269 55.617 11.3009 55.5465 11.2761C55.4697 11.2489 55.3905 11.2242 55.3126 11.1994C55.2321 11.1734 55.1517 11.1462 55.0712 11.1227C55.0155 11.1066 54.9598 11.0917 54.9041 11.0756C54.6554 11.0051 54.4029 10.942 54.1492 10.8863C53.8398 10.8182 53.5266 10.7613 53.2086 10.7167C53.2061 10.7167 53.2036 10.7155 53.1999 10.7155C53.1974 10.7155 53.195 10.7155 53.1925 10.7142C53.0427 10.6932 52.893 10.6759 52.742 10.661C52.7333 10.6598 52.7259 10.6598 52.7172 10.6586C52.5638 10.6437 52.4091 10.6313 52.2544 10.6227C52.2494 10.6227 52.2457 10.6214 52.2407 10.6214C52.237 10.6214 52.2321 10.6214 52.2284 10.6214C52.1281 10.6152 52.0266 10.6103 51.9251 10.6066C51.8237 10.6029 51.7222 10.6016 51.6207 10.6004C51.5786 10.6004 51.5378 10.5979 51.4957 10.5979C51.4548 10.5979 51.414 10.5991 51.3732 10.6004C51.3447 10.6004 51.3175 10.6004 51.289 10.6016C51.2766 10.6016 51.2642 10.6029 51.2531 10.6029C51.2655 10.6029 51.2779 10.6029 51.289 10.6016V11.5521H51.2927ZM50.7692 15.9631L50.7865 15.9655L55.315 18.9087L53.4771 20.9248L47.2939 15.3059L49.4561 14.9272L50.7692 15.9631ZM44.0599 19.1661L45.9201 15.9829L48.0439 20.999L45.6676 21.353L44.0599 19.1661ZM49.3286 22.1476L46.5785 15.6512L52.9808 21.4681L50.4226 24.2738L49.3286 22.1476ZM53.7593 29.6588L51.992 30.3952L50.6553 27.3753L50.6937 25.5016L55.1529 27.7169L53.7593 29.6588ZM55.4834 27.0585L50.9387 24.801L53.5254 21.9631L56.294 24.478L55.4834 27.0585ZM57.0923 20.6413L58.5812 20.2861L58.726 20.9371L56.6579 23.8134L54.0217 21.4186L55.8856 19.3752L57.0923 20.6413ZM55.3757 18.0695L52.3967 16.1339L55.0935 16.416L55.3757 18.0695Z" fill="#101010"/>
<path d="M39.1045 24.134C39.1181 24.2924 39.1354 24.4495 39.1552 24.6055H40.1144H43.2456C43.1862 24.2936 43.1454 23.9768 43.1218 23.6537H40.024H39.071C39.0785 23.8134 39.0896 23.9731 39.1045 24.1315C39.1045 24.1327 39.1045 24.134 39.1045 24.134Z" fill="#101010"/>
<path d="M40.8841 16.5621C39.7232 18.4507 39.0549 20.6673 39.0549 23.0399C39.0549 23.2466 39.0623 23.4508 39.071 23.6538H40.0252C40.0128 23.452 40.0066 23.2466 40.0066 23.0399C40.0066 20.9334 40.5772 18.9544 41.576 17.2539L40.8841 16.5621Z" fill="#101010"/>
<path d="M27.9558 55.0823C27.1402 55.0823 26.5053 54.8719 26.0511 54.4523C25.5969 54.0328 25.3692 53.4548 25.3692 52.7184C25.3692 52.2147 25.5078 51.7728 25.785 51.3916C26.061 51.0117 26.4669 50.7134 27.0004 50.4981C27.5338 50.2827 28.1811 50.1763 28.9422 50.1763H30.165V49.5018C30.165 49.0773 30.0375 48.7381 29.7838 48.4869C29.5289 48.2344 29.16 48.1094 28.6761 48.1094C28.3989 48.1094 28.1551 48.1428 27.9422 48.2097C27.7293 48.2765 27.54 48.3718 27.3717 48.4956L27.2009 49.5773H25.8296L25.8147 47.5983C26.2095 47.3408 26.6501 47.1379 27.134 46.9869C27.6179 46.8359 28.1563 46.7604 28.7491 46.7604C29.7665 46.7604 30.5685 46.9993 31.1539 47.4757C31.7393 47.9522 32.0326 48.6354 32.0326 49.5253V53.06C32.0326 53.1689 32.0338 53.2753 32.0363 53.3793C32.0388 53.4832 32.045 53.5847 32.0549 53.6837L32.8705 53.7877V54.9288H30.4323C30.3828 54.7555 30.337 54.5885 30.295 54.4251C30.2529 54.2617 30.2219 54.0996 30.2021 53.9362C29.9348 54.2716 29.613 54.5476 29.2343 54.763C28.8568 54.9746 28.4298 55.0823 27.9558 55.0823ZM28.3779 53.6367C28.7529 53.6367 29.1043 53.5488 29.4298 53.3743C29.7566 53.1986 30.0004 52.977 30.1638 52.711V51.3694H28.9187C28.3605 51.3694 27.9397 51.4993 27.6551 51.758C27.3704 52.0179 27.2281 52.3199 27.2281 52.6652C27.2281 52.9758 27.3271 53.2159 27.5251 53.3842C27.7231 53.5526 28.0078 53.6367 28.3779 53.6367Z" fill="#101010"/>
<path d="M36.1985 55.0674C35.5166 55.0674 34.9856 54.8756 34.6057 54.4932C34.2257 54.1107 34.0351 53.4994 34.0351 52.659V48.2419H32.8643V46.9064H34.0351V44.9572H35.8953V46.9064H37.4807V48.2406H35.8953V52.6578C35.8953 52.9981 35.9658 53.2469 36.1069 53.4028C36.248 53.5588 36.4399 53.6367 36.6812 53.6367C36.8198 53.6367 36.9733 53.6244 37.1441 53.5996C37.3149 53.5748 37.4522 53.5501 37.555 53.5253L37.748 54.8372C37.5302 54.9016 37.2827 54.9561 37.003 55.0006C36.7233 55.0452 36.4547 55.0674 36.1985 55.0674Z" fill="#101010"/>
<path d="M41.6676 55.0823C41.0945 55.0823 40.5599 55.0266 40.0636 54.9152C39.5673 54.8038 39.0698 54.6392 38.5698 54.4226L38.5475 52.3026H39.8891L40.1713 53.4585C40.3829 53.5526 40.602 53.6256 40.8272 53.6776C41.0525 53.7296 41.3025 53.7556 41.5797 53.7556C42.1131 53.7556 42.4894 53.6615 42.7097 53.4734C42.93 53.2852 43.0401 53.0538 43.0401 52.7766C43.0401 52.5092 42.925 52.2815 42.6961 52.0909C42.4659 51.9003 42.0277 51.737 41.3804 51.5983C40.4225 51.3904 39.7171 51.0884 39.2641 50.6899C38.8123 50.2926 38.5859 49.7753 38.5859 49.1367C38.5859 48.6973 38.7034 48.2988 38.9373 47.9436C39.1725 47.5872 39.5178 47.3025 39.9757 47.0872C40.4324 46.8718 40.9943 46.7654 41.6614 46.7654C42.2691 46.7654 42.8087 46.8285 43.2802 46.9547C43.7518 47.081 44.154 47.2468 44.4844 47.4547L44.529 49.4931H43.2022L42.972 48.4337C42.8186 48.3248 42.6404 48.2406 42.4386 48.1812C42.2356 48.1218 42.0042 48.0921 41.7418 48.0921C41.3309 48.0921 41.0079 48.1825 40.7703 48.3632C40.5327 48.5439 40.4138 48.7703 40.4138 49.0414C40.4138 49.1998 40.4522 49.3434 40.5289 49.4708C40.6057 49.5996 40.7542 49.7171 40.9733 49.8236C41.1936 49.93 41.5153 50.0327 41.9411 50.1305C42.9832 50.3731 43.7295 50.6887 44.1787 51.0798C44.628 51.4696 44.8533 51.987 44.8533 52.6293C44.8533 53.3459 44.5909 53.9338 44.0674 54.3929C43.5451 54.8521 42.7456 55.0823 41.6676 55.0823Z" fill="#101010"/>
<path d="M49.2717 54.9264V53.7853L50.4499 53.5625V52.3843H45.862L45.7951 51.4288L50.3979 44.1354H52.3101V51.0724H53.6442V52.3843H52.3101V53.5625L53.4809 53.7853V54.9264H49.2717ZM47.6268 51.0724H50.4511V46.6775L50.4066 46.6627L50.2432 47.0117L47.6268 51.0724Z" fill="#101010"/>
<path d="M59.2012 55.0823C58.3955 55.0823 57.6814 54.935 57.0589 54.6417C56.4363 54.3484 55.9512 53.9239 55.6022 53.3707C55.2532 52.8174 55.0799 52.1479 55.0799 51.362V45.5067L53.9017 45.2839V44.1354H58.1183V45.2839L56.9401 45.5067V51.362C56.9401 51.8607 57.0341 52.2803 57.2222 52.6182C57.4104 52.956 57.674 53.2098 58.0156 53.3781C58.3559 53.5464 58.7544 53.6306 59.2087 53.6306C59.6777 53.6306 60.0849 53.5464 60.4277 53.3781C60.7706 53.2098 61.0379 52.9585 61.2285 52.6219C61.4191 52.2865 61.5131 51.8657 61.5131 51.362V45.5067L60.3349 45.2839V44.1354H64.5515V45.2839L63.3807 45.5067V51.362C63.3807 52.1578 63.2062 52.8323 62.8585 53.3855C62.5107 53.9387 62.0218 54.3595 61.3943 54.6491C60.7668 54.9375 60.0366 55.0823 59.2012 55.0823Z" fill="#101010"/>
<path d="M64.8028 54.9264V53.7853L65.9142 53.5625V48.2778L64.7434 48.055V46.9065H67.6345L67.731 48.0698C67.9984 47.6552 68.3301 47.3322 68.7273 47.102C69.1246 46.8718 69.5764 46.7579 70.0801 46.7579C70.9056 46.7579 71.5479 47.0117 72.0071 47.5179C72.4662 48.0241 72.6964 48.8161 72.6964 49.8929V53.5613L73.8078 53.784V54.9251H69.783V53.784L70.8276 53.5613V49.9077C70.8276 49.3001 70.7063 48.8694 70.465 48.6144C70.2224 48.3595 69.8622 48.2332 69.3833 48.2332C69.0219 48.2332 68.7075 48.3137 68.4377 48.4746C68.1679 48.6355 67.9501 48.8582 67.7818 49.1454V53.5625L68.7966 53.7853V54.9264H64.8028Z" fill="#101010"/>
<path d="M77.8957 58.1652C77.5009 58.1652 77.0616 58.112 76.5801 58.0056C76.0987 57.8991 75.6742 57.7519 75.3091 57.565L75.694 56.2011C76.0108 56.3447 76.3586 56.461 76.7385 56.5501C77.1185 56.6392 77.4799 56.6838 77.8202 56.6838C78.4329 56.6838 78.8809 56.5142 79.1656 56.1763C79.4502 55.8385 79.5913 55.3595 79.5913 54.7419V54.112C79.3438 54.4288 79.0505 54.6689 78.7089 54.8347C78.3685 55.0006 77.9774 55.0835 77.5381 55.0835C76.8858 55.0835 76.3239 54.9201 75.8512 54.5946C75.3796 54.2679 75.0182 53.8112 74.7695 53.2233C74.5195 52.6355 74.3957 51.9535 74.3957 51.1775V51.0216C74.3957 50.1664 74.5207 49.4201 74.7695 48.7839C75.0195 48.1465 75.3771 47.6503 75.8437 47.2938C76.3103 46.9374 76.8673 46.7604 77.5145 46.7604C78.0034 46.7604 78.4292 46.8606 78.7893 47.0611C79.1495 47.2616 79.4564 47.5463 79.7089 47.9176L79.85 46.9089H81.4589V54.7506C81.4589 55.4474 81.3178 56.0513 81.0369 56.5625C80.7547 57.0736 80.3475 57.4684 79.8141 57.7481C79.2819 58.0254 78.642 58.1652 77.8957 58.1652ZM78.0443 53.607C78.4044 53.607 78.7126 53.5303 78.9663 53.3768C79.2212 53.2233 79.4292 53.0018 79.5925 52.7097V49.1367C79.4292 48.8545 79.22 48.6342 78.9626 48.4733C78.7052 48.3124 78.4019 48.2319 78.0504 48.2319C77.6395 48.2319 77.3029 48.3495 77.0393 48.5834C76.7744 48.8186 76.5801 49.1441 76.4539 49.5612C76.3276 49.9795 76.2645 50.4646 76.2645 51.0179V51.1738C76.2645 51.9152 76.4069 52.5055 76.6903 52.9449C76.9737 53.3842 77.4267 53.607 78.0443 53.607ZM81.2089 48.3149L80.423 46.9064H82.4243V48.055L81.2089 48.3149Z" fill="#101010"/>
<path d="M85.4825 55.0823C84.6669 55.0823 84.032 54.8719 83.5778 54.4523C83.1235 54.0328 82.8958 53.4548 82.8958 52.7184C82.8958 52.2147 83.0344 51.7728 83.3117 51.3916C83.5877 51.0117 83.9936 50.7134 84.527 50.4981C85.0604 50.2827 85.7077 50.1763 86.4689 50.1763H87.6917V49.5018C87.6917 49.0773 87.5642 48.7381 87.3105 48.4869C87.0555 48.2344 86.6867 48.1094 86.2028 48.1094C85.9256 48.1094 85.6817 48.1428 85.4689 48.2097C85.256 48.2765 85.0666 48.3718 84.8983 48.4956L84.7275 49.5773H83.355L83.3401 47.5983C83.7349 47.3408 84.1755 47.1379 84.6594 46.9869C85.1434 46.8359 85.6817 46.7604 86.2746 46.7604C87.2919 46.7604 88.0939 46.9993 88.6793 47.4757C89.2647 47.9522 89.558 48.6354 89.558 49.5253V53.06C89.558 53.1689 89.5593 53.2753 89.5617 53.3793C89.5642 53.4832 89.5704 53.5847 89.5803 53.6837L90.3959 53.7877V54.9288H87.9578C87.9083 54.7555 87.8625 54.5885 87.8204 54.4251C87.7783 54.2617 87.7474 54.0996 87.7276 53.9362C87.4602 54.2716 87.1384 54.5476 86.7597 54.763C86.3835 54.9746 85.9565 55.0823 85.4825 55.0823ZM85.9045 53.6367C86.2795 53.6367 86.631 53.5488 86.9565 53.3743C87.2832 53.1986 87.5271 52.977 87.6904 52.711V51.3694H86.4454C85.8872 51.3694 85.4664 51.4993 85.1817 51.758C84.8971 52.0179 84.7547 52.3199 84.7547 52.6652C84.7547 52.9758 84.8538 53.2159 85.0518 53.3842C85.2498 53.5526 85.5345 53.6367 85.9045 53.6367Z" fill="#101010"/>
<path d="M20.702 41.1787L19.0349 48.2877H24.5313L16.4322 58.9648L18.2453 51.5055H12.6029L20.702 41.1787Z" fill="#101010"/>
</svg>
