<svg width="103" height="67" viewBox="0 0 103 67" fill="none" xmlns="http://www.w3.org/2000/svg">
<path d="M43.5636 31.7046L43.753 31.5153C42.9894 30.816 42.3173 30.0202 41.7629 29.1402C41.5884 28.8618 41.4262 28.5759 41.2752 28.2838C41.1515 28.0437 41.0339 27.7999 40.9275 27.5511H43.3074C44.4906 29.6935 46.4906 31.3234 48.8842 32.0215C49.1949 32.1118 49.513 32.1873 49.836 32.2455V31.7343V31.2789C49.5117 31.2133 49.1949 31.1279 48.8842 31.0264C48.7246 30.9744 48.5686 30.915 48.4139 30.8544C48.3756 30.8395 48.3372 30.8234 48.3001 30.8086C48.1503 30.7467 48.003 30.6823 47.8582 30.6118C47.8322 30.5994 47.8075 30.5858 47.7815 30.5722C47.6615 30.5128 47.5439 30.4497 47.4275 30.3853C47.3817 30.3593 47.3347 30.3346 47.2889 30.3073C47.1627 30.2331 47.0377 30.1576 46.9164 30.0771C46.8644 30.0437 46.8149 30.0078 46.7642 29.9732C46.6862 29.9199 46.6095 29.8655 46.534 29.8098C46.4746 29.7652 46.4139 29.7219 46.3557 29.6761C46.2555 29.5982 46.1577 29.5177 46.0612 29.436C45.9906 29.3766 45.9238 29.3147 45.8557 29.2529C45.8161 29.2157 45.7765 29.1798 45.7369 29.1415C45.503 28.9199 45.2802 28.6848 45.0723 28.4373C45.0599 28.4224 45.0463 28.4063 45.0339 28.3902C44.8124 28.1229 44.6082 27.8432 44.4201 27.5499C44.3223 27.3976 44.2307 27.2429 44.1428 27.0845C44.1428 27.0845 44.1428 27.0833 44.1416 27.0833C44.0537 26.9249 43.9721 26.764 43.8953 26.5994H43.5141H42.8508H40.5723H39.576C39.6725 26.9224 39.7826 27.2392 39.9039 27.5511C40.097 28.0462 40.3185 28.5276 40.571 28.9892C40.7282 29.2764 40.8978 29.5561 41.0772 29.8284C41.6453 30.6972 42.3173 31.4918 43.0772 32.1935L43.5636 31.7046Z" fill="white"/>
<path d="M44.9127 33.0462L44.5822 33.3766C46.5303 34.6873 48.8682 35.4596 51.3818 35.4843V34.5326C49.1318 34.5091 47.034 33.8333 45.2704 32.6873L44.9127 33.0462Z" fill="white"/>
<path d="M63.9463 23.0412C63.9463 22.728 63.9302 22.4174 63.9079 22.1092C63.8844 21.7887 63.8522 21.4706 63.804 21.1575H62.8386C62.8906 21.4706 62.929 21.7874 62.9549 22.1092C62.9797 22.4174 62.9958 22.7268 62.9958 23.0412C62.9958 23.2478 62.9896 23.4521 62.9785 23.655C62.9611 23.9756 62.9289 24.2924 62.8856 24.6055H62.8844C62.6913 26.0202 62.2421 27.3519 61.5812 28.5561L62.278 29.2529C63.0886 27.8519 63.6332 26.2801 63.8448 24.6055H63.8436C63.8832 24.2912 63.9141 23.9756 63.9302 23.655C63.9401 23.4521 63.9463 23.2466 63.9463 23.0412Z" fill="white"/>
<path d="M62.7322 12.3196L62.0589 12.9929C64.554 15.6092 66.085 19.1501 66.085 23.0412C66.085 26.2418 65.0453 29.2059 63.2904 31.6119L63.8065 32.128L63.2916 31.6131L61.7582 30.0785L61.0738 29.394C60.8955 29.6614 60.7049 29.92 60.5057 30.1713C59.0044 32.0624 56.9239 33.4708 54.5328 34.1255V32.8842V31.8879C54.4511 31.9163 54.367 31.9399 54.2853 31.9659C54.3682 31.9399 54.4511 31.9163 54.5328 31.8879V30.8767L53.5811 31.1787V32.1589V33.1342V34.3434V34.7357V35.3112C53.9029 35.2567 54.2197 35.1874 54.5328 35.1095C57.19 34.4411 59.5106 32.9188 61.1827 30.8495L62.7037 32.3706L63.1344 32.8013L63.377 33.0438C63.5824 32.8 63.7829 32.5513 63.9735 32.2951C65.8968 29.7084 67.0379 26.5066 67.0379 23.0425C67.0367 18.8865 65.3981 15.1092 62.7322 12.3196ZM62.8535 32.1824C62.9537 32.0574 63.0515 31.9324 63.148 31.8037C63.0515 31.9324 62.9537 32.0587 62.8535 32.1824Z" fill="white"/>
<path d="M39.5351 31.3667C39.3495 31.1019 39.1713 30.8321 39.003 30.5536C37.6774 28.358 36.9138 25.7862 36.9138 23.0399C36.9138 19.7292 38.024 16.6735 39.8903 14.223L41.4201 15.7527C41.4795 15.671 41.5414 15.5906 41.6032 15.5089C41.5414 15.5893 41.4795 15.6698 41.4213 15.7527L41.8904 16.2218L42.102 16.4334C42.2876 16.1722 42.482 15.9198 42.6874 15.6747L42.5636 15.551V15.5497L42.6874 15.6735C43.8817 14.2477 45.4139 13.1128 47.1615 12.3987C47.4721 12.2712 47.789 12.1561 48.1132 12.0559V12.0546C48.6627 11.8863 49.2283 11.7576 49.8088 11.6722V11.671C49.9858 11.645 50.164 11.6239 50.3434 11.6066V11.1326V11.1313V10.6499C50.2679 10.6573 50.1924 10.6635 50.1182 10.6722C50.0613 10.6784 50.0056 10.6858 49.9486 10.6932C49.8694 10.7031 49.789 10.713 49.7098 10.7254C49.6491 10.7341 49.5885 10.744 49.5278 10.7539C49.4536 10.7662 49.3793 10.7774 49.3051 10.791C49.2333 10.8034 49.1615 10.8182 49.0897 10.8331C49.0291 10.8454 48.9684 10.8566 48.9078 10.869C48.6392 10.9259 48.3744 10.9915 48.112 11.0657V11.067C47.7902 11.1586 47.4721 11.2601 47.1615 11.3764C45.1478 12.1289 43.3805 13.3888 42.0129 14.999L40.4968 13.4829L39.8235 12.8096C39.6131 13.0484 39.4101 13.2947 39.2158 13.5472C37.1811 16.1747 35.9658 19.4681 35.9658 23.0411C35.9658 26.0511 36.8284 28.8618 38.3161 31.2442C38.4869 31.519 38.6676 31.7863 38.8557 32.0487C39.2715 32.6316 39.7282 33.1861 40.2208 33.7034L40.5698 33.3556L40.8928 33.0301C40.3965 32.5128 39.9448 31.9571 39.5351 31.3667Z" fill="white"/>
<path d="M51.5006 37.6269C48.352 37.6269 45.4287 36.6207 43.0438 34.9152C42.7827 34.7295 42.5277 34.5352 42.2814 34.3335L43.8037 32.8112C43.7542 32.7716 43.7059 32.7308 43.6577 32.6912C43.7072 32.7308 43.7555 32.7716 43.805 32.8112L44.2381 32.378L44.4832 32.1305C44.2307 31.935 43.9881 31.7307 43.7555 31.5142L43.0772 32.1924L41.5648 33.7048L41.2393 34.0328L40.8916 34.3781C41.1242 34.5946 41.3619 34.8038 41.6069 35.008C41.852 35.2122 42.1044 35.4078 42.3631 35.5984C44.9263 37.4697 48.0872 38.5786 51.5006 38.5786C55.9214 38.5786 59.9128 36.7209 62.7396 33.7506L62.0688 33.0798C59.4128 35.8781 55.6553 37.6269 51.5006 37.6269Z" fill="white"/>
<path d="M58.9821 28.6489C59.1764 28.3915 59.3559 28.1217 59.523 27.8444C60.1108 26.8667 60.523 25.7726 60.721 24.6068C60.7742 24.2949 60.8113 23.9768 60.8324 23.655H59.8782C59.8546 23.9781 59.8138 24.2949 59.7544 24.6068C59.5824 25.514 59.2655 26.3692 58.8262 27.1476C58.6665 27.4311 58.4908 27.7046 58.3002 27.967C57.5601 28.9855 56.5959 29.8284 55.4821 30.4311V31.493C56.8682 30.8395 58.0712 29.8618 58.9821 28.6489Z" fill="white"/>
<path d="M51.2927 11.5522C51.3274 11.5497 51.362 11.551 51.3967 11.5497C51.362 11.5497 51.3274 11.5497 51.2927 11.5522V15.2787L51.0563 15.254L49.6516 14.1463L45.7407 14.8319L43.18 19.2132L45.3372 22.1489L48.2753 21.7107L49.9684 25.0004L49.9165 27.5239L51.3818 30.8334V34.5327V35.0054V35.4844C51.4214 35.4844 51.461 35.4869 51.5006 35.4869C51.7803 35.4869 52.0576 35.4745 52.3336 35.4572V35.0067V34.503C52.1962 34.5129 52.0576 34.5215 51.919 34.5277C51.7803 34.5339 51.6405 34.5376 51.5006 34.5376C51.4808 34.5376 51.461 34.5364 51.4412 34.5364C51.461 34.5376 51.4808 34.5376 51.5006 34.5376C51.6405 34.5376 51.7803 34.5339 51.919 34.5289C52.0576 34.5228 52.1962 34.5141 52.3336 34.5042V31.0524L54.2358 30.2591L56.0391 27.7479L57.0502 24.5325L59.5168 21.1006L59.1381 19.3988L57.3336 19.8283L56.2235 18.6649L55.7247 15.7428L52.2445 15.379V11.5708C52.1219 11.5621 51.9982 11.5559 51.8744 11.5522C51.7506 11.5485 51.6256 11.546 51.5006 11.546C51.6256 11.546 51.7506 11.5472 51.8744 11.5522C51.9982 11.5559 52.1219 11.5621 52.2445 11.5708C52.565 11.5918 52.8818 11.6264 53.1962 11.6735C55.1554 11.9643 56.9549 12.749 58.4611 13.9012C58.7148 14.0943 58.9599 14.2973 59.1963 14.5114C60.4587 15.6512 61.4661 17.0671 62.1258 18.6612C62.2545 18.9718 62.3708 19.2887 62.4723 19.6129H63.4624C63.3696 19.2899 63.2656 18.9731 63.1481 18.6612C62.4463 16.8023 61.3139 15.1525 59.8695 13.8381L61.3819 12.3257L62.054 11.6537C61.8213 11.4371 61.5824 11.2279 61.3374 11.0262C58.6542 8.82815 55.2296 7.50635 51.4982 7.50635C47.1887 7.50635 43.2889 9.27122 40.4708 12.1178L41.1416 12.7886C43.7864 10.1153 47.4536 8.45809 51.4982 8.45809C54.966 8.45809 58.1517 9.67593 60.6592 11.7044L59.1369 13.2267C58.8745 13.0225 58.6034 12.8294 58.3262 12.6463C58.3163 12.6401 58.3052 12.6339 58.2953 12.6265C58.1715 12.5448 58.0453 12.4656 57.919 12.3888C57.8906 12.3715 57.8621 12.3554 57.8336 12.3381C57.7247 12.2725 57.6146 12.2094 57.5019 12.1475C57.4623 12.1252 57.4227 12.1042 57.3819 12.0831C57.2804 12.0287 57.1777 11.9742 57.075 11.9222C57.0279 11.8987 56.9797 11.8752 56.9326 11.8517C56.8361 11.8047 56.7383 11.7589 56.6405 11.7143C56.5861 11.6896 56.5316 11.6648 56.4772 11.6413C56.3856 11.6005 56.2928 11.5621 56.1999 11.5237C56.1393 11.499 56.0774 11.473 56.0155 11.4495C55.9289 11.416 55.8423 11.3839 55.7544 11.3517C55.6851 11.3269 55.617 11.3009 55.5465 11.2762C55.4697 11.249 55.3905 11.2242 55.3126 11.1995C55.2321 11.1735 55.1517 11.1462 55.0712 11.1227C55.0155 11.1066 54.9598 11.0918 54.9041 11.0757C54.6554 11.0052 54.4029 10.942 54.1492 10.8863C53.8398 10.8183 53.5266 10.7613 53.2086 10.7168C53.2061 10.7168 53.2036 10.7155 53.1999 10.7155C53.1974 10.7155 53.195 10.7155 53.1925 10.7143C53.0427 10.6933 52.893 10.6759 52.742 10.6611C52.7333 10.6599 52.7259 10.6599 52.7172 10.6586C52.5638 10.6438 52.4091 10.6314 52.2544 10.6227C52.2494 10.6227 52.2457 10.6215 52.2407 10.6215C52.237 10.6215 52.2321 10.6215 52.2284 10.6215C52.1281 10.6153 52.0266 10.6103 51.9251 10.6066C51.8237 10.6029 51.7222 10.6017 51.6207 10.6004C51.5786 10.6004 51.5378 10.598 51.4957 10.598C51.4548 10.598 51.414 10.5992 51.3732 10.6004C51.3447 10.6004 51.3175 10.6004 51.289 10.6017C51.2766 10.6017 51.2642 10.6029 51.2531 10.6029C51.2655 10.6029 51.2779 10.6029 51.289 10.6017V11.5522H51.2927ZM50.7692 15.9631L50.7865 15.9656L55.315 18.9087L53.4771 20.9248L47.2939 15.3059L49.4561 14.9272L50.7692 15.9631ZM44.0599 19.1661L45.9201 15.9829L48.0439 20.9991L45.6676 21.353L44.0599 19.1661ZM49.3286 22.1476L46.5785 15.6512L52.9808 21.4682L50.4226 24.2739L49.3286 22.1476ZM53.7593 29.6588L51.992 30.3952L50.6553 27.3754L50.6937 25.5016L55.1529 27.717L53.7593 29.6588ZM55.4834 27.0586L50.9387 24.8011L53.5254 21.9632L56.294 24.4781L55.4834 27.0586ZM57.0923 20.6414L58.5812 20.2862L58.726 20.9372L56.6579 23.8135L54.0217 21.4186L55.8856 19.3753L57.0923 20.6414ZM55.3757 18.0696L52.3967 16.1339L55.0935 16.4161L55.3757 18.0696Z" fill="white"/>
<path d="M39.1045 24.134C39.1181 24.2924 39.1354 24.4496 39.1552 24.6056H40.1144H43.2456C43.1862 24.2937 43.1454 23.9768 43.1218 23.6538H40.024H39.071C39.0785 23.8135 39.0896 23.9731 39.1045 24.1315C39.1045 24.1328 39.1045 24.134 39.1045 24.134Z" fill="white"/>
<path d="M40.8841 16.5623C39.7232 18.4509 39.0549 20.6675 39.0549 23.0401C39.0549 23.2467 39.0623 23.451 39.071 23.6539H40.0252C40.0128 23.4522 40.0066 23.2467 40.0066 23.0401C40.0066 20.9336 40.5772 18.9546 41.576 17.2541L40.8841 16.5623Z" fill="white"/>
<path d="M27.9558 55.0824C27.1402 55.0824 26.5053 54.872 26.0511 54.4524C25.5969 54.0329 25.3692 53.4549 25.3692 52.7185C25.3692 52.2148 25.5078 51.7729 25.785 51.3917C26.061 51.0118 26.4669 50.7135 27.0004 50.4982C27.5338 50.2828 28.1811 50.1764 28.9422 50.1764H30.165V49.5019C30.165 49.0774 30.0375 48.7382 29.7838 48.487C29.5289 48.2345 29.16 48.1095 28.6761 48.1095C28.3989 48.1095 28.1551 48.1429 27.9422 48.2098C27.7293 48.2766 27.54 48.3719 27.3717 48.4957L27.2009 49.5774H25.8296L25.8147 47.5984C26.2095 47.3409 26.6501 47.138 27.134 46.987C27.6179 46.836 28.1563 46.7605 28.7491 46.7605C29.7665 46.7605 30.5685 46.9994 31.1539 47.4759C31.7393 47.9523 32.0326 48.6355 32.0326 49.5254V53.0601C32.0326 53.169 32.0338 53.2754 32.0363 53.3794C32.0388 53.4833 32.045 53.5848 32.0549 53.6838L32.8705 53.7878V54.9289H30.4323C30.3828 54.7556 30.337 54.5886 30.295 54.4252C30.2529 54.2618 30.2219 54.0997 30.2021 53.9363C29.9348 54.2717 29.613 54.5477 29.2343 54.7631C28.8568 54.9747 28.4298 55.0824 27.9558 55.0824ZM28.3779 53.6368C28.7529 53.6368 29.1043 53.5489 29.4298 53.3744C29.7566 53.1987 30.0004 52.9772 30.1638 52.7111V51.3695H28.9187C28.3605 51.3695 27.9397 51.4994 27.6551 51.7581C27.3704 52.018 27.2281 52.32 27.2281 52.6653C27.2281 52.9759 27.3271 53.216 27.5251 53.3843C27.7231 53.5527 28.0078 53.6368 28.3779 53.6368Z" fill="white"/>
<path d="M36.1985 55.0675C35.5166 55.0675 34.9856 54.8757 34.6057 54.4933C34.2257 54.1108 34.0351 53.4995 34.0351 52.6591V48.242H32.8643V46.9066H34.0351V44.9573H35.8953V46.9066H37.4807V48.2407H35.8953V52.6579C35.8953 52.9982 35.9658 53.247 36.1069 53.4029C36.248 53.5589 36.4399 53.6368 36.6812 53.6368C36.8198 53.6368 36.9733 53.6245 37.1441 53.5997C37.3149 53.575 37.4522 53.5502 37.555 53.5254L37.748 54.8373C37.5302 54.9017 37.2827 54.9562 37.003 55.0007C36.7233 55.0453 36.4547 55.0675 36.1985 55.0675Z" fill="white"/>
<path d="M41.6676 55.0823C41.0945 55.0823 40.5599 55.0266 40.0636 54.9152C39.5673 54.8038 39.0698 54.6392 38.5698 54.4227L38.5475 52.3026H39.8891L40.1713 53.4585C40.3829 53.5526 40.602 53.6256 40.8272 53.6776C41.0525 53.7296 41.3025 53.7556 41.5797 53.7556C42.1131 53.7556 42.4894 53.6615 42.7097 53.4734C42.93 53.2853 43.0401 53.0538 43.0401 52.7766C43.0401 52.5093 42.925 52.2815 42.6961 52.0909C42.4659 51.9003 42.0277 51.737 41.3804 51.5984C40.4225 51.3904 39.7171 51.0885 39.2641 50.6899C38.8123 50.2927 38.5859 49.7753 38.5859 49.1367C38.5859 48.6973 38.7034 48.2988 38.9373 47.9436C39.1725 47.5872 39.5178 47.3025 39.9757 47.0872C40.4324 46.8718 40.9943 46.7654 41.6614 46.7654C42.2691 46.7654 42.8087 46.8285 43.2802 46.9547C43.7518 47.081 44.154 47.2468 44.4844 47.4547L44.529 49.4931H43.2022L42.972 48.4337C42.8186 48.3248 42.6404 48.2406 42.4386 48.1812C42.2356 48.1218 42.0042 48.0921 41.7418 48.0921C41.3309 48.0921 41.0079 48.1825 40.7703 48.3632C40.5327 48.5439 40.4138 48.7704 40.4138 49.0414C40.4138 49.1998 40.4522 49.3434 40.5289 49.4709C40.6057 49.5996 40.7542 49.7172 40.9733 49.8236C41.1936 49.93 41.5153 50.0327 41.9411 50.1305C42.9832 50.3731 43.7295 50.6887 44.1787 51.0798C44.628 51.4696 44.8533 51.987 44.8533 52.6293C44.8533 53.3459 44.5909 53.9338 44.0674 54.3929C43.5451 54.8521 42.7456 55.0823 41.6676 55.0823Z" fill="white"/>
<path d="M49.2717 54.9265V53.7854L50.4499 53.5626V52.3844H45.862L45.7951 51.4289L50.3979 44.1355H52.3101V51.0725H53.6442V52.3844H52.3101V53.5626L53.4809 53.7854V54.9265H49.2717ZM47.6268 51.0725H50.4511V46.6776L50.4066 46.6628L50.2432 47.0118L47.6268 51.0725Z" fill="white"/>
<path d="M59.2012 55.0824C58.3955 55.0824 57.6814 54.9351 57.0589 54.6418C56.4363 54.3485 55.9512 53.924 55.6022 53.3708C55.2532 52.8175 55.0799 52.148 55.0799 51.3621V45.5068L53.9017 45.284V44.1355H58.1183V45.284L56.9401 45.5068V51.3621C56.9401 51.8608 57.0341 52.2804 57.2222 52.6183C57.4104 52.9561 57.674 53.2099 58.0156 53.3782C58.3559 53.5465 58.7544 53.6307 59.2087 53.6307C59.6777 53.6307 60.0849 53.5465 60.4277 53.3782C60.7706 53.2099 61.0379 52.9586 61.2285 52.622C61.4191 52.2866 61.5131 51.8658 61.5131 51.3621V45.5068L60.3349 45.284V44.1355H64.5515V45.284L63.3807 45.5068V51.3621C63.3807 52.1579 63.2062 52.8324 62.8585 53.3856C62.5107 53.9388 62.0218 54.3596 61.3943 54.6492C60.7668 54.9376 60.0366 55.0824 59.2012 55.0824Z" fill="white"/>
<path d="M64.8028 54.9265V53.7854L65.9142 53.5626V48.2779L64.7434 48.0551V46.9066H67.6345L67.731 48.07C67.9984 47.6553 68.33 47.3323 68.7273 47.1021C69.1246 46.8719 69.5763 46.7581 70.0801 46.7581C70.9056 46.7581 71.5479 47.0118 72.0071 47.518C72.4662 48.0242 72.6964 48.8163 72.6964 49.893V53.5614L73.8078 53.7841V54.9252H69.783V53.7841L70.8276 53.5614V49.9078C70.8276 49.3002 70.7063 48.8695 70.465 48.6145C70.2224 48.3596 69.8622 48.2333 69.3833 48.2333C69.0219 48.2333 68.7075 48.3138 68.4377 48.4747C68.1679 48.6356 67.9501 48.8583 67.7818 49.1455V53.5626L68.7966 53.7854V54.9265H64.8028Z" fill="white"/>
<path d="M77.8957 58.1653C77.5009 58.1653 77.0616 58.1121 76.5801 58.0057C76.0987 57.8992 75.6742 57.752 75.3091 57.5651L75.694 56.2012C76.0108 56.3448 76.3586 56.4611 76.7385 56.5502C77.1185 56.6393 77.4799 56.6839 77.8203 56.6839C78.4329 56.6839 78.8809 56.5143 79.1656 56.1765C79.4502 55.8386 79.5913 55.3596 79.5913 54.742V54.1121C79.3438 54.4289 79.0505 54.669 78.7089 54.8349C78.3685 55.0007 77.9774 55.0836 77.5381 55.0836C76.8858 55.0836 76.3239 54.9202 75.8512 54.5947C75.3796 54.268 75.0182 53.8113 74.7695 53.2234C74.5195 52.6356 74.3957 51.9536 74.3957 51.1776V51.0217C74.3957 50.1665 74.5207 49.4202 74.7695 48.784C75.0195 48.1467 75.3771 47.6504 75.8437 47.2939C76.3103 46.9375 76.8673 46.7605 77.5145 46.7605C78.0034 46.7605 78.4292 46.8607 78.7893 47.0612C79.1495 47.2617 79.4564 47.5464 79.7089 47.9177L79.85 46.909H81.4589V54.7507C81.4589 55.4475 81.3178 56.0514 81.0369 56.5626C80.7547 57.0737 80.3475 57.4685 79.8141 57.7483C79.2819 58.0255 78.642 58.1653 77.8957 58.1653ZM78.0443 53.6071C78.4044 53.6071 78.7126 53.5304 78.9663 53.3769C79.2213 53.2234 79.4292 53.0019 79.5925 52.7098V49.1368C79.4292 48.8546 79.22 48.6343 78.9626 48.4734C78.7052 48.3125 78.4019 48.232 78.0504 48.232C77.6396 48.232 77.3029 48.3496 77.0393 48.5835C76.7744 48.8187 76.5801 49.1442 76.4539 49.5613C76.3277 49.9796 76.2645 50.4647 76.2645 51.018V51.1739C76.2645 51.9153 76.4069 52.5056 76.6903 52.945C76.9737 53.3843 77.4267 53.6071 78.0443 53.6071ZM81.2089 48.315L80.423 46.9065H82.4243V48.0551L81.2089 48.315Z" fill="white"/>
<path d="M85.4825 55.0824C84.6669 55.0824 84.032 54.872 83.5778 54.4524C83.1235 54.0329 82.8958 53.4549 82.8958 52.7185C82.8958 52.2148 83.0344 51.7729 83.3117 51.3917C83.5877 51.0118 83.9936 50.7135 84.527 50.4982C85.0604 50.2828 85.7077 50.1764 86.4689 50.1764H87.6917V49.5019C87.6917 49.0774 87.5642 48.7382 87.3105 48.487C87.0555 48.2345 86.6867 48.1095 86.2028 48.1095C85.9256 48.1095 85.6818 48.1429 85.4689 48.2098C85.256 48.2766 85.0666 48.3719 84.8983 48.4957L84.7275 49.5774H83.355L83.3401 47.5984C83.7349 47.3409 84.1755 47.138 84.6595 46.987C85.1434 46.836 85.6818 46.7605 86.2746 46.7605C87.2919 46.7605 88.0939 46.9994 88.6793 47.4759C89.2647 47.9523 89.558 48.6355 89.558 49.5254V53.0601C89.558 53.169 89.5593 53.2754 89.5617 53.3794C89.5642 53.4833 89.5704 53.5848 89.5803 53.6838L90.3959 53.7878V54.9289H87.9578C87.9083 54.7556 87.8625 54.5886 87.8204 54.4252C87.7783 54.2618 87.7474 54.0997 87.7276 53.9363C87.4602 54.2717 87.1384 54.5477 86.7597 54.7631C86.3835 54.9747 85.9565 55.0824 85.4825 55.0824ZM85.9045 53.6368C86.2795 53.6368 86.631 53.5489 86.9565 53.3744C87.2832 53.1987 87.5271 52.9772 87.6904 52.7111V51.3695H86.4454C85.8872 51.3695 85.4664 51.4994 85.1817 51.7581C84.8971 52.018 84.7548 52.32 84.7548 52.6653C84.7548 52.9759 84.8538 53.216 85.0518 53.3843C85.2498 53.5527 85.5345 53.6368 85.9045 53.6368Z" fill="white"/>
<path d="M20.702 41.1787L19.0349 48.2877H24.5313L16.4322 58.9648L18.2453 51.5056H12.6029L20.702 41.1787Z" fill="white"/>
</svg>
