<svg width="262" height="262" viewBox="0 0 262 262" fill="none" xmlns="http://www.w3.org/2000/svg">
<path d="M104.868 43.5393C103.238 43.0153 102.51 41.3647 101.546 40.0809C100.058 37.026 101.546 32.289 103.521 29.7162C104.246 28.8492 105.137 28.1365 106.141 27.6202C107.153 26.6063 108.33 25.7717 109.621 25.1521C110.753 24.7172 112.021 24.2561 113.242 24.4028C113.411 24.4496 113.565 24.5381 113.691 24.6601C113.817 24.782 113.91 24.9336 113.962 25.101C114.014 25.2683 114.024 25.4461 113.989 25.618C113.955 25.7898 113.878 25.9504 113.766 26.0848C114.221 27.1328 112.77 27.6568 112.136 28.1808C111.502 28.5529 110.884 29.124 110.113 29.124C108.468 30.1773 106.938 31.4401 105.324 32.4881C104.778 34.1897 104.427 35.9476 104.276 37.7281C104.234 38.7185 104.03 39.7874 104.47 40.7202C104.857 41.2535 105.32 41.7282 105.843 42.1297C105.979 42.2713 106.062 42.4552 106.079 42.6509C106.096 42.8466 106.046 43.0422 105.936 43.2052C105.827 43.3682 105.664 43.4887 105.477 43.5466C105.289 43.6045 105.087 43.5964 104.905 43.5236L104.868 43.5393Z" fill="white"/>
<path d="M100.404 44.4459C98.2291 44.0948 97.3697 41.6477 97.3016 39.6984C96.1802 37.8802 97.8727 33.248 98.5906 31.3144C99.167 29.3442 99.6386 27.2482 100.687 25.4823C100.804 25.3354 100.964 25.2283 101.144 25.1757C101.324 25.123 101.517 25.1274 101.694 25.1882C101.872 25.249 102.027 25.3633 102.137 25.5153C102.248 25.6674 102.308 25.8499 102.311 26.0378C102.294 26.2898 102.259 26.5402 102.206 26.7871C102.772 26.4203 103.626 26.0168 104.203 26.5775C104.372 26.4983 104.566 26.4896 104.742 26.5535C104.918 26.6174 105.061 26.7485 105.141 26.9181C105.22 27.0876 105.228 27.2817 105.165 27.4576C105.101 27.6335 104.97 27.7768 104.8 27.856C104.682 27.9094 104.551 27.9294 104.423 27.9137C101.803 30.3608 101.153 34.0759 100.267 37.3876C100.137 38.0888 100.084 38.8023 100.11 39.515C100.288 40.563 100.86 41.501 100.933 42.528C102.704 43.1254 102.143 44.6817 100.404 44.4459ZM70.3051 42.5804C71.4096 42.0113 72.6311 41.7064 73.8735 41.6896C73.8958 41.6693 73.9204 41.6517 73.9469 41.6372C72.6788 41.6058 71.264 41.6739 70.3051 42.5804ZM68.0047 47.1235C67.072 46.1489 68.0414 44.8546 68.6859 43.9795C67.9471 44.5035 67.4231 46.0755 66.3017 45.5515C65.5629 45.1166 65.8983 44.2834 66.3017 43.7228C65.3323 42.9001 66.5952 42.046 67.1506 41.4329C68.3768 40.0128 73.884 36.1562 75.1731 38.7762C75.2947 38.7981 75.4105 38.8444 75.5137 38.9124C76.3206 38.7867 77.2848 39.2688 76.8341 40.191C76.9942 40.2576 77.1392 40.3557 77.2605 40.4795C77.3819 40.6033 77.4772 40.7501 77.5407 40.9114C77.6043 41.0727 77.6348 41.2451 77.6304 41.4184C77.626 41.5917 77.5869 41.7623 77.5153 41.9202L77.4839 41.9936C77.6118 42.0438 77.726 42.1237 77.8171 42.2266C77.9081 42.3296 77.9735 42.4526 78.0079 42.5857C78.0432 42.7134 78.0484 42.8476 78.0229 42.9776C77.9975 43.1077 77.9421 43.23 77.8612 43.335C78.1651 43.7542 78.7572 44.1105 78.5476 44.7131C78.4793 44.9398 78.3264 45.1316 78.1205 45.2486C77.9147 45.3657 77.6718 45.3991 77.442 45.3419C77.0699 45.2371 76.7136 45.0537 76.3311 44.9646C74.1114 45.0657 71.9288 45.5718 69.8911 46.458C69.561 47.1602 68.6912 47.7785 68.0047 47.1235Z" fill="white"/>
<path d="M69.9331 46.112C69.5715 45.6142 70.1217 45.2579 70.5357 45.106C71.4998 44.6239 72.3854 44.189 73.3496 43.7278C73.9522 43.5602 75.8543 42.4388 76.1844 43.2038C76.228 43.31 76.2319 43.4283 76.1953 43.5371C76.1587 43.6458 76.0842 43.7377 75.9853 43.796C74.6386 44.5505 73.2133 45.1217 71.7933 45.7452C71.2116 45.8605 70.4623 46.636 69.9331 46.112ZM162.686 30.4235C162.551 30.2199 162.458 29.9909 162.414 29.7503C162.37 29.5098 162.375 29.2628 162.43 29.0244C162.539 28.0022 162.472 26.9688 162.23 25.9695C161.837 24.4499 160.575 23.4124 159.715 22.16C157.095 18.7959 153.532 20.064 150.807 22.5006C150.789 22.7134 150.693 22.912 150.537 23.0581C150.381 23.2042 150.177 23.2874 149.964 23.2918L149.539 23.9416C149.5 24.0002 149.449 24.0502 149.39 24.0887C149.331 24.1272 149.265 24.1533 149.195 24.1655C149.126 24.1778 149.054 24.1758 148.986 24.1599C148.917 24.1439 148.852 24.1142 148.795 24.0726C148.732 24.0292 148.679 23.9725 148.64 23.9064C148.601 23.8403 148.577 23.7665 148.57 23.6901C148.545 23.4639 148.537 23.2363 148.544 23.0089C148.837 21.0229 150.357 19.3985 151.923 18.2614C154.486 16.5113 157.897 17.6798 160.396 19.0003C162.571 20.3889 163.619 22.8517 164.164 25.2883C164.351 25.3369 164.519 25.4429 164.643 25.5913C164.767 25.7398 164.841 25.9233 164.856 26.1162C165.06 27.4786 165.013 32.006 162.686 30.4235Z" fill="white"/>
<path d="M160.653 33.0121C159.537 32.8706 158.987 31.6707 158.452 30.8113C157.504 30.8113 157.404 29.6638 157.074 28.9878C155.953 27.5678 154.407 26.3154 152.505 26.3678C152.442 26.4528 152.358 26.5208 152.262 26.5657C152.166 26.6105 152.061 26.6307 151.955 26.6246C151.331 26.6246 150.708 25.9381 151.258 25.4298C151.65 25.1894 152.103 25.0675 152.563 25.0788C153.254 24.1303 155.319 25.4351 156.231 25.6394C156.241 25.614 156.253 25.5894 156.267 25.5661C156.147 24.8796 156.084 24.3294 156.005 23.6587C155.999 23.5016 156.048 23.3471 156.144 23.2229C156.241 23.0986 156.378 23.0125 156.532 22.9798C156.686 22.9472 156.846 22.9701 156.985 23.0445C157.124 23.1189 157.231 23.2399 157.289 23.3862C157.676 24.3531 158.012 25.3395 158.295 26.3416C159.085 26.6136 159.794 27.0779 160.36 27.6926C160.925 28.3074 161.328 29.0532 161.533 29.8629C161.837 30.8847 162.351 33.0121 160.653 33.0121Z" fill="white"/>
<path d="M164.122 29.9831C164.022 29.6634 163.928 29.349 163.855 29.0189C163.755 28.5892 163.729 28.1438 163.671 27.7089C163.604 27.8085 163.519 27.8939 163.418 27.9602C163.318 28.0266 163.206 28.0725 163.088 28.0953C162.971 28.1182 162.85 28.1176 162.732 28.0936C162.614 28.0695 162.503 28.0225 162.403 27.9552C162.292 27.8801 162.198 27.7808 162.13 27.6647C162.062 27.5485 162.021 27.4186 162.01 27.2845C161.947 26.2365 161.958 25.157 161.801 24.1038C161.476 20.4725 158.657 17.2918 154.863 18.9371C155.602 19.3459 155.361 20.2995 154.811 20.7659C154.019 21.6777 153.239 22.6051 152.411 23.4802C152.061 23.8727 151.659 24.2148 151.216 24.4968C150.22 24.9527 149.55 23.7684 150.084 22.9248C149.967 22.9575 149.846 22.9669 149.725 22.9525C149.605 22.938 149.489 22.9001 149.383 22.8407C149.278 22.7813 149.185 22.7017 149.11 22.6065C149.035 22.5112 148.98 22.4021 148.947 22.2855C148.921 22.1954 148.91 22.1015 148.916 22.0078C149.167 19.9118 151.593 18.8114 153.149 17.7686C157.305 15.07 161.979 17.3966 163.163 22.0183C165.013 22.8619 165.925 27.536 165.401 29.3543C165.344 29.5523 165.27 29.7451 165.181 29.9307C165.14 30.0369 165.068 30.1283 164.975 30.1928C164.881 30.2573 164.77 30.2919 164.657 30.2919C164.543 30.2919 164.432 30.2573 164.338 30.1928C164.245 30.1283 164.173 30.0369 164.133 29.9307L164.122 29.9831Z" fill="white"/>
<path d="M158.515 34.0284C157.32 33.342 158.337 31.8171 158.442 30.7954C157.745 31.356 156.597 31.7752 155.885 31.0259C155.277 30.2556 155.638 29.2076 155.728 28.3273C155.251 29.3753 153.852 28.6207 153.831 27.6775C153.338 28.4216 152.306 29.3701 151.478 28.5107C151.356 28.5269 151.232 28.5188 151.113 28.487C150.995 28.4551 150.883 28.4001 150.786 28.3251C150.689 28.2501 150.607 28.1566 150.546 28.05C150.485 27.9434 150.445 27.8257 150.43 27.7037C150.412 27.5785 150.421 27.4509 150.455 27.3291C150.489 27.2073 150.549 27.094 150.629 26.9964C150.996 26.6295 151.436 26.3413 151.818 25.9903C151.856 25.8546 151.937 25.735 152.049 25.6497C152.084 25.6237 152.123 25.6025 152.164 25.5868C152.94 25.2672 153.511 24.041 154.48 24.3973C154.624 24.3659 154.772 24.3659 154.915 24.3973C155.12 24.4347 155.305 24.5422 155.439 24.7012C158.845 23.3598 157.331 27.4994 157.378 29.2967C158.051 28.6485 158.603 27.8855 159.008 27.0435C159.086 26.8915 159.206 26.7653 159.354 26.6805C159.503 26.5957 159.672 26.5559 159.843 26.5659C160.013 26.5759 160.177 26.6353 160.315 26.7368C160.452 26.8384 160.557 26.9777 160.616 27.1378C160.69 28.5988 160.611 30.0634 160.381 31.508C162.099 31.9324 159.574 34.7306 158.515 34.0284ZM189.573 49.1982C189.194 49.1087 188.851 48.9079 188.588 48.6218C188.43 48.6164 188.276 48.5707 188.142 48.489C188.007 48.4074 187.895 48.2926 187.817 48.1555C187.546 48.0635 187.323 47.8681 187.195 47.6119C187.067 47.3558 187.046 47.0596 187.136 46.7878C187.188 46.6396 187.27 46.5039 187.377 46.3896C187.199 46.1937 187.089 45.9451 187.065 45.6814C187.04 45.4177 187.102 45.1531 187.241 44.9276C187.202 44.8967 187.167 44.8616 187.136 44.8228C187.035 44.7098 186.968 44.571 186.943 44.4219C186.917 44.2729 186.933 44.1195 186.989 43.9792C186.782 43.9087 186.61 43.7591 186.512 43.5629C186.414 43.3667 186.397 43.1397 186.465 42.9312C186.49 42.8637 186.522 42.7987 186.56 42.7373C186.434 42.6766 186.325 42.5846 186.245 42.4701C185.03 42.0876 186.245 40.6728 186.439 39.9182C186.57 39.615 186.685 39.3055 186.785 38.9907C186.827 38.8866 186.9 38.7975 186.993 38.7348C187.087 38.672 187.197 38.6385 187.309 38.6385C187.421 38.6385 187.531 38.672 187.625 38.7348C187.718 38.7975 187.791 38.8866 187.833 38.9907H187.948C188.086 39.0031 188.217 39.0512 188.33 39.1303C188.444 39.2093 188.534 39.3166 188.593 39.4413C188.729 39.4378 188.864 39.4728 188.982 39.5423C189.1 39.6118 189.195 39.713 189.258 39.8343C189.342 39.9957 189.366 40.1811 189.326 40.3583C189.448 40.3496 189.57 40.3731 189.679 40.4265C189.789 40.4799 189.882 40.5612 189.95 40.6623C190.017 40.7668 190.06 40.8849 190.076 41.0081C190.762 41.312 190.631 42.1557 190.322 42.6954C190.411 42.755 190.488 42.8322 190.546 42.9223C190.605 43.0124 190.644 43.1135 190.663 43.2194C190.687 43.3436 190.696 43.4703 190.689 43.5967C191.255 43.9949 190.956 44.7023 190.715 45.1687C190.827 45.2448 190.918 45.3483 190.98 45.4692C191.041 45.5902 191.071 45.7248 191.066 45.8603C191.045 46.125 190.983 46.3848 190.883 46.6306C191.118 47.3852 190.631 49.2821 189.573 49.1982Z" fill="white"/>
<path d="M195.069 46.9032C194.908 46.8428 194.776 46.7225 194.701 46.5674C194.626 46.4122 194.613 46.2341 194.666 46.07C193.393 45.6823 194.231 44.388 194.624 43.6229C194.495 43.5862 194.374 43.5241 194.268 43.4403C194.163 43.3565 194.075 43.2525 194.011 43.1346C193.946 43.0166 193.905 42.8869 193.891 42.7531C193.876 42.6192 193.889 42.4839 193.927 42.3549C193.933 42.322 193.944 42.2902 193.959 42.2605C193.997 42.1592 194.039 42.0597 194.084 41.9619C193.838 41.9292 193.615 41.8008 193.463 41.6047C193.311 41.4085 193.242 41.1603 193.272 40.9139C193.286 40.8136 193.316 40.7162 193.361 40.6257C193.188 40.5679 193.034 40.4617 192.919 40.3197C192.804 40.1776 192.732 40.0056 192.711 39.8239C192.496 39.8638 192.274 39.8167 192.093 39.693C191.912 39.5692 191.788 39.3789 191.747 39.1637C191.745 39.1236 191.745 39.0833 191.747 39.0432H191.606C191.404 38.9993 191.228 38.8791 191.113 38.7078C190.896 38.7834 190.659 38.7754 190.448 38.6853C190.237 38.5951 190.066 38.4294 189.971 38.2205C189.859 38.2541 189.742 38.2652 189.626 38.253C189.51 38.2408 189.397 38.2057 189.295 38.1496C189.192 38.0935 189.102 38.0176 189.029 37.9264C188.956 37.8351 188.902 37.7302 188.871 37.6179C188.85 37.5533 188.838 37.4864 188.834 37.4188C188.7 37.4552 188.558 37.4528 188.426 37.412C188.293 37.3712 188.175 37.2936 188.085 37.1882C187.936 37.2474 187.772 37.259 187.616 37.2215C187.461 37.184 187.32 37.0991 187.215 36.9786L187.157 36.9C186.985 36.9857 186.787 37.0036 186.603 36.9502C186.419 36.8968 186.261 36.776 186.161 36.6118C185.842 37.0415 185.155 37.293 184.783 36.7952C184.648 36.922 184.467 36.9899 184.282 36.984C184.096 36.9781 183.92 36.8989 183.793 36.7638C183.696 36.6615 183.632 36.5319 183.61 36.3923C183.589 36.2527 183.61 36.1099 183.672 35.983C183.624 35.976 183.578 35.9594 183.536 35.9341C183.494 35.9089 183.457 35.8755 183.428 35.836C183.4 35.7964 183.379 35.7515 183.368 35.7038C183.357 35.6562 183.355 35.6068 183.363 35.5586C183.377 35.4762 183.417 35.4006 183.479 35.3437C183.768 35.0269 184.031 34.6869 184.265 34.3272C184.443 34.1123 184.579 33.908 184.757 33.7036C184.808 33.646 184.871 33.5991 184.94 33.5657C185.01 33.5324 185.085 33.5132 185.162 33.5093C185.239 33.5054 185.316 33.5169 185.389 33.543C185.462 33.5692 185.528 33.6095 185.585 33.6617C185.646 33.713 185.694 33.7775 185.727 33.8503C185.857 33.7348 186.013 33.6522 186.182 33.6093C186.282 33.5884 186.384 33.5917 186.482 33.6191C186.58 33.6465 186.669 33.697 186.743 33.7665C186.865 33.5826 187.055 33.4545 187.271 33.4103C187.487 33.3661 187.712 33.4094 187.896 33.5307C187.954 33.5688 188.007 33.6147 188.053 33.6669C188.373 33.101 189.253 32.839 189.583 33.5359C189.751 33.4508 189.945 33.435 190.125 33.4919C190.304 33.5487 190.454 33.6737 190.542 33.8399C190.585 33.9229 190.61 34.0139 190.615 34.1071C190.806 34.092 190.994 34.1505 191.142 34.2704C191.291 34.3904 191.387 34.5626 191.412 34.7516C191.593 34.6859 191.79 34.6811 191.973 34.7378C192.157 34.7946 192.317 34.9099 192.429 35.066C192.607 34.9413 192.827 34.8923 193.042 34.9298C193.214 34.97 193.368 35.0675 193.479 35.2064C193.589 35.3453 193.649 35.5174 193.649 35.6948C193.839 35.6072 194.056 35.5983 194.252 35.67C194.449 35.7416 194.609 35.8881 194.697 36.0773C194.779 36.251 194.794 36.4488 194.739 36.6328C194.95 36.6058 195.163 36.6626 195.333 36.7909C195.502 36.9192 195.615 37.1089 195.646 37.3192C195.904 37.3545 196.137 37.4896 196.296 37.6955C196.455 37.9014 196.526 38.1615 196.495 38.4196C196.48 38.5174 196.452 38.6127 196.411 38.7026C197.16 38.9698 197.113 39.8763 196.835 40.4842C197.637 40.6938 197.558 41.6789 197.234 42.2658C197.351 42.4214 197.418 42.6093 197.426 42.8042C197.433 42.999 197.381 43.1915 197.276 43.3557C197.029 44.0317 196.699 44.6762 196.416 45.3364C196.065 45.8971 195.976 47.1599 195.069 46.9032Z" fill="white"/>
<path d="M192.062 52.5624C191.973 52.532 191.891 52.4839 191.821 52.4209C191.721 52.4092 191.625 52.378 191.537 52.3289C191.45 52.2798 191.373 52.214 191.311 52.135C191.249 52.0561 191.204 51.9658 191.177 51.8691C191.15 51.7725 191.143 51.6715 191.155 51.572C191.165 51.4869 191.188 51.4038 191.223 51.3257C191.815 50.4821 192.528 49.7171 193.063 48.8263C194.048 47.2543 194.603 45.3521 195.913 44.0579C196.127 43.2461 196.265 42.4165 196.327 41.5793C196.316 41.4863 196.324 41.392 196.35 41.302C196.376 41.212 196.42 41.1281 196.479 41.0553C196.547 41.0058 196.629 40.9791 196.713 40.979C196.797 40.979 196.879 41.0056 196.948 41.0551C197.016 41.1045 197.066 41.1743 197.092 41.2544C197.118 41.3345 197.118 41.4207 197.092 41.5007C197.302 42.9921 197.302 44.5054 197.092 45.9967C196.788 48.5276 195.059 50.5397 193.078 51.9912C193.024 52.1972 192.891 52.3733 192.707 52.4813C192.524 52.5892 192.305 52.6203 192.098 52.5676L192.062 52.5624ZM219.912 102.295C221.547 107.802 221.107 113.718 220.84 119.393C220.777 120.441 220.688 121.521 220.588 122.585C220.404 128.485 219.897 134.372 219.069 140.217C217.891 152.686 215.642 165.029 212.346 177.112C211.706 179.9 211.062 182.677 210.559 185.496C210.36 186.271 210.25 188.278 209.93 190.039C210.002 190.202 210.02 190.384 209.983 190.558C209.945 190.732 209.853 190.89 209.721 191.008C209.396 192.297 208.908 193.251 208.096 193.104C207.268 192.853 207.336 191.957 207.535 191.061C204.439 190.794 201.384 190.107 198.261 190.013C194.519 189.772 190.615 189.84 186.921 189.295C184.301 188.928 181.797 188.498 179.213 188.21C177.327 187.922 175.461 187.561 173.57 187.288C173.538 188.441 173.57 189.594 173.57 190.746C173.739 191.533 173.856 192.329 173.921 193.131C173.963 194.671 173.984 196.206 174.005 197.742L174.146 199.497C174.225 200.336 176.845 209.076 174.398 207.153C174.56 209.286 174.455 211.444 174.969 213.53C175.067 213.605 175.149 213.698 175.212 213.804C175.274 213.911 175.314 214.028 175.331 214.151C175.347 214.273 175.339 214.397 175.308 214.516C175.276 214.635 175.222 214.747 175.147 214.845C175.047 214.972 174.918 215.073 174.77 215.139C174.388 215.21 173.999 215.235 173.612 215.212C168.707 215.044 163.844 214.326 158.94 213.928C155.052 213.823 151.179 213.567 147.312 213.1C146.94 213.001 145.583 212.859 144.409 212.576C144.061 212.886 143.632 213.089 143.173 213.163C141.983 212.87 142.68 210.69 142.649 209.778C142.89 207.226 143.319 204.669 143.592 202.138C144.042 197.469 144.069 192.622 145.688 188.174C145.971 187.456 145.766 185.878 146.82 185.899C146.877 185.7 146.93 185.496 146.982 185.297C146.783 185.297 146.584 185.297 146.4 185.323C145.405 185.37 144.409 185.396 143.419 185.386C136.664 185.134 129.926 184.5 123.203 183.814C121.531 183.657 119.855 183.562 118.183 183.426C117.523 183.395 116.433 183.426 116.553 182.472C115.568 182.383 114.578 182.315 113.582 182.247C113.533 182.341 113.457 182.418 113.363 182.467C113.27 182.517 113.163 182.537 113.058 182.525C110.103 182.525 107.242 181.639 104.297 181.566C103.649 181.508 102.996 181.508 102.348 181.566C102.222 182.414 102.206 183.276 102.301 184.128C102.536 185.884 103.008 187.571 102.898 189.368C102.814 190.982 102.573 192.58 102.473 194.194C102.211 196.93 102.018 199.675 101.714 202.411C101.814 204.188 101.712 205.97 101.41 207.724C101.604 207.794 101.767 207.932 101.869 208.111C101.971 208.291 102.006 208.501 101.968 208.704C101.929 208.907 101.82 209.089 101.659 209.219C101.498 209.349 101.297 209.417 101.09 209.411C99.6439 209.857 97.988 209.474 96.4737 209.568C94.2761 209.616 92.0777 209.521 89.8922 209.286C87.9325 209.212 85.9465 209.238 84.0758 208.61C80.8742 208.248 77.6359 208.321 74.4342 207.902L72.3382 207.645C72.3656 207.701 72.37 207.765 72.3504 207.824C72.3308 207.883 72.2887 207.932 72.2334 207.96C72.2009 207.976 72.1651 207.985 72.1286 207.986C69.0869 207.74 66.0848 207.136 63.1839 206.189C61.9787 205.811 60.6583 205.707 59.5159 205.083C58.5203 204.412 59.3483 203.191 59.9666 202.599C60.4906 201.588 60.9727 200.529 61.46 199.482C63.0432 195.554 64.3716 191.528 65.4371 187.43C66.3279 184.034 66.7838 180.528 67.989 177.217C63.1892 176.074 58.2479 176.289 53.3642 176.205C51.861 176.017 50.3462 175.938 48.8316 175.97C46.8613 175.97 45.064 175.723 43.1514 175.786C43.1514 177.694 43.9951 177.285 47.443 178.312C47.5243 178.34 47.5939 178.395 47.6413 178.467C47.6886 178.539 47.711 178.624 47.705 178.71C47.699 178.806 47.6585 178.896 47.5911 178.965C47.5237 179.033 47.4339 179.075 47.3382 179.082C46.4563 179.181 45.5683 179.214 44.6815 179.182C40.086 179.266 41.3331 175.163 41.4537 172.066C41.6947 168.424 41.9043 164.787 42.3183 161.161C43.0519 154.349 43.6754 147.48 44.5715 140.725C44.8597 138.493 45.3627 136.282 45.6195 134.055C45.8605 132.682 45.7767 131.283 46.1435 129.926C46.395 128.542 46.6675 127.159 46.9085 125.776C46.9085 123.428 47.3958 121.06 47.6369 118.77C47.9355 116.564 48.1609 114.352 48.4595 112.167V112.12C49.3608 105.832 50.0315 99.5075 50.8857 93.2562C51.043 92.2638 51.2618 91.282 51.5407 90.3166C51.5407 90.3166 51.5407 90.3166 51.5407 90.2904C51.6617 89.498 51.9827 88.7496 52.4734 88.1158C53.3118 87.204 54.5327 87.1726 55.7012 87.1097C55.8107 87 55.9431 86.9158 56.089 86.8634C58.9657 86.2399 61.9368 86.6224 64.8555 86.7377C68.542 86.2089 72.2839 86.193 75.9748 86.6905C80.4707 87.1673 84.9299 87.9062 89.4468 88.2153C92.3865 88.2939 95.3209 88.4931 98.25 88.7393C98.6325 88.7865 99.0832 88.7393 99.3609 89.0747C108.568 89.2633 117.785 89.5987 126.96 90.3218H126.986C127.882 90.0022 128.899 90.3952 129.821 90.4476C131.257 90.6677 132.703 90.7882 134.154 90.8825C141.962 91.658 149.796 92.1087 157.572 93.1776C161.764 93.8326 165.856 94.7496 170.101 94.823C176.49 95.1258 182.848 95.9035 189.122 97.1495C194.834 97.8569 200.561 98.5591 206.294 99.0202C208.562 99.2822 218.524 99.7014 219.158 101.504C219.183 101.566 219.201 101.631 219.21 101.698C219.525 101.876 219.797 102.023 219.912 102.295Z" fill="white"/>
<path d="M194.126 190.332L196.332 190.537H197.213H197.118H197.255L197.49 190.563H197.663L197.957 190.589H198.103C200.089 190.788 202.081 191.003 204.072 191.192C200.739 191.187 197.427 190.783 194.126 190.332ZM174.686 188.991L174.623 188.912L175.671 189.017C175.529 189.151 175.342 189.226 175.147 189.227C175.057 189.224 174.97 189.202 174.89 189.161C174.81 189.12 174.74 189.062 174.686 188.991ZM144.823 186.193C144.723 186.171 144.628 186.129 144.544 186.069C144.461 186.01 144.39 185.934 144.336 185.847L145.51 185.978C145.352 186.121 145.146 186.198 144.933 186.193H144.823ZM108.306 110.564C108.337 110.622 108.363 110.674 108.389 110.732C108.415 110.782 108.436 110.835 108.452 110.889C108.47 110.947 108.484 111.007 108.494 111.067V111.282C108.497 111.331 108.497 111.38 108.494 111.429C108.496 111.441 108.496 111.453 108.494 111.465V111.523L108.447 111.591L108.306 111.78L108.19 111.9C107.874 112.1 107.626 112.393 107.483 112.739C107.407 112.961 107.382 113.197 107.409 113.43C107.436 113.663 107.515 113.887 107.64 114.085C107.811 114.345 108.045 114.559 108.319 114.706C108.594 114.853 108.901 114.93 109.212 114.929C109.462 114.934 109.709 114.885 109.938 114.786C110.167 114.686 110.371 114.538 110.538 114.352C110.959 113.873 111.267 113.304 111.437 112.689C111.608 112.074 111.637 111.428 111.523 110.8C111.414 110.204 111.192 109.635 110.868 109.123C110.6 108.718 110.263 108.363 109.872 108.075C109.742 107.922 109.582 107.796 109.402 107.706C109.222 107.616 109.025 107.563 108.824 107.551C108.558 107.542 108.293 107.602 108.055 107.724C107.818 107.846 107.616 108.026 107.467 108.248C107.359 108.416 107.285 108.603 107.25 108.8C107.215 108.997 107.219 109.198 107.262 109.393C107.306 109.588 107.387 109.773 107.503 109.936C107.618 110.099 107.764 110.238 107.933 110.344C107.986 110.377 108.04 110.406 108.096 110.433L108.19 110.47H108.222L108.248 110.496L108.337 110.616L108.29 110.543L108.306 110.564ZM81.3667 118.104C81.2851 118.29 81.2544 118.495 81.2776 118.696C81.2028 118.919 81.1848 119.157 81.2252 119.388C81.2877 119.71 81.4622 120 81.7178 120.206L81.8907 120.363C82.0445 120.511 82.2111 120.646 82.3885 120.766C82.5614 120.887 82.7291 121.012 82.9125 121.123C83.1954 121.278 83.4876 121.417 83.7876 121.536C85.4287 122.234 87.1448 122.741 88.9018 123.046C89.7505 123.173 90.6062 123.248 91.4642 123.271C91.8781 123.271 92.2973 123.308 92.7165 123.308C93.1787 123.312 93.6407 123.287 94.0999 123.234C94.6893 123.174 95.274 123.074 95.85 122.936C96.4642 122.773 97.0636 122.559 97.6421 122.296C98.3024 122.003 98.9521 121.688 99.6019 121.374C101.928 120.253 104.129 118.571 105.329 116.228C105.734 115.469 105.978 114.634 106.047 113.776C106.068 113.35 106.027 112.923 105.927 112.508C105.824 112.167 105.634 111.858 105.376 111.612C104.714 111.094 103.896 110.815 103.055 110.821C102.245 110.774 101.436 110.93 100.702 111.277C99.9083 111.685 99.1645 112.185 98.4858 112.765C97.9618 113.168 97.4744 113.561 96.9557 113.938C96.4369 114.316 95.9601 114.588 95.4413 114.892C94.9226 115.196 94.2361 115.542 93.6178 115.841C92.9995 116.139 92.4021 116.333 91.7995 116.59C91.2755 116.815 90.7515 117.014 90.2275 117.193C89.7035 117.371 89.2319 117.428 88.7237 117.528C87.6832 117.707 86.6335 117.827 85.5797 117.889C85.1185 117.889 84.6626 117.889 84.1963 117.858C83.8819 117.816 83.5675 117.769 83.2531 117.711L83.0644 117.648L82.9806 117.612C82.8016 117.522 82.6043 117.476 82.4042 117.475C82.1824 117.472 81.9646 117.535 81.7781 117.655C81.5917 117.775 81.4449 117.948 81.3562 118.151L81.3667 118.104ZM160.045 121.568C160.292 121.835 160.569 122.092 160.816 122.328C161.303 122.757 161.759 123.219 162.236 123.659C162.74 124.119 163.287 124.529 163.87 124.885C165.004 125.619 166.211 126.236 167.47 126.724C168.742 127.148 170.044 127.479 171.364 127.714C172.679 127.976 173.984 128.212 175.32 128.422C176.656 128.631 177.94 128.872 179.281 129.035C179.921 129.114 180.565 129.187 181.21 129.224C181.587 129.224 181.969 129.265 182.352 129.265C182.602 129.268 182.852 129.258 183.101 129.234C183.788 129.2 184.459 129.022 185.072 128.71C185.488 128.484 185.804 128.11 185.957 127.662C186.024 127.434 186.059 127.198 186.062 126.96C186.062 126.366 185.84 125.794 185.438 125.356C184.985 124.915 184.428 124.594 183.819 124.424C183.26 124.25 182.687 124.125 182.106 124.052C181.383 123.947 180.654 123.894 179.931 123.79C178.967 123.606 178.024 123.355 177.07 123.161C176.116 122.967 175.288 122.831 174.413 122.637C173.889 122.501 173.402 122.343 172.904 122.165L172.993 122.202C172.433 121.992 171.867 121.798 171.332 121.542L170.808 121.217C170.31 120.861 169.844 120.468 169.362 120.09C168.88 119.713 168.393 119.372 167.895 119.042C167.696 118.901 167.507 118.754 167.313 118.602C166.789 118.12 166.265 117.601 165.71 117.135L165.83 117.24C165.432 116.899 165.034 116.543 164.615 116.228C164.177 115.89 163.689 115.621 163.168 115.432C162.675 115.263 162.148 115.218 161.633 115.301C161.093 115.376 160.571 115.554 160.098 115.825C160.12 115.646 160.108 115.464 160.06 115.289C160.012 115.115 159.93 114.952 159.819 114.809C159.708 114.666 159.57 114.547 159.413 114.458C159.256 114.369 159.082 114.312 158.903 114.29C158.84 114.282 158.777 114.282 158.714 114.29C158.536 114.29 158.359 114.32 158.19 114.379C157.916 114.435 157.658 114.553 157.436 114.724C157.295 114.803 157.164 114.896 157.043 115.002C156.845 115.143 156.656 115.295 156.477 115.458C155.843 116.053 155.358 116.789 155.062 117.606C154.741 118.406 154.702 119.292 154.952 120.116C155.205 120.873 155.698 121.526 156.356 121.977C156.716 122.221 157.13 122.375 157.562 122.427C157.631 122.432 157.701 122.432 157.771 122.427C158.06 122.417 158.345 122.359 158.615 122.254C159.018 122.09 159.354 121.795 159.568 121.416C159.622 121.326 159.668 121.231 159.705 121.133C159.825 121.28 159.935 121.421 160.056 121.552L160.045 121.568ZM209.872 122.59C209.202 123.685 208.714 124.881 208.426 126.132C208.546 126.167 208.651 126.243 208.722 126.346C208.794 126.449 208.828 126.573 208.819 126.698C208.767 127.53 208.767 128.365 208.819 129.197C209.343 130.34 210.554 130.869 211.738 131.084C211.871 131.096 211.997 131.149 212.099 131.235C212.201 131.322 212.274 131.437 212.309 131.566C213.981 131.147 214.735 129.229 215.505 127.835C216.905 124.256 215.877 120.143 213.776 117.067C212.613 119.027 210.91 120.567 209.862 122.595L209.872 122.59ZM136.203 159.27C136.575 159.794 136.932 160.354 137.251 160.92C137.356 161.109 137.456 161.303 137.55 161.502C137.666 161.765 137.805 162.017 137.964 162.257C138.222 162.632 138.515 162.983 138.839 163.305C139.126 163.585 139.476 163.792 139.861 163.907C140.059 163.963 140.263 163.993 140.469 163.996C140.718 163.995 140.964 163.944 141.192 163.844C141.45 163.727 141.675 163.546 141.847 163.32C142.105 163.231 142.333 163.069 142.502 162.854C142.742 162.501 142.875 162.086 142.884 161.659C142.916 161.361 142.916 161.061 142.884 160.763C142.829 160.214 142.669 159.68 142.413 159.191C142.286 158.948 142.139 158.717 141.973 158.499C141.789 158.258 141.585 158.017 141.412 157.761C141.239 157.504 141.103 157.21 140.925 156.954C140.746 156.697 140.479 156.372 140.275 156.068C140.07 155.764 139.85 155.387 139.609 155.062C139.431 154.816 139.242 154.575 139.049 154.328L138.912 154.114C138.631 153.706 138.321 153.319 137.985 152.956C137.319 152.208 136.591 151.517 135.81 150.891L135.936 150.985C135.523 150.66 135.093 150.358 134.647 150.079C133.952 149.664 133.186 149.384 132.389 149.251C131.523 149.109 130.645 149.053 129.769 149.083C128.813 149.097 127.865 149.252 126.955 149.544C126.494 149.696 126.048 149.901 125.603 150.094C125.157 150.288 124.67 150.55 124.214 150.797C123.642 151.088 123.096 151.43 122.585 151.818C122.139 152.159 121.709 152.531 121.269 152.866C120.923 153.128 120.578 153.39 120.221 153.668L120.169 153.71L120.132 153.742C119.421 154.327 118.75 154.961 118.125 155.638C117.804 155.973 117.517 156.338 117.266 156.728C117.03 157.09 116.826 157.467 116.611 157.844C116.379 158.153 116.184 158.487 116.029 158.84C115.94 159.067 115.927 159.316 115.991 159.552C116.055 159.787 116.194 159.995 116.386 160.145L116.501 160.213C116.517 160.244 116.536 160.274 116.559 160.302C116.788 160.604 117.12 160.812 117.491 160.889C117.799 160.993 118.117 161.063 118.44 161.098C119.048 161.128 119.647 160.943 120.132 160.574C120.778 160.012 121.323 159.342 121.741 158.594L121.668 158.704C121.851 158.447 122.045 158.18 122.244 157.965C122.476 157.693 122.724 157.436 122.988 157.195C123.473 156.82 123.979 156.472 124.502 156.152L124.874 155.927L124.759 156C125.11 155.785 125.493 155.628 125.849 155.429C126.205 155.23 126.567 155.052 126.939 154.905C127.282 154.779 127.632 154.674 127.987 154.59C128.244 154.548 128.511 154.512 128.747 154.48C128.983 154.449 129.302 154.48 129.58 154.48C130 154.512 130.418 154.564 130.832 154.638C131.065 154.695 131.294 154.765 131.519 154.847C131.812 154.962 132.1 155.088 132.383 155.224L132.546 155.329L132.645 155.413C132.913 155.686 133.169 155.984 133.452 156.246C133.735 156.508 133.908 156.655 134.128 156.865C134.385 157.115 134.625 157.383 134.846 157.666L134.883 157.708L134.851 157.672L134.925 157.766C134.936 157.776 134.945 157.788 134.951 157.803C135.365 158.274 135.8 158.772 136.203 159.259V159.27ZM201.567 185.47C197.82 185.213 194.074 184.883 190.332 184.563C186.298 184.223 182.263 183.892 178.218 183.625L174.298 183.363V180.382C174.35 175.996 174.24 171.615 174.267 167.235C174.696 156.886 173.308 146.662 172.951 136.345H172.186C168.566 136.093 164.656 135.705 161.738 133.332C161.062 132.64 160.417 132.074 159.726 131.472C159.71 131.534 159.69 131.595 159.668 131.655C158.845 134.333 158.279 137.267 157.399 139.887C156.498 143.031 155.754 146.222 154.879 149.377C154.004 152.531 152.825 155.45 151.845 158.505C150.22 165.254 148.936 172.076 147.207 178.804C147.108 179.26 147.013 179.716 146.924 180.177C142.848 179.721 138.76 179.386 134.663 179.129C130.565 178.873 126.368 178.679 122.212 178.506C118.057 178.333 113.797 178.202 109.584 178.097L107.886 178.055C106.037 177.898 104.187 177.72 102.342 177.531L100.859 177.369C100.713 174.136 100.592 170.861 100.639 167.643C100.682 163.449 100.986 159.261 101.551 155.104C101.996 150.846 102.206 146.568 102.18 142.287C102.143 137.927 101.761 133.594 102.101 129.25C99.9687 130.392 97.553 130.822 95.1846 131.204C92.2873 131.882 89.2582 131.737 86.439 130.785L86.3237 131.052C86.3388 131.119 86.3344 131.188 86.3112 131.252C86.288 131.316 86.2469 131.372 86.1927 131.414L86.0827 131.613C85.6901 132.572 85.2404 133.506 84.736 134.411C84.7213 134.448 84.698 134.48 84.6679 134.505C83.5612 137.066 82.6093 139.691 81.8173 142.365C80.8636 145.038 79.9991 147.742 79.0297 150.409C77.5467 154.077 75.9957 157.525 74.6542 161.203C73.2447 165.107 72.1548 169.194 70.5147 173.025C69.9907 172.957 69.4247 172.878 68.885 172.836C67.4108 172.707 65.9384 172.595 64.4677 172.501C61.9839 172.338 59.4949 172.254 57.0059 172.176C53.8619 172.075 50.7319 171.968 47.6158 171.856L44.9958 171.762C45.1268 170.279 45.2474 168.801 45.3888 167.318C45.6823 164.227 46.112 161.151 46.4945 158.065V158.3C46.725 156.456 46.9294 154.632 47.0761 152.762C47.2124 151.048 47.3434 149.335 47.4796 147.621V147.448C47.5896 146.128 47.6892 144.802 47.7835 143.487C47.9512 141.176 48.1346 138.876 48.3075 136.57C48.3494 136.319 48.3861 136.072 48.4228 135.815C48.9049 132.708 49.3084 129.596 49.5546 126.457C49.8009 123.318 49.9162 120.169 50.2149 117.025C50.5136 113.881 50.8542 110.669 51.1895 107.493V107.551C51.1873 107.527 51.1873 107.502 51.1895 107.478V107.394C51.1895 107.216 51.2314 107.043 51.2472 106.87V106.629C51.25 106.58 51.25 106.531 51.2472 106.482C51.3729 105.308 51.5039 104.124 51.6402 102.945C51.8917 101.314 52.138 99.6805 52.379 98.0456C52.379 97.946 52.4262 97.8465 52.4524 97.7469C52.6986 96.8037 52.9344 95.8553 53.2069 94.9225L53.6156 93.5444V93.5182C53.689 93.2877 53.7571 93.0571 53.8252 92.8318C54.0872 92.444 54.3492 92.072 54.6479 91.7104C54.9466 91.3489 55.2243 91.0764 55.5335 90.7829C55.9684 90.4161 56.4243 90.0755 56.8906 89.7349L59.5473 89.9236C62.2512 90.1175 64.9602 90.2537 67.6693 90.4476C69.8072 90.6677 71.9347 90.9401 74.0726 91.1864C76.2105 91.4327 78.338 91.5847 80.4759 91.7471H80.2768C81.5448 91.8467 82.8182 91.9253 84.0915 92.0196C85.9569 92.1506 87.8276 92.2921 89.6983 92.3759C90.6939 92.4178 91.6895 92.4755 92.6851 92.5017L96.0911 92.575C97.8989 92.6169 99.7119 92.6641 101.514 92.7427C102.384 92.7794 103.254 92.8108 104.134 92.8632L107.347 93.0833L117.014 93.9793H117.109L119.383 94.1785L122.307 94.4509C126.011 94.7915 129.711 95.2369 133.41 95.6509C137.11 96.0649 140.972 96.4631 144.765 96.7461C148.559 97.029 152.479 97.2963 156.33 97.6421C160.182 97.9879 164.19 98.3338 168.12 98.6272C169.996 98.7687 171.872 98.8892 173.743 99.0674C175.839 99.263 177.924 99.4726 179.999 99.6962C183.919 100.115 187.859 100.618 191.753 101.111L191.501 101.085L192.271 101.179L192.02 101.148C193.417 101.333 194.825 101.523 196.243 101.719H196.201H196.29H196.264H196.579L196.762 101.75L200.315 102.327H200.545H200.456H200.55L200.975 102.395L201.499 102.479L202.584 102.646C203.359 102.767 204.156 102.877 204.91 102.987C208.332 103.479 211.754 104.035 215.191 104.381L216.47 104.506C216.47 104.706 216.506 104.905 216.522 105.109L216.711 107.378C216.794 108.379 216.868 109.385 216.941 110.386C216.978 111.135 217.004 111.879 217.036 112.623C217.067 113.367 217.036 114.022 217.036 114.719C217.036 116.008 216.988 117.297 216.931 118.592C216.716 121.846 216.485 125.1 216.139 128.338L216.108 128.642C215.919 130.177 215.715 131.713 215.484 133.243C215.254 134.773 215.008 136.282 214.777 137.807C214.358 140.631 214.043 143.471 213.729 146.295C213.457 148.281 213.205 150.262 212.896 152.243C212.616 154.136 212.309 156.019 211.974 157.892C210.989 162.912 209.904 167.91 208.83 172.904L208.877 172.663C208.767 173.187 208.646 173.711 208.531 174.235C208.416 174.759 208.531 174.35 208.494 174.408L207.169 180.67C206.966 181.61 206.749 182.544 206.519 183.473L205.995 183.887L206.126 183.777C205.749 184.092 205.361 184.39 204.952 184.673C204.742 184.809 204.533 184.946 204.313 185.066L203.873 185.265C203.597 185.367 203.314 185.456 203.024 185.533L201.567 185.47ZM67.3025 178.364C67.1887 178.303 67.0912 178.216 67.0182 178.109C66.9453 178.002 66.899 177.88 66.8833 177.751L68.4553 177.84C68.3846 178.006 68.2701 178.149 68.1243 178.254C67.9784 178.359 67.8066 178.423 67.6274 178.438C67.5159 178.431 67.4062 178.406 67.3025 178.364ZM158.966 93.9793C155.088 93.6545 151.205 93.3715 147.323 93.099C143.44 92.8265 139.562 92.5331 135.695 92.1191H135.931H135.48L131.98 91.7419C130.717 91.6056 129.465 91.4484 128.207 91.3331C125.964 91.1026 123.722 90.8895 121.479 90.6939H121.709L119.021 90.4633L117.297 90.3166H117.02L115.626 90.1961C113.67 90.0179 111.717 89.8432 109.767 89.6721C108.966 89.6039 108.164 89.5253 107.362 89.4729C110.467 88.9266 113.638 88.8612 116.763 89.2791C121.164 89.7664 125.603 89.9236 130.015 90.2694C135.779 90.8353 141.396 91.9881 147.171 92.2501C150.241 92.4755 153.307 92.837 156.356 93.251C159.836 93.2981 163.263 93.9951 166.695 94.6134C164.11 94.4177 161.533 94.2064 158.966 93.9793ZM97.9565 89.0799C96.1435 89.0799 94.3252 89.0799 92.5069 89.0275C90.4109 88.9751 88.3149 88.907 86.2189 88.8232C84.3587 88.7498 82.4933 88.6607 80.6331 88.5717C78.7729 88.4826 76.9651 88.3463 75.1049 88.2153H74.9267C72.9041 88.0215 70.8867 87.8014 68.8536 87.6442C67.0143 87.5027 65.1594 87.4608 63.3149 87.4398H62.4922C62.6672 87.3563 62.8212 87.2345 62.9429 87.0835C64.0485 87.1254 65.1489 87.1935 66.2493 87.2512C68.8326 87.3245 71.4159 87.4189 73.9835 87.6809C81.7387 87.8957 89.473 88.6241 97.2177 88.9332C97.9827 88.9909 98.7478 89.0537 99.5128 89.1323L97.9565 89.0799ZM55.8217 87.3193L56.2356 87.2617L55.9632 87.4084H55.7798C55.7955 87.3822 55.806 87.3507 55.8217 87.3193Z" fill="#FCB8A3"/>
<path d="M85.5429 110.391L85.4958 110.459V110.533L85.4539 110.585L85.5429 110.391ZM180.151 126.53L180.146 126.525L180.156 126.53H180.151ZM170.41 124.743L170.578 124.78C169.944 124.623 169.325 124.455 168.707 124.256C168.518 124.188 168.335 124.099 168.152 124.026C167.327 123.585 166.527 123.107 165.752 122.59H165.725L165.673 122.553C165.348 122.338 165.039 122.113 164.73 121.872C164.51 121.662 164.295 121.458 164.08 121.243C163.556 120.646 162.974 120.048 162.482 119.404C162.124 118.895 161.72 118.42 161.277 117.984L161.203 117.926H161.261C161.46 117.895 161.654 117.869 161.848 117.853C162.042 117.837 162.136 117.853 162.278 117.853H162.346L162.466 117.884C162.53 117.904 162.593 117.927 162.655 117.952C162.788 118.015 162.913 118.083 163.032 118.157C163.462 118.445 163.865 118.759 164.263 119.084C164.787 119.545 165.222 120.048 165.72 120.52C166.218 120.992 166.737 121.427 167.245 121.882L167.109 121.762L167.329 121.956C168.377 122.909 169.425 123.957 170.735 124.497C171.827 124.93 172.949 125.281 174.094 125.545C172.857 125.273 171.631 125.011 170.41 124.743ZM159.296 116.328C159.298 116.356 159.298 116.384 159.296 116.412C159.265 116.375 159.296 116.328 159.296 116.328ZM108.426 110.805V110.726L108.457 110.816L108.426 110.805ZM89.8974 120.368C89.169 120.305 88.4459 120.232 87.7333 120.117L87.0625 119.986C87.4503 119.954 87.8328 119.912 88.2101 119.86C88.8703 119.765 89.5253 119.676 90.1803 119.535C90.919 119.372 91.647 119.164 92.3602 118.911C93.0152 118.681 93.6754 118.466 94.3357 118.246C95.0003 118.02 95.6452 117.739 96.264 117.407C96.919 117.072 97.5687 116.726 98.1923 116.359C98.776 115.998 99.3377 115.603 99.8743 115.175C100.44 114.735 100.969 114.248 101.572 113.85C101.719 113.76 101.866 113.687 102.017 113.614L102.29 113.525L102.484 113.483H103.16L103.317 113.514V113.556C103.317 113.692 103.317 113.818 103.275 113.949C103.233 114.08 103.212 114.216 103.17 114.347C103.097 114.57 103.011 114.789 102.914 115.002C102.84 115.16 102.751 115.311 102.667 115.463C102.489 115.725 102.306 115.987 102.107 116.218C101.907 116.449 101.745 116.595 101.583 116.773C101.179 117.114 100.755 117.413 100.325 117.717C100.021 117.911 99.7119 118.099 99.3975 118.272C98.8263 118.555 98.2447 118.796 97.6578 119.048C97.0709 119.299 96.5731 119.519 96.0282 119.739C95.7347 119.849 95.4413 119.949 95.1426 120.043C94.2372 120.252 93.3147 120.379 92.3864 120.42H91.7681C91.1445 120.42 90.5209 120.394 89.8974 120.368Z" fill="#FCB8A3"/>
<path d="M216.25 121.143C216.522 122.445 216.612 123.778 216.517 125.105C216.543 128.375 213.671 133.573 209.967 130.811C207.577 128.799 208.107 125.047 209.563 122.632C210.685 120.572 212.734 119.173 213.488 116.941C213.341 115.893 214.536 116.055 214.699 116.941C214.987 118.424 215.836 119.692 216.25 121.143ZM214.793 126.808C215.391 123.914 215.04 120.904 213.792 118.225C212.844 120.593 210.732 122.48 210.124 124.969C209.569 126.761 209.6 130.009 212.094 130.088C213.719 130.03 214.347 128.076 214.809 126.829L214.793 126.808ZM105.02 113.289C105.843 118.193 93.2825 121.715 89.5097 121.615C87.1674 121.384 84.4845 121.274 82.5562 119.786C82.4786 119.734 82.4123 119.666 82.361 119.588C82.3097 119.509 82.2745 119.422 82.2574 119.329C82.2404 119.237 82.2418 119.143 82.2616 119.051C82.2814 118.959 82.3192 118.873 82.3728 118.796C82.4284 118.715 82.4998 118.647 82.5827 118.594C82.6655 118.542 82.7581 118.507 82.8549 118.492C83.8191 118.612 84.6994 119.304 85.7212 119.22C88.0192 119.02 90.2973 118.635 92.5332 118.067C93.6231 117.716 94.8597 117.418 95.9025 116.983C97.4011 116.139 98.9312 115.353 100.393 114.436C101.147 114.038 101.871 113.584 102.557 113.079C103.369 112.303 104.716 111.711 105.02 113.289ZM108.683 114.232C108.007 113.87 108.515 113.053 108.683 112.529C108.823 112.187 108.881 111.817 108.853 111.448C108.825 111.08 108.711 110.723 108.52 110.407C108.274 110.019 108.054 109.442 108.578 109.175C108.722 109.102 108.889 109.088 109.043 109.137C109.197 109.186 109.326 109.294 109.401 109.437C110.035 110.6 110.784 111.973 110.024 113.262C109.752 113.708 109.322 114.499 108.683 114.232ZM184.359 126.169C184.547 126.258 184.693 126.419 184.763 126.615C184.834 126.811 184.824 127.027 184.736 127.217C184.646 127.402 184.489 127.547 184.296 127.62C183.921 127.723 183.529 127.748 183.143 127.693C178.249 127.599 173.14 128.05 168.67 125.681C165.526 124.109 160.386 121.804 159.699 118.02C159.791 117.502 160.08 117.04 160.506 116.731C161.675 116.511 162.859 117.124 163.818 117.716C165.39 118.722 166.438 120.258 167.869 121.342C170.489 123.407 173.832 124.214 177.002 125.079C178.383 125.424 179.782 125.688 181.194 125.87C182.231 125.996 183.358 125.796 184.359 126.169ZM158.961 119.896C159.064 120.042 159.109 120.221 159.087 120.398C159.065 120.576 158.977 120.738 158.84 120.854C158.704 120.969 158.529 121.029 158.35 121.022C158.172 121.014 158.002 120.94 157.876 120.813C157.311 120.173 156.971 119.366 156.906 118.515C156.842 117.664 157.057 116.815 157.52 116.097C157.618 116.039 157.732 116.014 157.845 116.026C157.959 116.039 158.065 116.088 158.148 116.166C158.231 116.244 158.286 116.347 158.305 116.46C158.324 116.572 158.306 116.688 158.253 116.789C158.223 116.822 158.188 116.851 158.148 116.873C157.991 117.403 157.983 117.966 158.127 118.499C158.27 119.033 158.559 119.517 158.961 119.896ZM140.432 160.999C140.466 161.155 140.445 161.318 140.375 161.461C140.304 161.605 140.186 161.72 140.042 161.788C139.897 161.856 139.734 161.873 139.578 161.836C139.422 161.8 139.284 161.711 139.185 161.586C138.586 160.637 138.108 159.618 137.76 158.552C137.238 157.477 136.556 156.487 135.737 155.617C134.946 154.78 134.019 154.082 132.996 153.553C130.534 152.635 127.81 152.72 125.409 153.789C122.218 155.009 120.751 158.258 118.01 160.045C117.941 160.092 117.864 160.124 117.783 160.141C117.701 160.157 117.617 160.158 117.536 160.142C117.454 160.126 117.377 160.094 117.308 160.048C117.238 160.003 117.179 159.944 117.132 159.875C117.086 159.806 117.053 159.729 117.037 159.647C117.02 159.566 117.02 159.482 117.036 159.401C117.052 159.319 117.083 159.242 117.129 159.172C117.175 159.103 117.234 159.044 117.303 158.997H117.339C118.003 158.581 118.602 158.069 119.116 157.478C120.164 156.377 121.018 155.009 122.144 154.035C123.438 152.909 124.97 152.09 126.625 151.64C128.741 150.998 131.01 151.063 133.086 151.828C135.162 152.592 136.932 154.012 138.126 155.874C139.284 157.394 139.824 159.228 140.432 160.999Z" fill="black"/>
<path d="M221.511 104.706C221.556 105.276 221.496 105.85 221.332 106.398C222.773 115.83 221.547 125.372 220.536 134.804C219.734 140.71 219.577 146.683 218.649 152.563C217.408 159.637 215.636 166.616 214.326 173.68C212.713 181.917 211.413 190.207 209.92 198.465C209.08 202.844 207.877 207.145 206.325 211.324C206.267 211.487 206.152 211.623 206 211.707C205.791 213.53 204.638 215.259 202.688 215.485C200.469 215.873 198.227 216.12 195.976 216.223C192.424 216.757 188.827 216.932 185.239 216.747C181.603 216.517 177.945 216.564 174.314 216.292C170.494 216.066 166.721 215.359 162.906 215.144C160.108 215.029 157.3 215.144 154.522 214.961C151.902 214.856 149.356 214.368 146.799 214.18C143.241 213.923 139.677 214.51 136.119 214.18C134.741 214.107 133.368 213.944 132.001 213.75C132.228 215.29 132.356 216.842 132.383 218.398C132.383 223.381 132.169 228.165 132.808 233.133C132.839 234.05 132.85 235.177 132.907 236.392C136.287 234.883 138.823 231.985 142.214 230.482C143.062 230.141 144.205 229.182 145.043 229.958C146.605 232.095 147.657 234.561 148.119 237.168C148.532 238.528 148.583 239.973 148.266 241.36C148.056 242.785 147.496 244.818 145.677 244.588C145.323 244.551 144.982 244.43 144.684 244.235C144.386 244.04 144.139 243.776 143.964 243.466C143.406 242.723 142.918 241.93 142.507 241.098C141.899 239.976 142.02 238.656 141.878 237.43C140.612 238.213 139.305 238.93 137.964 239.578C136.712 240.207 135.438 240.789 134.217 241.48C134.039 241.58 133.83 241.758 133.615 241.868C134.296 244.488 135.627 246.621 138.252 246.961C140.76 246.978 143.249 246.523 145.588 245.62C147.4 245.119 149.178 244.505 150.912 243.781C153.553 242.587 156.114 241.223 158.578 239.699C160.157 238.426 161.848 237.298 163.629 236.329L163.703 236.293C165.207 234.721 167.491 234.076 168.875 236.45C169.425 237.391 169.748 238.448 169.818 239.536C170.023 240.871 170.147 242.216 170.19 243.566C170.138 246.023 171.322 252.767 167.36 252.374C163.692 251.447 163.844 246.186 164.216 243.194C164.347 242.439 164.358 241.648 164.473 240.888C164.128 241.101 163.798 241.339 163.488 241.601C159.62 244.318 155.554 246.744 151.326 248.858C148.312 250.06 145.19 250.974 142.004 251.588C139.955 251.887 137.901 252.495 135.816 252.306C130.874 251.782 128.846 248.376 127.956 244.284C127.814 244.373 127.678 244.457 127.552 244.546C126.939 245.636 124.01 246.788 123.261 246.977C120.95 248.098 118.403 248.47 115.893 248.926C113.332 249.459 110.696 249.526 108.112 249.125C104.37 248.413 100.676 247.066 98.1085 244.153C97.0092 242.681 96.1269 241.059 95.4885 239.337C93.775 234.443 93.5392 229.14 93.8065 224.01C93.8065 220.148 93.8065 216.297 94.189 212.482C94.189 211.874 94.2571 211.303 94.2362 210.706C90.8092 210.48 87.377 210.266 83.9448 210.087C77.8926 209.448 71.8037 208.95 65.8249 207.824C62.6547 207.158 59.6626 205.916 56.5606 205.052C46.1854 202.804 39.4205 198.895 40.0336 187.204C40.6519 176.85 40.589 166.512 41.81 156.22C42.858 145.74 44.6972 135.365 46.0334 124.916C47.1286 117.486 47.7626 109.93 48.9416 102.521C49.5075 98.9104 50.1049 95.3105 50.6184 91.6949C50.7808 90.6102 50.9328 89.5255 51.1424 88.4461C51.1557 88.3835 51.1829 88.3246 51.2219 88.2739C51.2608 88.2231 51.3107 88.1817 51.3677 88.1526C51.3623 88.1126 51.3623 88.0721 51.3677 88.0321C51.3989 87.94 51.4551 87.8583 51.5301 87.7963C51.605 87.7343 51.6958 87.6944 51.7922 87.681C52.4164 87.287 53.0824 86.9637 53.7781 86.7169C57.2313 85.6217 60.9517 85.8156 64.5306 85.9518C68.9951 86.2977 73.4753 86.1038 77.9345 86.3972C84.3535 86.8269 90.7201 87.8278 97.1548 88.0112C101.818 88.1264 106.482 88.2784 111.135 88.6557C116.506 89.012 121.898 88.9491 127.259 89.4888C136.434 90.5368 145.682 90.8041 154.837 92.0093C163.404 93.466 172.129 93.618 180.707 94.8232C183.583 95.2633 186.471 95.7297 189.342 96.1436C194.105 96.7567 198.774 96.8668 203.401 97.9095C208.882 99.0309 214.583 98.9575 219.949 100.676C220.25 100.764 220.541 100.881 220.819 101.027C220.914 101.097 220.993 101.186 221.049 101.289C221.133 101.342 221.208 101.405 221.275 101.478C222.055 102.405 221.38 103.637 221.511 104.706ZM218.969 134.914C220.132 124.785 221.589 114.478 219.603 104.355C219.462 103.595 219.32 102.835 219.147 102.075C214.531 100.87 209.773 100.561 205.067 99.9322C200.65 98.8475 196.159 98.4912 191.643 98.0562C187.22 97.637 182.855 96.762 178.448 96.1646C174.613 95.7559 170.761 95.4362 166.92 95.1166C162.152 94.8179 157.488 94.011 152.804 93.4241C147.333 92.701 141.8 92.4861 136.329 92.004C130.859 91.522 125.205 90.8198 119.613 90.6416C114.248 90.5526 108.898 90.081 103.537 89.8032C96.2078 89.6743 88.89 89.1671 81.613 88.2836C76.5512 87.7125 71.4526 87.8644 66.3751 87.6077C61.7324 87.4243 56.7702 86.7326 52.3528 88.4618C52.286 88.5671 52.1838 88.6452 52.0646 88.6819C51.4044 91.8259 51.111 95.0066 50.6132 98.161C49.1669 108.51 48.47 118.948 46.9452 129.292C44.9749 143.44 42.4021 157.64 42.1296 171.982C42.1296 173.03 42.0929 174.11 42.0615 175.173H42.1086C44.0003 175.262 45.8867 174.875 47.7783 175.048C51.2629 175.367 54.7737 175.231 58.2583 175.572H58.295C61.1822 175.923 64.1166 175.671 66.9829 176.143C67.4021 176.237 68.1148 176.263 68.272 176.714C70.9391 169.121 73.5644 161.518 76.5197 154.046C77.9817 150.378 79.6375 146.778 81.1519 143.125C82.6715 139.201 84.1544 135.265 85.7578 131.398C85.7959 131.334 85.8259 131.266 85.8469 131.194C84.7622 130.859 83.6985 130.46 82.6715 130.036C81.6916 129.418 83.0226 128.176 83.557 129.208C86.6926 130.504 90.1032 130.992 93.4764 130.628C97.4378 130.361 102.756 129.748 104.417 125.561C104.489 125.425 104.608 125.321 104.751 125.266C104.895 125.211 105.053 125.21 105.197 125.263C105.341 125.316 105.461 125.42 105.534 125.555C105.608 125.689 105.63 125.846 105.596 125.996C105.496 126.859 105.173 127.682 104.66 128.384C104.146 129.085 103.46 129.642 102.667 129.999C102.814 140.181 102.217 150.351 102.196 160.533C102.196 167.381 101.97 174.22 101.792 181.063C103.605 180.796 108.237 181.467 108.976 181.393C111.661 181.336 114.346 181.455 117.014 181.75C122.291 182.043 127.521 182.949 132.782 183.473C135.611 183.542 137.702 183.62 140.5 183.835C142.192 183.772 143.885 183.835 145.567 184.024C145.809 184.014 146.051 184.028 146.29 184.066C147.307 178.34 148.344 172.62 149.403 166.905C151.97 155.198 155.618 143.775 159.055 132.321C159.035 132.25 159.033 132.175 159.049 132.103C159.064 132.031 159.097 131.963 159.144 131.907C158.29 131.084 157.425 130.193 156.524 129.234C156.388 129.083 156.318 128.883 156.329 128.68C156.34 128.477 156.431 128.286 156.582 128.15C157.52 127.348 158.646 129.444 159.375 129.942C162.686 133.405 166.187 135.674 171.044 135.994C172.048 136.158 173.073 136.133 174.068 135.92C174.539 135.748 175.173 135.538 175.451 136.109C175.781 137.157 174.314 137.634 173.192 137.77C174.633 146.453 174.434 155.303 174.518 164.075C174.712 169.147 174.607 174.209 174.518 179.271C174.576 181.86 174.67 184.474 174.77 187.079C175.079 186.99 175.545 187.178 175.854 187.162C179.318 187.252 182.63 188.279 186.072 188.493C192.394 189.526 198.766 190.217 205.162 190.563C206.618 190.61 208.007 190.563 209.453 190.563H209.553C211.125 181.377 212.734 172.192 214.793 163.1C215.684 159.045 216.585 154.978 217.245 150.875C217.9 145.562 218.241 140.154 218.969 134.914ZM174.906 214.562C174.77 213.31 174.77 211.979 174.744 210.763C174.298 206.818 174.22 202.841 173.937 198.926C173.533 192.214 173.24 185.596 173.098 178.894C173.203 170.51 173.193 162.126 173.172 153.742C173.062 148.402 172.475 143.125 172.558 137.812H172.328C166.564 137.681 163.21 135.716 159.752 132.457C159.726 132.892 159.558 133.353 159.532 133.772C157.729 141.412 155.01 148.816 153.139 156.451C152.248 160.224 151.279 163.975 150.461 167.764C149.675 171.956 148.968 176.279 148.046 180.44C146.814 188.148 145.185 195.793 144.247 203.543C143.985 206.084 143.628 208.61 143.361 211.151C143.331 211.583 143.26 212.011 143.152 212.43C143.723 212.43 144.294 212.388 144.876 212.383C148.942 212.419 152.945 213.373 157.022 213.331C162.262 213.174 167.387 213.855 172.558 214.421C173.334 214.468 174.12 214.526 174.906 214.578V214.562ZM127.253 212.99H127.138C126.16 213.152 125.169 213.227 124.178 213.216C121.558 213.069 119.042 212.136 116.443 211.99C115.982 211.99 115.526 212.016 115.065 212.021C113.43 211.937 111.795 211.846 110.161 211.749C109.113 211.749 108.112 211.696 107.095 211.618C105.713 211.616 104.332 211.509 102.966 211.298L101.268 211.183C101.137 212.985 101.41 214.851 101.305 216.564C101.226 218.76 101.08 220.866 101.006 222.988C100.948 225.77 101.039 228.553 101.279 231.325C101.384 234.108 101.677 236.932 102.882 239.484C103.611 240.81 105.251 241.161 106.55 241.658C107.797 242.051 109.034 242.649 110.349 242.649C113.381 242.632 116.409 242.445 119.42 242.088C122.231 241.469 124.91 240.355 127.332 238.797C127.253 237.362 127.217 235.963 127.154 234.684C126.698 230.267 126.887 225.839 126.976 221.406C126.976 218.602 126.887 215.783 127.269 213.022L127.253 212.99ZM100.854 209.49C100.901 209.455 100.958 209.437 101.017 209.438C101.017 209.385 100.991 209.338 100.98 209.286C100.231 209.165 100.498 208.306 100.456 207.745C100.362 199.843 100.294 191.931 100.456 184.024C100.671 175.404 100.891 166.784 100.938 158.164C101.085 148.926 101.609 139.704 101.661 130.471C98.6378 131.959 95.1636 132.106 91.8467 132.127C90.0564 132.137 88.2746 131.881 86.5596 131.367C86.4024 131.891 86.2556 132.415 86.1142 132.939C84.1701 139.594 81.199 145.866 78.5528 152.248C76.1686 158.012 74.0884 163.897 71.9766 169.745C70.7348 173.512 69.2571 177.175 68.0676 180.948C66.8152 184.249 65.4843 187.44 64.4992 190.83C63.1996 194.404 62.1202 198.072 60.784 201.583C60.5639 202.065 60.3543 202.563 60.1447 203.055C60.2024 203.48 59.7255 203.946 59.6207 204.308C59.6402 204.338 59.6577 204.37 59.6731 204.402C62.2706 205.346 64.9392 206.082 67.6536 206.603C78.6472 208.238 89.7507 208.851 100.854 209.501V209.49ZM81.1728 61.5334C80.2454 61.1562 80.2663 59.4008 80.5912 58.6148C80.9894 57.7187 81.1152 56.5974 81.7597 55.8585C81.7951 55.7825 81.8453 55.7143 81.9072 55.6578C81.9692 55.6013 82.0418 55.5576 82.1207 55.5294C82.1997 55.5011 82.2834 55.4888 82.3672 55.4931C82.4509 55.4974 82.533 55.5183 82.6086 55.5546C82.6985 55.5973 82.7774 55.66 82.8392 55.738C82.9934 56.0653 83.0688 56.4243 83.0592 56.786C83.2007 58.0122 83.0173 61.5334 81.33 61.5334C81.2778 61.5387 81.2251 61.5387 81.1728 61.5334ZM92.9157 63.4303C90.8197 63.4303 90.9612 58.1903 92.5489 57.462C94.4353 57.0847 94.2047 60.3125 94.0947 61.4968C94.0004 62.2094 93.9742 63.4356 93.0467 63.4356L92.9157 63.4303ZM87.6285 75.3618C86.5805 75.1522 86.8216 73.8265 86.8006 73.03C86.9421 71.982 86.6539 70.0904 87.901 69.7707C89.3525 69.8336 89.1481 71.83 89.1114 72.8623C89.0643 73.8108 88.8914 75.3618 87.6704 75.3618H87.6285ZM81.744 70.7034C80.6488 70.541 80.7484 69.0948 80.8322 68.2511C80.7851 67.5018 81.1676 66.3542 82.1108 66.632C83.0173 67.0302 82.9282 68.2302 82.8077 69.0476C82.6662 69.6659 82.5981 70.7034 81.7597 70.7034H81.744ZM74.7172 61.9946C73.119 61.9946 73.7425 58.2899 74.5757 57.6139C75.8176 56.9275 76.2472 58.3213 76.1058 59.7099C75.9905 60.8522 75.4822 61.9946 74.7276 61.9946H74.7172ZM98.1347 73.2082C96.7252 73.4125 97.1758 70.4414 97.2858 69.5926C97.3524 69.2219 97.493 68.8685 97.6992 68.5534C97.9053 68.2383 98.1729 67.968 98.4858 67.7586C98.5818 67.7307 98.6824 67.7221 98.7817 67.7334C98.881 67.7447 98.9771 67.7757 99.0644 67.8244C99.1516 67.8732 99.2283 67.9388 99.29 68.0174C99.3517 68.0961 99.3972 68.1862 99.4238 68.2826C99.4448 68.3576 99.4554 68.4352 99.4552 68.5131C99.9216 69.3987 99.6596 70.4467 99.539 71.3846C99.4342 72.0606 99.2718 73.3077 98.491 73.3077C98.3669 73.298 98.2459 73.2642 98.1347 73.2082ZM105.072 76.9495C104.853 76.8243 104.658 76.6611 104.496 76.4674C104.391 75.8816 104.361 75.2846 104.407 74.6911C104.381 73.9732 104.407 72.8204 105.371 72.8256C106.555 73.0143 106.419 74.6387 106.325 75.54C106.325 76.1583 106.068 77.0176 105.418 77.0176C105.3 77.0163 105.183 76.9932 105.072 76.9495ZM105.581 63.6504C105.476 63.5507 105.402 63.4236 105.366 63.2836C105.151 62.4764 105.02 61.6494 104.973 60.8156C105.128 60.2542 105.323 59.7044 105.555 59.1702C105.684 58.955 105.894 58.8 106.137 58.7391C106.381 58.6782 106.639 58.7164 106.854 58.8453C106.996 58.9295 107.112 59.0509 107.189 59.1964C107.954 60.0296 107.488 63.6818 106.215 63.729C106.133 63.7672 106.043 63.7868 105.953 63.7866C105.817 63.7871 105.685 63.7387 105.581 63.6504ZM100.524 62.5081C100.432 62.4904 100.346 62.4509 100.273 62.3928C99.67 62.4347 99.6124 61.7168 99.6438 61.2662C99.7067 60.4121 99.4552 59.2278 100.267 58.6462C101.357 58.1536 101.478 59.6942 101.404 60.4173C101.305 61.0566 101.462 62.4819 100.55 62.4819L100.524 62.5081ZM111.9 71.72C111.776 71.6968 111.66 71.6448 111.56 71.568C111.451 71.5701 111.346 71.5308 111.266 71.458C111.182 71.3717 111.118 71.2689 111.076 71.1561C111.035 71.0432 111.017 70.923 111.025 70.803C110.978 69.6397 110.899 68.3926 111.413 67.3132C112.33 66.1237 113.205 67.6538 113.179 68.6179C113.153 69.5821 113.362 71.72 111.916 71.72H111.9ZM117.109 62.964C117.001 62.8571 116.915 62.7297 116.856 62.5894C116.798 62.4491 116.768 62.2985 116.768 62.1465C116.534 61.6395 116.416 61.0868 116.423 60.5285C116.429 59.9702 116.56 59.4203 116.805 58.9187C116.913 58.7949 117.054 58.705 117.212 58.6599C117.37 58.6148 117.537 58.6165 117.694 58.6648C117.851 58.713 117.991 58.8058 118.096 58.9317C118.202 59.0577 118.268 59.2115 118.288 59.3746C118.529 60.323 118.241 61.2976 118.094 62.2461C118.094 62.6443 117.811 63.0897 117.444 63.0897C117.322 63.0852 117.204 63.0411 117.109 62.964ZM118.262 73.7164C118.19 73.6942 118.123 73.6577 118.065 73.6091C118.007 73.5605 117.96 73.5008 117.926 73.4335C117.821 73.396 117.732 73.3235 117.674 73.2281C117.615 73.1327 117.592 73.0202 117.607 72.9095C117.383 71.9257 117.454 70.8977 117.811 69.9541C117.869 69.7603 118.001 69.5969 118.178 69.499C118.356 69.4011 118.564 69.3764 118.759 69.4301C118.884 69.4659 118.997 69.5328 119.089 69.6244C119.181 69.7161 119.248 69.8295 119.283 69.9541C119.446 70.6091 119.388 73.7269 118.398 73.7269C118.352 73.7294 118.306 73.7259 118.262 73.7164ZM115.83 79.0874C115.589 79.0874 115.416 78.7678 115.427 78.6368C115.495 77.8718 115.034 76.3574 116.139 76.2316C116.253 76.2389 116.363 76.2782 116.456 76.3449C116.548 76.4117 116.62 76.5032 116.663 76.6089C116.836 77.1958 116.988 79.1975 116.181 79.1975C116.057 79.1905 115.936 79.1527 115.83 79.0874ZM126.043 68.8432C125.927 68.7487 125.843 68.6206 125.802 68.4764C125.598 68.293 125.65 67.9524 125.619 67.7271C125.577 66.8311 125.32 65.7831 125.86 64.9918C125.975 64.8299 126.151 64.7202 126.347 64.6869C126.543 64.6535 126.745 64.6991 126.908 64.8137C126.966 64.8543 127.017 64.9038 127.06 64.9604C127.584 65.6992 127.327 66.6477 127.264 67.4808C127.264 68.0782 127.086 68.99 126.488 68.99C126.33 68.9805 126.176 68.9299 126.043 68.8432ZM134.506 64.1744C133.845 64.0958 133.982 63.2522 133.903 62.7648C133.903 62.005 133.741 59.8881 134.867 59.9614C135.59 60.1501 135.423 61.1195 135.459 61.6959C135.496 62.2723 135.491 64.2111 134.715 64.2111C134.644 64.2121 134.573 64.1996 134.506 64.1744ZM132.509 71.872C132.415 71.8849 132.32 71.8744 132.231 71.8413C132.143 71.8083 132.064 71.7537 132.001 71.6825C131.939 71.6113 131.895 71.5258 131.874 71.4336C131.853 71.3413 131.855 71.2453 131.88 71.1541C131.88 70.6615 131.823 70.169 131.833 69.6712C131.938 69.079 131.776 68.2302 132.357 67.8686C132.492 67.7893 132.649 67.7566 132.805 67.7755C132.96 67.7945 133.105 67.864 133.217 67.9734C133.741 68.8904 133.327 70.0694 133.253 71.0755C133.253 71.4475 133.075 71.9139 132.698 71.9139C132.633 71.9102 132.569 71.8961 132.509 71.872ZM128.139 79.9154C127.17 79.4438 127.159 75.0474 128.852 76.284C129.344 77.0648 129.056 78.0918 128.977 78.9564C128.977 79.3652 128.81 79.9625 128.375 79.9625C128.294 79.9631 128.214 79.947 128.139 79.9154ZM140.893 71.2956C140.804 70.4467 140.474 69.2624 140.998 68.5236C142.523 67.5175 142.57 70.7768 141.941 71.458C141.786 71.5946 141.587 71.6725 141.38 71.6781C141.267 71.6828 141.156 71.6469 141.066 71.5767C140.977 71.5066 140.916 71.4069 140.893 71.2956ZM150.781 66.4276C150.645 66.4101 150.518 66.3499 150.418 66.2558C150.318 66.1617 150.251 66.0384 150.226 65.9036C150.041 64.841 150.085 63.7511 150.357 62.7072C150.472 61.9526 151.405 61.3553 151.96 62.0941C152.594 62.9168 152.39 66.4328 151.148 66.59C151.01 66.5816 150.88 66.5239 150.781 66.4276ZM147.317 81.2725C146.793 80.2769 146.589 77.4735 147.595 76.7504C147.705 76.6994 147.825 76.6708 147.946 76.6662C148.068 76.6615 148.189 76.6809 148.303 76.7233C148.417 76.7657 148.521 76.8302 148.61 76.913C148.699 76.9959 148.771 77.0956 148.821 77.2063C148.873 77.3163 148.902 77.4358 148.905 77.5574C149.036 78.2805 148.905 81.524 147.857 81.524C147.654 81.5046 147.463 81.4158 147.317 81.2725ZM163.043 67.5437C161.575 66.9778 162.576 64.8451 163.043 63.8757C163.247 63.5613 163.263 63.053 163.692 62.9587C164.599 62.8225 164.51 64.0853 164.641 64.6827C164.751 65.6678 164.567 67.5856 163.32 67.5856C163.227 67.5801 163.134 67.5661 163.043 67.5437ZM160.171 80.4865C159.39 79.7529 159.621 74.7487 161.408 75.8648C162.272 76.8866 161.769 78.4848 161.596 79.6691C161.564 79.9188 161.448 80.1503 161.267 80.3255C161.086 80.5006 160.851 80.6092 160.601 80.6332C160.446 80.6317 160.295 80.5803 160.171 80.4865ZM172.286 76.7923C172.017 76.6918 171.797 76.4908 171.673 76.2316C171.641 76.1688 171.605 76.1006 171.573 76.0273C171.049 75.7129 171.353 74.9793 171.301 74.4553C171.238 73.6601 171.469 72.8694 171.951 72.2335C172.032 72.1323 172.133 72.0482 172.248 71.986C172.362 71.9238 172.488 71.8848 172.617 71.8712C172.747 71.8576 172.877 71.8696 173.002 71.9066C173.127 71.9436 173.243 72.0048 173.344 72.0868C173.989 72.7418 173.764 76.8028 172.49 76.8028C172.422 76.8093 172.353 76.8058 172.286 76.7923ZM178.951 67.9367C178.844 67.1123 178.844 66.2774 178.951 65.453C179.035 64.6879 179.564 63.5299 180.523 63.9281C181.702 64.6198 180.806 67.0721 180.445 68.1201C180.392 68.2582 180.299 68.3771 180.177 68.4613C180.055 68.5454 179.911 68.5909 179.763 68.5917C179.574 68.5913 179.39 68.5262 179.242 68.4071C179.094 68.288 178.992 68.1221 178.951 67.9367ZM177.961 83.0698C177.154 82.6559 177.4 81.4978 177.316 80.7747C177.201 79.8263 177.982 77.9923 179.098 78.9826C179.779 79.5381 179.281 83.117 178.186 83.117C178.109 83.117 178.032 83.101 177.961 83.0698ZM186.654 74.1618C186.357 73.4999 186.212 72.7803 186.228 72.0552C186.245 71.3301 186.422 70.6177 186.748 69.9698C186.788 69.8772 186.845 69.7932 186.917 69.7229C186.989 69.6526 187.075 69.5973 187.168 69.5603C187.262 69.5232 187.362 69.5051 187.462 69.5071C187.563 69.509 187.662 69.531 187.754 69.5716C187.915 69.6412 188.048 69.763 188.132 69.9174C188.619 71.1331 188.268 72.5374 187.995 73.7479C187.905 73.9163 187.772 74.0586 187.611 74.1613C187.449 74.264 187.264 74.3237 187.073 74.3348C186.916 74.3339 186.766 74.2719 186.654 74.1618ZM163.058 28.5896C163.086 28.7262 163.159 28.8495 163.266 28.9398C163.372 29.03 163.506 29.082 163.645 29.0874H163.755C163.898 29.0587 164.025 28.9801 164.114 28.8658C164.204 28.7514 164.249 28.6088 164.243 28.4638V27.8245C164.228 27.3257 164.179 26.8285 164.096 26.3364C163.912 25.3572 163.544 24.4218 163.011 23.5801C162.612 22.9393 162.158 22.3345 161.654 21.7723C161.34 21.4212 161.036 21.0544 160.711 20.7243C160.052 20.0079 159.28 19.4043 158.426 18.9375C157.973 18.6907 157.486 18.5141 156.98 18.4135C156.513 18.3332 156.036 18.3209 155.565 18.3768C154.577 18.5273 153.628 18.8709 152.772 19.3881C152.328 19.6441 151.907 19.9386 151.515 20.2684C151.342 20.4152 151.169 20.5724 150.991 20.7296C150.812 20.8868 150.713 20.9916 150.577 21.1226L150.519 21.1592C150.519 21.1592 150.325 21.3269 150.309 21.3426C150.253 21.4203 150.21 21.5072 150.184 21.5994C150.136 21.7863 150.164 21.9845 150.263 22.1505C150.361 22.3166 150.521 22.4368 150.708 22.485C150.8 22.5008 150.893 22.5008 150.985 22.485C151.142 22.4611 151.287 22.3868 151.397 22.2733C151.508 22.1599 151.579 22.0134 151.598 21.8562C151.601 21.8283 151.601 21.8002 151.598 21.7723C151.803 21.5575 152.018 21.3636 152.238 21.1645C152.458 20.9654 152.62 20.8658 152.819 20.7296C153.13 20.5386 153.45 20.3637 153.778 20.2056L153.71 20.2422C153.993 20.1145 154.284 20.0043 154.58 19.9121C154.795 19.8474 155.014 19.7949 155.235 19.7549C155.452 19.7193 155.671 19.6965 155.89 19.6868H156.262C156.463 19.709 156.663 19.744 156.859 19.7916H156.77C156.914 19.83 157.05 19.8719 157.179 19.9174C157.384 20.0007 157.584 20.097 157.776 20.2056C157.996 20.3307 158.208 20.4689 158.41 20.6195C158.719 20.8394 159.015 21.0774 159.296 21.3322C159.631 21.678 159.941 22.0396 160.25 22.3802C160.559 22.7208 160.889 23.1452 161.193 23.5434C161.439 23.8811 161.668 24.2308 161.879 24.5914V24.6281C162.009 24.8735 162.126 25.1254 162.23 25.3827C162.356 25.718 162.466 26.0586 162.561 26.3992V26.4307C162.563 26.4428 162.563 26.4552 162.561 26.4674V26.504C162.702 27.1014 162.812 27.7092 162.964 28.3066C163.022 28.4271 163.037 28.511 163.058 28.5896ZM155.764 26.6088L156.058 26.7765C156.173 26.8551 156.278 26.939 156.388 27.0228C156.498 27.1066 156.666 27.2848 156.802 27.4263C156.938 27.5678 157.027 27.7092 157.132 27.8612C157.394 28.2594 157.656 28.6682 157.876 29.0874C158.096 29.5066 158.337 29.9205 158.573 30.3292C158.628 30.4254 158.709 30.5049 158.806 30.5593C158.902 30.6137 159.012 30.641 159.123 30.6384C159.235 30.6416 159.346 30.6125 159.443 30.5546C159.586 30.4674 159.69 30.3278 159.732 30.1654C159.774 30.0029 159.751 29.8305 159.668 29.6847C159.474 29.3336 159.28 28.9826 159.081 28.6367C158.905 28.2983 158.711 27.9695 158.5 27.6516C158.291 27.3282 158.061 27.0184 157.813 26.7241C157.586 26.4732 157.333 26.2466 157.059 26.0482C156.765 25.8293 156.442 25.6529 156.1 25.5242C155.763 25.4041 155.409 25.3403 155.052 25.3355C154.697 25.3347 154.344 25.3841 154.004 25.4822C153.733 25.5448 153.477 25.6586 153.249 25.8176C153.199 25.8587 153.157 25.9094 153.126 25.9667C153.095 26.0241 153.076 26.087 153.07 26.1518C153.063 26.2167 153.07 26.2821 153.089 26.3443C153.108 26.4066 153.139 26.4644 153.181 26.5145C153.265 26.6067 153.38 26.6659 153.503 26.6812C153.627 26.6966 153.753 26.6672 153.857 26.5984H153.894L154.103 26.5093L154.224 26.4726C154.363 26.4481 154.505 26.4272 154.648 26.4097H155.146L155.497 26.4988L155.738 26.5931L155.764 26.6088ZM101.991 28.0184C101.771 28.2856 101.546 28.5424 101.342 28.8306C101.137 29.1188 100.985 29.3022 100.818 29.5537L100.294 30.4707C100.178 30.6646 100.074 30.869 99.9687 31.0681C99.8063 31.393 99.6438 31.7231 99.4971 32.0584C98.8051 33.5111 98.3809 35.0768 98.2448 36.6801C98.1878 37.4646 98.2283 38.2531 98.3653 39.0276C98.4296 39.3828 98.5189 39.733 98.6325 40.0756C98.6763 40.2081 98.7325 40.3362 98.8002 40.4582C98.8669 40.5691 98.9404 40.6759 99.0203 40.7778C99.0641 40.8427 99.117 40.901 99.1775 40.9507C99.2595 41.0198 99.3637 41.0571 99.4709 41.0555C99.6099 41.0778 99.752 41.0439 99.866 40.9613C99.98 40.8788 100.057 40.7543 100.079 40.6154C100.101 40.4764 100.067 40.3343 99.9846 40.2203C99.902 40.1063 99.7776 40.0298 99.6386 40.0075L99.6072 39.9499L99.5705 39.8556C99.5286 39.7333 99.4919 39.6128 99.4604 39.494C99.3933 39.1986 99.3443 38.8994 99.3137 38.598C99.3137 38.2678 99.277 37.943 99.2823 37.6128C99.3032 37.1616 99.3505 36.7119 99.4238 36.2662C99.5131 35.8041 99.6285 35.3475 99.7696 34.8985C99.9616 34.3089 100.189 33.7315 100.451 33.1693C100.767 32.4919 101.116 31.8308 101.499 31.1886L102.023 30.2978C102.315 29.8117 102.593 29.3172 102.856 28.8149C102.856 28.8149 102.83 28.8673 102.814 28.8882L102.882 28.773V28.7101C102.899 28.6819 102.913 28.6521 102.924 28.621C102.964 28.5325 102.981 28.4354 102.974 28.3386C102.968 28.2417 102.937 28.148 102.885 28.066C102.833 27.9839 102.762 27.9161 102.677 27.8684C102.592 27.8208 102.497 27.7949 102.4 27.7931C102.32 27.8013 102.243 27.8255 102.173 27.8642C102.103 27.9029 102.041 27.9553 101.991 28.0184ZM110.768 26.1687C110.244 26.263 109.72 26.3678 109.196 26.4936C108.321 26.7034 107.481 27.0444 106.707 27.5049C105.919 27.9696 105.211 28.5589 104.611 29.2498C104.048 29.9349 103.589 30.6995 103.249 31.5187C102.516 33.2222 102.106 35.0469 102.039 36.9002C102.007 37.3905 102.007 37.8823 102.039 38.3726C102.068 38.8391 102.13 39.303 102.222 39.7612C102.3 40.1898 102.421 40.6094 102.583 41.0136C102.651 41.2005 102.744 41.377 102.861 41.5376C102.966 41.6581 103.071 41.7734 103.181 41.8887C103.294 41.9958 103.444 42.0542 103.6 42.0511C103.695 42.0532 103.788 42.0324 103.873 41.9904C103.958 41.9485 104.032 41.8866 104.087 41.8101C104.18 41.6806 104.219 41.5202 104.195 41.3628C104.172 41.2054 104.088 41.0632 103.962 40.9664L103.883 40.9036L103.946 40.9507L103.762 40.7778C103.762 40.7603 103.762 40.7429 103.762 40.7254C103.721 40.6416 103.684 40.5577 103.647 40.4686C103.579 40.2695 103.521 40.0756 103.469 39.8713C103.401 39.5464 103.354 39.2163 103.317 38.8862C103.279 38.4261 103.266 37.9642 103.28 37.5028C103.283 37.5289 103.283 37.5553 103.28 37.5814C103.302 36.9435 103.369 36.3079 103.48 35.6793C103.48 35.6793 103.48 35.6793 103.48 35.7212C103.6 35.082 103.757 34.4503 103.951 33.8296C104.172 33.1445 104.436 32.4742 104.742 31.8226C104.897 31.5045 105.072 31.1964 105.266 30.9004C105.595 30.4039 105.994 29.9574 106.451 29.5747C107.162 28.9878 107.955 28.506 108.803 28.1442L108.72 28.1756L109.354 27.9136L109.27 27.9503C109.563 27.8298 109.867 27.7302 110.161 27.6097L111.156 27.2062C111.223 27.1781 111.283 27.1366 111.332 27.0842C111.382 27.0319 111.421 26.9698 111.445 26.9019C111.47 26.834 111.48 26.7617 111.475 26.6897C111.471 26.6176 111.451 26.5473 111.418 26.4831C111.374 26.3905 111.305 26.312 111.219 26.2565C111.133 26.2009 111.033 26.1705 110.931 26.1687H110.768ZM73.7844 39.3001C72.5525 39.3997 71.3461 39.7062 70.216 40.2066C69.5417 40.5585 68.9236 41.0088 68.382 41.5428C68.1094 41.8058 67.8539 42.0858 67.617 42.3812C67.4485 42.595 67.3077 42.8292 67.1978 43.0782C67.1531 43.1928 67.1555 43.3206 67.2046 43.4334C67.2537 43.5463 67.3454 43.6352 67.4598 43.6808H67.5069C67.6235 43.7087 67.7464 43.6912 67.8505 43.6319C67.9547 43.5725 68.0323 43.4757 68.0676 43.3611C68.0749 43.3304 68.0854 43.3005 68.099 43.272C68.099 43.272 68.099 43.272 68.099 43.2406C68.1934 43.1096 68.2877 42.9891 68.3925 42.8686C68.4973 42.748 68.754 42.4965 68.9479 42.3446C69.1858 42.1446 69.4342 41.9574 69.692 41.7839C69.8964 41.6476 70.1112 41.5271 70.326 41.4118L70.2684 41.4433C70.5409 41.307 70.8238 41.1865 71.112 41.0765C71.3283 41.0036 71.5488 40.9441 71.7723 40.8983C72.5059 40.7464 73.25 40.6416 73.994 40.5368C74.1572 40.5164 74.3063 40.434 74.4103 40.3065C74.5142 40.1791 74.5651 40.0165 74.5523 39.8526C74.5395 39.6886 74.4639 39.5359 74.3414 39.4262C74.2189 39.3165 74.0589 39.2582 73.8945 39.2634L73.7844 39.3001ZM72.705 42.5699C72.1641 42.6664 71.6364 42.8264 71.133 43.0467C70.6257 43.2517 70.1425 43.5118 69.692 43.8222C69.2559 44.1238 68.8763 44.4999 68.5706 44.9331C68.3671 45.3142 68.2458 45.7337 68.2143 46.1645C68.1831 46.2128 68.1601 46.2659 68.1462 46.3217C68.1187 46.4025 68.1082 46.4881 68.1154 46.5731C68.1226 46.6581 68.1473 46.7407 68.1879 46.8157C68.2286 46.8907 68.2843 46.9565 68.3516 47.0089C68.419 47.0613 68.4964 47.0992 68.5791 47.1203C68.6618 47.1413 68.7479 47.145 68.8321 47.1311C68.9163 47.1173 68.9967 47.0861 69.0682 47.0396C69.1398 46.9932 69.2009 46.9324 69.2479 46.8612C69.2948 46.7899 69.3265 46.7097 69.3409 46.6256C69.3617 46.5505 69.3674 46.4719 69.3575 46.3945C69.3476 46.3171 69.3224 46.2425 69.2833 46.175V45.9549C69.2888 45.9119 69.2993 45.8697 69.3147 45.8292L69.3881 45.6405L69.4195 45.5776C69.451 45.5357 69.4772 45.4938 69.5191 45.4466C69.561 45.3995 69.671 45.2842 69.7496 45.2056C69.8282 45.127 70.0378 44.9646 70.1898 44.8545C70.3418 44.7445 70.5618 44.6187 70.7557 44.5139C71.037 44.3697 71.3256 44.2403 71.6203 44.1262C71.8765 44.0376 72.1371 43.9624 72.4011 43.9008C72.7348 43.8311 73.0726 43.7821 73.4124 43.7541H73.36H73.622C74.146 43.7174 74.7067 43.7541 75.2516 43.7227C75.6342 43.7227 76.0219 43.7227 76.4097 43.6912C76.5422 43.6819 76.6662 43.6227 76.7567 43.5254C76.8472 43.4281 76.8973 43.3001 76.897 43.1672C76.8942 43.0588 76.8558 42.9543 76.7875 42.87C76.7193 42.7857 76.6252 42.7262 76.5197 42.7009C75.7351 42.5261 74.9341 42.4347 74.1303 42.4284C73.6527 42.4243 73.1757 42.4629 72.705 42.5437V42.5699ZM189.164 44.7026V46.1278C189.164 46.5575 189.164 46.9872 189.19 47.4221C189.196 47.5218 189.239 47.6157 189.311 47.6848C189.383 47.7539 189.478 47.793 189.578 47.7942C189.672 47.7908 189.762 47.7533 189.83 47.6887C189.899 47.6241 189.941 47.5368 189.95 47.4431C189.981 47.0082 190.002 46.5785 190.008 46.1488C190.029 45.5195 190.012 44.8895 189.955 44.2624C189.907 43.7648 189.825 43.271 189.709 42.7847C189.599 42.3652 189.443 41.9592 189.243 41.5743C189.071 41.2241 188.834 40.9095 188.546 40.6468C188.382 40.4982 188.207 40.3632 188.022 40.2433C187.87 40.1438 187.707 40.0599 187.54 39.9708C187.453 39.9291 187.353 39.9233 187.262 39.9547C187.17 39.9861 187.095 40.0521 187.052 40.1385C187.012 40.2226 187.004 40.3189 187.032 40.4082C187.059 40.4975 187.119 40.5733 187.199 40.6206C187.351 40.694 187.492 40.7778 187.634 40.8616C187.73 40.9203 187.821 40.9869 187.906 41.0608C188.001 41.1394 188.085 41.2232 188.168 41.307C188.204 41.3448 188.238 41.3851 188.268 41.4276C188.352 41.5481 188.43 41.6791 188.504 41.8101C188.577 41.9411 188.64 42.1035 188.703 42.2502V42.2083C188.791 42.4343 188.867 42.6653 188.928 42.9V42.8528C189.001 43.1779 189.055 43.5068 189.091 43.838V43.7856C189.096 44.1 189.133 44.3986 189.164 44.7026ZM192.759 49.9426L192.528 50.2255C192.428 50.3458 192.378 50.5001 192.389 50.6563C192.399 50.8125 192.47 50.9585 192.586 51.0639C192.637 51.1119 192.697 51.1491 192.763 51.1734C192.828 51.1977 192.898 51.2086 192.968 51.2054C193.054 51.2053 193.138 51.1875 193.217 51.1533C193.295 51.119 193.366 51.069 193.424 51.0063C193.649 50.7705 193.88 50.5399 194.095 50.2936C194.31 50.0474 194.488 49.864 194.666 49.6386C195.125 49.0598 195.522 48.4346 195.85 47.7732C196.176 47.0819 196.395 46.3451 196.5 45.5881C196.643 44.6838 196.682 43.766 196.615 42.8528C196.549 41.9872 196.332 41.1398 195.976 40.3481C195.63 39.5864 195.139 38.8994 194.53 38.3255C193.894 37.7285 193.178 37.224 192.402 36.8268C191.447 36.3079 190.464 35.8409 189.457 35.4278C189.018 35.2592 188.571 35.1141 188.116 34.9928C187.684 34.8729 187.245 34.7819 186.801 34.7204C186.353 34.6594 185.9 34.6401 185.449 34.6627C185.052 34.6892 184.66 34.7612 184.28 34.8776C184.221 34.8906 184.165 34.9152 184.115 34.95C184.066 34.9847 184.023 35.0289 183.991 35.0799C183.958 35.131 183.936 35.188 183.925 35.2477C183.915 35.3074 183.916 35.3686 183.929 35.4278C183.942 35.4869 183.967 35.543 184.002 35.5926C184.036 35.6423 184.081 35.6846 184.132 35.7172C184.183 35.7498 184.24 35.7721 184.299 35.7826C184.359 35.7932 184.42 35.7919 184.479 35.7788H184.621C184.831 35.716 185.04 35.6688 185.255 35.6269H185.596C185.889 35.6216 186.183 35.6321 186.476 35.6583H186.413C186.766 35.6998 187.116 35.7628 187.461 35.847H187.403C187.882 35.9615 188.352 36.105 188.813 36.2766C189.541 36.5636 190.249 36.8961 190.935 37.2722L191.983 37.8329C192.422 38.0795 192.848 38.3507 193.256 38.6451H193.293H193.267C193.508 38.8338 193.744 39.0329 193.969 39.2477L193.922 39.2006C194.094 39.3663 194.256 39.5412 194.409 39.7246C194.556 39.9184 194.697 40.1176 194.823 40.3219C194.949 40.5263 195.007 40.673 195.09 40.8459C195.185 41.0712 195.274 41.2913 195.347 41.5271V41.4642C195.421 41.7158 195.478 41.9882 195.525 42.2188C195.562 42.4703 195.578 42.7428 195.593 42.9734V42.9681C195.598 43.3881 195.579 43.8079 195.536 44.2257V44.1681C195.491 44.6312 195.419 45.0914 195.321 45.5462V45.4728C195.248 45.7768 195.159 46.0859 195.054 46.3846C194.944 46.6779 194.818 46.9648 194.676 47.244C194.518 47.562 194.343 47.8715 194.152 48.1714L194.2 48.0981C193.791 48.7059 193.314 49.2561 192.869 49.8273L192.916 49.7644C192.832 49.8116 192.785 49.8797 192.738 49.9478L192.759 49.9426ZM182.776 59.0235C175.744 59.0235 168.89 57.1318 161.921 56.5869C157.729 56.6498 153.537 57.0166 149.345 57.027C145.677 56.7493 141.957 56.807 138.284 56.3668C133.814 56.0472 129.328 55.7485 124.901 55.0516C121.233 54.4594 117.523 53.7154 113.808 53.4796C109.93 53.0446 105.948 52.9556 102.096 52.5521C97.333 52.0857 92.6642 51.6665 87.8748 51.4098C85.7002 51.3762 83.5328 51.15 81.3982 50.7338C79.1921 50.4089 77.1171 50.3408 74.932 50.0159C70.7662 49.5443 66.0607 48.9679 63.011 45.8239C61.5176 44.058 62.6442 41.3647 64.2843 40.1071C68.4082 36.8478 74.3504 37.0522 79.3284 37.5133C81.6025 37.812 83.8924 38.0373 86.1404 38.4879C88.9333 39.0958 91.7524 39.7979 94.6292 39.6407C94.9593 38.4827 94.7392 37.2722 94.8964 36.088C94.9698 33.3272 95.724 30.6272 97.092 28.228C101.205 21.1854 109.422 16.8886 117.528 18.8536C121.631 19.7497 126.205 23.381 128.008 27.1538C129.852 23.0299 133.458 20.085 136.738 17.1244C140.626 13.5927 145.012 10.3124 150.362 9.6784C156.278 9.22252 162.272 12.1936 166.082 16.6424C169.53 20.3104 172.113 25.1888 171.772 30.3397C176.693 25.0997 185.145 24.3294 191.396 27.552C196.82 30.7799 200.765 36.2242 203.448 41.8415C205.775 47.4064 200.75 54.3704 195.835 56.7965C191.894 58.8191 187.33 58.8558 182.997 59.0549L182.776 59.0235Z" fill="black"/>
<path d="M103.443 39.85V39.9234C103.443 39.9496 103.448 39.871 103.443 39.85ZM103.93 33.7192C103.924 33.7479 103.915 33.7759 103.904 33.8031C103.914 33.7757 103.923 33.7477 103.93 33.7192Z" fill="black"/>
</svg>
